<svg width="512" height="512" viewBox="0 0 512 512" fill="none" xmlns="http://www.w3.org/2000/svg">
<path fill-rule="evenodd" clip-rule="evenodd" d="M0 261.572L0.0260042 259.007L0.0796284 256.44L0.161011 253.874L0.270013 251.308L0.406905 248.741L0.571418 246.175L0.763823 243.61L0.983848 241.044L1.23176 238.481L1.50744 235.917L1.81086 233.357L2.14191 230.797L2.50085 228.239L2.88754 225.684L3.30186 223.132L3.74393 220.584L4.21376 218.036L4.71107 215.494L5.23614 212.955L5.78883 210.419L6.36914 207.887L6.97681 205.361L7.61223 202.839L8.27486 200.321L8.96512 197.81L9.68259 195.302L10.4276 192.801L11.1997 190.307L11.9991 187.818L12.8256 185.336L13.6793 182.861L14.5601 180.392L15.4678 177.93L16.4023 175.476L17.3638 173.03L18.352 170.592L19.3669 168.163L20.4085 165.741L21.4765 163.329L22.571 160.925L23.6919 158.531L24.839 156.146L26.0123 153.772L27.2117 151.406L28.4372 149.051L29.6885 146.707L30.9655 144.374L32.2683 142.051L33.5965 139.74L34.9502 137.44L36.3294 135.151L37.7336 132.876L39.163 130.611L40.6174 128.36L42.0966 126.121L43.6006 123.895L45.1292 121.683L46.6823 119.483L48.2596 117.298L49.8613 115.126L51.4869 112.968L53.1363 110.825L54.8096 108.695L56.5065 106.582L58.2269 104.483L59.9706 102.398L61.7374 100.329L63.5272 98.2766L65.3398 96.2396L67.1752 94.2186L69.0331 92.214L70.9132 90.226L72.8156 88.2547L74.74 86.3004L76.6861 84.3633L78.654 82.4435L80.6432 80.5413L82.6538 78.6569L84.6855 76.7905L86.738 74.9423L88.8114 73.1127L90.9052 71.3015L93.0194 69.5092L95.1537 67.7359L97.308 65.9817L99.482 64.247L101.676 62.532L103.888 60.8366L106.12 59.1612L108.372 57.5059L110.641 55.8711L112.93 54.2566L115.236 52.663L117.561 51.0903L119.902 49.5386L122.263 48.0081L124.64 46.4988L127.034 45.0113L129.446 43.5455L131.875 42.1016L134.319 40.6798L136.781 39.2801L139.257 37.903L141.75 36.5484L144.259 35.2164L146.782 33.9073L149.321 32.6212L151.874 31.3583L154.442 30.1187L157.025 28.9025L159.621 27.71L162.233 26.5411L164.856 25.3961L167.494 24.2752L170.144 23.1784L172.808 22.1059L175.484 21.0578L178.172 20.0342L180.872 19.0351L183.584 18.0611L186.307 17.1117L189.043 16.1875L191.788 15.2883L194.545 14.4143L197.311 13.5658L200.088 12.7427L202.876 11.9451L205.673 11.1732L208.478 10.4271L211.294 9.70675L214.118 9.01235L216.951 8.34406L219.791 7.70202L222.64 7.08595L225.497 6.49638L228.36 5.93306L231.231 5.39622L234.109 4.88602L236.994 4.4023L239.885 3.94534L242.782 3.51514L245.685 3.11168L248.592 2.73523L251.505 2.38566L254.424 2.0631L257.346 1.76742L260.273 1.49914L263.203 1.25786L266.138 1.04371L269.075 0.856961L284.871 0L285.773 72.303L286.289 72.2973L288.47 72.2944L290.652 72.3118L292.833 72.3496L295.017 72.4078L297.2 72.4864L299.384 72.5852L301.568 72.7046L303.752 72.8445L305.935 73.0047L308.119 73.1854L310.3 73.3866L312.482 73.6083L314.66 73.8504L316.839 74.1129L319.015 74.3959L321.19 74.6993L323.362 75.0232L325.532 75.3676L327.699 75.7322L329.864 76.1174L332.025 76.5229L334.182 76.9489L336.338 77.3951L338.489 77.8616L340.635 78.3484L342.779 78.8556L344.917 79.383L347.05 79.9306L349.179 80.4984L351.303 81.0863L353.421 81.6943L355.534 82.3224L357.641 82.9706L359.743 83.6388L361.838 84.3268L363.927 85.0348L366.01 85.7624L368.085 86.5101L370.153 87.2773L372.215 88.0644L374.268 88.871L376.313 89.6972L378.352 90.5428L380.382 91.408L382.403 92.2925L384.416 93.1962L386.421 94.1192L388.417 95.0614L390.403 96.0227L392.379 97.0029L394.346 98.0021L396.304 99.0202L398.251 100.057L400.189 101.112L402.115 102.187L404.031 103.279L405.937 104.39L407.831 105.519L409.713 106.668L411.585 107.832L413.444 109.016L415.293 110.218L417.128 111.437L418.952 112.675L420.763 113.929L422.56 115.201L424.347 116.492L426.119 117.798L427.878 119.123L429.623 120.463L431.356 121.821L433.074 123.197L434.778 124.589L436.469 125.997L438.145 127.421L439.805 128.863L441.452 130.321L443.083 131.794L444.7 133.283L446.301 134.788L447.887 136.308L449.457 137.846L451.011 139.397L452.549 140.964L454.071 142.546L455.576 144.143L457.065 145.755L458.538 147.382L459.993 149.023L461.432 150.678L462.853 152.348L464.257 154.031L465.644 155.729L467.013 157.44L468.364 159.165L469.697 160.904L471.012 162.656L472.308 164.421L473.586 166.198L474.846 167.988L476.087 169.792L477.309 171.608L478.511 173.436L479.696 175.276L480.86 177.128L482.005 178.991L483.13 180.867L484.236 182.753L485.322 184.652L486.388 186.56L487.433 188.48L488.459 190.41L489.464 192.351L490.449 194.303L491.414 196.264L492.357 198.235L493.28 200.216L494.181 202.207L495.061 204.207L495.92 206.216L496.759 208.234L497.575 210.26L498.37 212.297L499.143 214.34L499.895 216.393L500.626 218.452L501.334 220.521L502.02 222.596L502.684 224.678L503.326 226.769L503.945 228.865L504.542 230.97L505.118 233.08L505.669 235.196L506.2 237.32L506.706 239.448L507.19 241.583L507.652 243.722L508.09 245.869L508.505 248.019L508.898 250.175L509.268 252.334L509.614 254.499L509.937 256.668L510.236 258.84L510.512 261.018L510.766 263.197L510.995 265.381L511.201 267.567L511.384 269.757L511.543 271.95L511.678 274.145L511.79 276.342L511.879 278.542L511.942 280.742L511.984 282.945L512 285.149L511.993 287.355L511.962 289.562L511.907 291.77L511.829 293.976L511.726 296.184L511.601 298.392L511.45 300.6L511.276 302.808L511.078 305.015L510.856 307.222L510.611 309.427L510.34 311.63L510.046 313.833L509.73 316.033L509.387 318.232L509.022 320.429L508.633 322.623L508.219 324.814L507.783 327.003L507.322 329.189L506.837 331.371L506.328 333.55L505.795 335.726L505.24 337.897L504.66 340.064L504.056 342.226L503.429 344.384L502.779 346.537L502.105 348.685L501.407 350.829L500.685 352.965L499.941 355.098L499.173 357.222L498.381 359.342L497.567 361.455L496.729 363.561L495.868 365.66L494.984 367.753L494.077 369.838L493.148 371.916L492.195 373.987L491.22 376.047L490.221 378.102L489.2 380.147L488.157 382.184L487.09 384.213L486.002 386.231L484.891 388.242L483.759 390.241L482.603 392.233L481.427 394.213L480.228 396.184L479.007 398.145L477.765 400.095L476.501 402.035L475.214 403.963L473.907 405.88L472.58 407.786L471.23 409.681L469.86 411.564L468.468 413.435L467.056 415.293L465.622 417.14L464.168 418.975L462.694 420.796L461.2 422.603L459.686 424.399L458.151 426.181L456.596 427.949L455.021 429.704L453.427 431.444L451.813 433.171L450.18 434.884L448.528 436.582L446.857 438.266L445.166 439.935L443.458 441.587L441.729 443.226L439.983 444.849L438.219 446.456L436.437 448.049L434.637 449.624L432.818 451.185L430.981 452.727L429.129 454.254L427.257 455.766L425.37 457.26L423.464 458.735L421.543 460.196L419.604 461.638L417.649 463.063L415.678 464.47L413.691 465.86L411.688 467.232L409.669 468.585L407.634 469.921L405.585 471.238L403.521 472.536L401.44 473.816L399.347 475.078L397.238 476.32L395.114 477.544L392.976 478.747L390.824 479.932L388.661 481.097L386.481 482.241L384.29 483.368L382.084 484.472L379.866 485.558L377.635 486.624L375.392 487.668L373.136 488.692L370.869 489.697L368.589 490.68L366.298 491.643L363.996 492.584L361.682 493.504L359.358 494.404L357.023 495.282L354.677 496.138L352.321 496.974L349.955 497.787L347.578 498.579L345.193 499.348L342.799 500.097L340.394 500.823L337.981 501.527L335.559 502.209L333.13 502.868L330.691 503.506L328.246 504.122L325.791 504.713L323.331 505.283L320.862 505.83L318.386 506.354L315.904 506.856L313.415 507.334L310.92 507.79L308.419 508.223L305.913 508.631L303.4 509.018L300.884 509.381L298.36 509.72L295.834 510.036L293.302 510.33L290.765 510.598L288.225 510.844L285.681 511.067L283.135 511.265L280.584 511.441L278.031 511.592L275.473 511.72L272.915 511.823L270.355 511.903L267.791 511.959L265.227 511.991L262.66 512L260.093 511.985L257.525 511.945L254.956 511.882L252.386 511.794L249.817 511.683L247.248 511.548L244.679 511.388L242.11 511.205L239.543 510.998L236.977 510.766L234.411 510.511L231.848 510.232L229.287 509.929L226.727 509.601L224.171 509.249L221.616 508.874L219.066 508.475L216.518 508.052L213.973 507.604L211.433 507.133L208.896 506.639L206.364 506.12L203.835 505.577L201.313 505.011L198.795 504.421L196.282 503.807L193.774 503.169L191.274 502.509L188.778 501.824L186.289 501.116L183.807 500.384L181.332 499.629L178.863 498.851L176.402 498.048L173.948 497.222L171.502 496.375L169.065 495.503L166.636 494.609L164.216 493.691L161.804 492.75L159.402 491.786L157.009 490.801L154.625 489.792L152.251 488.76L149.888 487.706L147.535 486.629L145.194 485.53L142.861 484.408L140.541 483.265L138.233 482.099L135.935 480.913L133.65 479.703L131.376 478.472L129.116 477.219L126.867 475.944L124.632 474.648L122.408 473.33L120.199 471.992L118.004 470.632L115.821 469.252L113.653 467.849L111.5 466.427L109.361 464.984L107.236 463.52L105.126 462.036L103.032 460.531L100.952 459.007L98.8888 457.463L96.8409 455.898L94.8092 454.314L92.7937 452.71L90.7946 451.087L88.8122 449.445L86.8468 447.782L84.8985 446.102L82.9676 444.403L81.054 442.684L79.1584 440.948L77.2807 439.192L75.4211 437.42L73.5799 435.629L71.7573 433.819L69.9535 431.992L68.1686 430.148L66.403 428.285L64.6567 426.406L62.9299 424.511L61.2229 422.597L59.5359 420.668L57.8691 418.721L56.2225 416.759L54.5964 414.78L52.9911 412.786L51.4066 410.775L49.8431 408.749L48.3009 406.707L46.78 404.65L45.2807 402.579L43.8032 400.493L42.3477 398.391L40.9142 396.276L39.5028 394.147L38.114 392.003L36.7477 389.846L35.4041 387.674L34.0836 385.49L32.7859 383.292L31.5114 381.082L30.2604 378.857L29.0327 376.621L27.8288 374.373L26.6485 372.113L25.4923 369.841L24.3602 367.556L23.2521 365.261L22.1684 362.953L21.1091 360.636L20.0744 358.307L19.0646 355.968L18.0794 353.618L17.1193 351.258L16.1843 348.888L15.2744 346.509L14.3899 344.12L13.5307 341.723L12.6971 339.315L11.8892 336.9L11.1069 334.476L10.3506 332.044L9.62021 329.603L8.91581 327.154L8.23754 324.699L7.58555 322.236L6.95983 319.766L6.36066 317.289L5.78789 314.804L5.24167 312.315L4.72212 309.819L4.22925 307.318L3.7632 304.81L3.32409 302.298L2.9118 299.78L2.52659 297.257L2.16845 294.729L1.83754 292.197L1.53371 289.661L1.2571 287.122L1.00783 284.58L0.785921 282.033L0.59136 279.483L0.424287 276.931L0.2847 274.376L0.172598 271.818L0.0879838 269.26L0.0309898 266.698L0.00175075 264.136L0 261.572ZM261.094 73.8175L260.48 24.5349L259.897 24.5884L257.218 24.8593L254.546 25.1547L251.876 25.4752L249.216 25.8195L246.559 26.1889L243.905 26.583L241.258 27.0013L238.615 27.4446L235.985 27.9109L233.351 28.4033L230.736 28.9179L228.116 29.4584L225.51 30.0219L222.907 30.6104L220.316 31.2215L217.732 31.8572L215.155 32.5165L212.585 33.1996L210.028 33.9057L207.475 34.636L204.935 35.3891L202.402 36.166L199.882 36.9645L197.367 37.7882L194.865 38.6339L192.375 39.502L189.891 40.3937L187.422 41.3073L184.965 42.2428L182.516 43.2024L180.078 44.1838L177.653 45.1876L175.241 46.2125L172.842 47.2596L170.456 48.3279L168.077 49.4198L165.717 50.5316L163.368 51.665L161.033 52.8198L158.712 53.996L156.407 55.1923L154.111 56.4108L151.83 57.6503L149.569 58.9075L147.315 60.1893L145.082 61.4881L142.864 62.8072L140.657 64.1478L138.468 65.5081L136.294 66.8882L134.141 68.2845L131.996 69.7056L129.873 71.1419L127.766 72.598L125.673 74.0741L123.599 75.5677L121.545 77.0793L119.502 78.6121L117.482 80.1595L115.478 81.7272L113.492 83.312L111.523 84.9152L109.575 86.5338L107.641 88.1728L105.729 89.8264L103.834 91.4991L101.961 93.1859L100.104 94.891L98.2687 96.6115L96.4518 98.3489L94.6525 100.104L92.8768 101.872L91.121 103.654L89.3809 105.458L87.6649 107.273L85.9699 109.101L84.2923 110.948L82.6391 112.806L81.0042 114.682L79.3913 116.57L77.7995 118.473L76.2284 120.389L74.6806 122.318L73.1529 124.261L71.6463 126.22L70.1639 128.187L68.7014 130.171L67.2621 132.165L65.8451 134.172L64.4493 136.192L63.0772 138.223L61.7275 140.265L60.4005 142.319L59.0972 144.384L57.8153 146.461L56.5565 148.55L55.3224 150.647L54.1105 152.755L52.9217 154.875L51.757 157.004L50.6152 159.142L49.498 161.289L48.4041 163.446L47.3343 165.612L46.2878 167.788L45.2661 169.97L44.2675 172.163L43.2934 174.363L42.3442 176.57L41.4186 178.785L40.5174 181.009L39.6409 183.238L38.7887 185.476L37.9617 187.718L37.1585 189.97L36.3803 192.227L35.627 194.49L34.8986 196.756L34.1945 199.032L33.5158 201.311L32.8619 203.596L32.2328 205.884L31.6288 208.179L31.05 210.477L30.4962 212.78L29.9675 215.086L29.464 217.396L28.9857 219.709L28.5324 222.026L28.1045 224.346L27.7018 226.669L27.3244 228.993L26.9722 231.32L26.6453 233.65L26.3436 235.981L26.0673 238.313L25.8163 240.648L25.5906 242.982L25.3901 245.317L25.2149 247.654L25.0651 249.992L24.9405 252.328L24.8412 254.665L24.7671 257.001L24.7183 259.337L24.6946 261.672L24.6962 264.006L24.7229 266.339L24.7747 268.671L24.8517 271L24.9537 273.327L25.0809 275.653L25.2328 277.975L25.4099 280.296L25.6119 282.612L25.8388 284.927L26.0903 287.238L26.3668 289.545L26.6679 291.849L26.9937 294.148L27.3442 296.443L27.7193 298.734L28.1186 301.019L28.5427 303.3L28.9909 305.576L29.4634 307.845L29.9602 310.111L30.4811 312.369L31.0261 314.621L31.5951 316.868L32.188 319.108L32.8048 321.341L33.4451 323.566L34.1093 325.786L34.797 327.997L35.5081 330.202L36.2427 332.398L37.0004 334.586L37.7813 336.765L38.5854 338.936L39.4124 341.099L40.2621 343.252L41.135 345.398L42.0301 347.533L42.9478 349.659L43.8881 351.775L44.8505 353.88L45.8353 355.977L46.8421 358.063L47.8708 360.138L48.9212 362.203L49.9934 364.256L51.0871 366.299L52.2023 368.33L53.3387 370.35L54.4963 372.358L55.6749 374.354L56.8743 376.338L58.0945 378.31L59.3354 380.269L60.5961 382.216L61.878 384.15L63.1794 386.07L64.5012 387.978L65.8428 389.873L67.2038 391.753L68.5843 393.62L69.9846 395.474L71.4037 397.313L72.8422 399.139L74.299 400.948L75.7753 402.744L77.2693 404.525L78.7821 406.291L80.3135 408.044L81.8621 409.779L83.4291 411.5L85.0134 413.204L86.6159 414.894L88.2351 416.567L89.8712 418.225L91.5247 419.866L93.1948 421.491L94.882 423.1L96.585 424.691L98.3048 426.267L100.04 427.825L101.791 429.367L103.558 430.891L105.341 432.398L107.138 433.887L108.951 435.359L110.779 436.813L112.62 438.249L114.478 439.668L116.348 441.068L118.233 442.45L120.131 443.814L122.045 445.16L123.97 446.486L125.909 447.794L127.86 449.083L129.826 450.354L131.802 451.604L133.794 452.837L135.795 454.051L137.809 455.243L139.835 456.419L141.871 457.573L143.92 458.708L145.979 459.823L148.05 460.919L150.131 461.994L152.223 463.05L154.324 464.086L156.435 465.102L158.557 466.097L160.689 467.072L162.828 468.027L164.977 468.961L167.134 469.874L169.302 470.767L171.477 471.639L173.661 472.492L175.852 473.322L178.051 474.131L180.258 474.921L182.47 475.689L184.691 476.435L186.919 477.161L189.153 477.866L191.394 478.55L193.638 479.212L195.893 479.853L198.149 480.472L200.413 481.07L202.682 481.647L204.955 482.203L207.233 482.737L209.514 483.249L211.802 483.74L214.093 484.209L216.386 484.657L218.685 485.083L220.986 485.487L223.29 485.87L225.597 486.231L227.906 486.57L230.218 486.888L232.533 487.183L234.848 487.459L237.165 487.711L239.484 487.941L241.804 488.151L244.126 488.338L246.447 488.504L248.769 488.648L251.092 488.771L253.413 488.87L255.735 488.95L258.056 489.007L260.378 489.042L262.696 489.056L265.015 489.048L267.333 489.019L269.647 488.969L271.961 488.896L274.273 488.803L276.582 488.687L278.888 488.55L281.192 488.393L283.493 488.214L285.79 488.013L288.084 487.79L290.374 487.547L292.659 487.283L294.942 486.998L297.219 486.691L299.492 486.363L301.759 486.015L304.023 485.645L306.281 485.254L308.533 484.843L310.779 484.412L313.019 483.959L315.253 483.487L317.48 482.993L319.702 482.478L321.916 481.944L324.123 481.389L326.322 480.814L328.515 480.219L330.699 479.603L332.877 478.968L335.045 478.314L337.206 477.638L339.358 476.945L341.499 476.23L343.634 475.496L345.759 474.743L347.874 473.97L349.98 473.179L352.075 472.369L354.161 471.538L356.237 470.689L358.303 469.821L360.356 468.936L362.402 468.031L364.435 467.107L366.456 466.166L368.468 465.204L370.466 464.227L372.453 463.231L374.43 462.216L376.391 461.184L378.342 460.134L380.28 459.068L382.208 457.983L384.119 456.882L386.021 455.762L387.906 454.627L389.779 453.473L391.64 452.303L393.487 451.116L395.317 449.915L397.134 448.695L398.938 447.46L400.728 446.209L402.503 444.941L404.262 443.66L406.009 442.359L407.738 441.046L409.452 439.717L411.154 438.372L412.838 437.011L414.504 435.638L416.158 434.248L417.793 432.845L419.414 431.427L421.019 429.994L422.605 428.549L424.177 427.087L425.732 425.613L427.269 424.125L428.791 422.624L430.293 421.111L431.778 419.585L433.249 418.042L434.699 416.49L436.134 414.924L437.548 413.347L438.947 411.756L440.327 410.154L441.688 408.54L443.032 406.913L444.357 405.277L445.665 403.628L446.952 401.969L448.222 400.297L449.475 398.614L450.704 396.924L451.918 395.22L453.111 393.509L454.285 391.785L455.443 390.051L456.577 388.31L457.693 386.559L458.791 384.794L459.866 383.026L460.924 381.245L461.963 379.456L462.979 377.661L463.977 375.854L464.955 374.039L465.911 372.223L466.848 370.391L467.766 368.553L468.662 366.71L469.538 364.859L470.393 363L471.227 361.137L472.042 359.263L472.836 357.384L473.608 355.503L474.36 353.609L475.09 351.715L475.802 349.811L476.491 347.904L477.16 345.99L477.805 344.077L478.433 342.149L479.037 340.224L479.62 338.292L480.183 336.358L480.725 334.417L481.244 332.475L481.743 330.527L482.22 328.575L482.677 326.621L483.112 324.663L483.525 322.706L483.917 320.74L484.287 318.779L484.636 316.81L484.964 314.84L485.27 312.87L485.555 310.897L485.818 308.925L486.06 306.945L486.28 304.973L486.479 302.994L486.656 301.019L486.812 299.037L486.947 297.064L487.06 295.084L487.152 293.102L487.222 291.126L487.272 289.153L487.299 287.173L487.305 285.197L487.291 283.223L487.254 281.251L487.196 279.278L487.117 277.313L487.017 275.341L486.896 273.377L486.753 271.414L486.59 269.457L486.405 267.496L486.201 265.544L485.974 263.59L485.726 261.644L485.458 259.698L485.17 257.759L484.859 255.818L484.529 253.887L484.178 251.962L483.806 250.035L483.413 248.115L483.001 246.203L482.567 244.289L482.115 242.39L481.64 240.488L481.148 238.598L480.632 236.707L480.098 234.829L479.545 232.954L478.971 231.082L478.378 229.222L477.765 227.369L477.13 225.517L476.479 223.679L475.806 221.842L475.116 220.017L474.404 218.195L473.675 216.387L472.925 214.58L472.157 212.785L471.371 211L470.567 209.224L469.74 207.45L468.9 205.692L468.037 203.936L467.158 202.196L466.261 200.463L465.343 198.737L464.411 197.024L463.458 195.319L462.487 193.622L461.503 191.941L460.497 190.264L459.476 188.602L458.434 186.947L457.38 185.308L456.304 183.674L455.215 182.054L454.106 180.443L452.983 178.845L451.844 177.262L450.685 175.685L449.512 174.122L448.323 172.571L447.118 171.034L445.897 169.505L444.66 167.992L443.408 166.49L442.14 165.001L440.858 163.525L439.559 162.061L438.245 160.611L436.918 159.173L435.577 157.75L434.22 156.339L432.846 154.94L431.465 153.56L430.061 152.188L428.65 150.835L427.224 149.492L425.785 148.166L424.327 146.851L422.863 145.555L421.381 144.27L419.887 143L418.385 141.747L416.868 140.508L415.333 139.281L413.79 138.071L412.237 136.877L410.67 135.698L409.091 134.533L407.503 133.388L405.899 132.251L404.289 131.136L402.665 130.035L401.029 128.948L399.387 127.88L397.727 126.824L396.067 125.789L394.388 124.767L392.704 123.762L391.006 122.772L389.302 121.8L387.588 120.845L385.867 119.908L384.131 118.982L382.394 118.079L380.642 117.189L378.884 116.317L377.119 115.464L375.343 114.625L373.561 113.804L371.771 113.001L369.973 112.214L368.17 111.446L366.358 110.693L364.481 109.935L362.716 109.243L360.879 108.541L359.045 107.862L357.197 107.195L355.348 106.55L353.492 105.92L351.631 105.309L349.762 104.714L347.892 104.14L346.014 103.581L344.131 103.041L342.248 102.52L340.356 102.015L338.458 101.528L336.562 101.06L334.662 100.611L332.75 100.177L330.845 99.7641L328.93 99.3673L327.016 98.9897L325.094 98.6292L323.176 98.2877L321.252 97.9639L319.329 97.6589L317.397 97.3709L315.47 97.102L313.539 96.8508L311.606 96.6177L309.672 96.4029L307.739 96.2066L305.804 96.0282L303.868 95.8679L301.93 95.7257L299.992 95.6015L298.058 95.4958L296.123 95.4081L294.182 95.3384L292.251 95.2869L290.316 95.2534L288.383 95.238L286.446 95.2406L286.058 95.2448L286.669 144.169L287.767 144.164L289.18 144.172L290.594 144.192L292.008 144.227L293.424 144.274L294.841 144.335L296.257 144.41L297.674 144.497L299.092 144.598L300.509 144.712L301.926 144.84L303.342 144.98L304.76 145.135L306.176 145.303L307.591 145.484L309.005 145.679L310.419 145.887L311.831 146.108L313.243 146.344L314.652 146.592L316.06 146.854L317.467 147.13L318.872 147.418L320.275 147.72L321.675 148.036L323.073 148.365L324.468 148.707L325.861 149.062L327.252 149.431L328.639 149.814L330.024 150.209L331.405 150.618L332.782 151.04L334.157 151.475L335.528 151.924L336.895 152.387L338.258 152.861L339.616 153.349L340.972 153.851L342.322 154.365L343.668 154.893L345.009 155.434L346.345 155.987L347.676 156.554L349.002 157.133L350.323 157.725L351.639 158.331L352.949 158.949L354.253 159.58L355.552 160.224L356.844 160.879L358.131 161.549L359.411 162.23L360.684 162.924L361.952 163.63L363.213 164.349L364.466 165.08L365.712 165.824L366.952 166.58L368.185 167.348L369.409 168.128L370.627 168.92L371.837 169.725L373.039 170.541L374.233 171.369L375.419 172.21L376.598 173.061L377.766 173.925L378.927 174.801L380.079 175.686L381.223 176.585L382.358 177.495L383.484 178.415L384.601 179.347L385.708 180.291L386.807 181.245L387.894 182.211L388.973 183.187L390.042 184.174L391.101 185.172L392.15 186.181L393.189 187.201L394.218 188.23L395.236 189.271L396.244 190.322L397.241 191.383L398.227 192.453L399.202 193.535L400.167 194.625L401.121 195.726L402.063 196.837L402.994 197.957L403.913 199.087L404.821 200.227L405.717 201.376L406.601 202.533L407.474 203.7L408.333 204.877L409.182 206.062L410.018 207.256L410.841 208.458L411.652 209.67L412.451 210.89L413.238 212.118L414.011 213.354L414.771 214.6L415.519 215.852L416.253 217.112L416.974 218.381L417.683 219.657L418.378 220.941L419.059 222.232L419.727 223.532L420.382 224.837L421.022 226.149L421.648 227.47L422.261 228.796L422.861 230.13L423.446 231.47L424.017 232.817L424.573 234.17L425.115 235.528L425.643 236.893L426.156 238.264L426.656 239.642L427.141 241.024L427.61 242.413L428.066 243.805L428.506 245.204L428.932 246.609L429.343 248.018L429.738 249.432L430.119 250.851L430.484 252.274L430.835 253.701L431.17 255.133L431.489 256.57L431.794 258.01L432.082 259.453L432.356 260.902L432.614 262.354L432.857 263.808L433.083 265.267L433.295 266.728L433.49 268.192L433.671 269.66L433.834 271.131L433.982 272.603L434.115 274.079L434.231 275.556L434.332 277.036L434.416 278.516L434.485 280L434.537 281.486L434.574 282.972L434.594 284.461L434.598 285.951L434.586 287.441L434.557 288.932L434.513 290.424L434.452 291.918L434.375 293.411L434.282 294.904L434.173 296.399L434.048 297.893L433.905 299.387L433.748 300.881L433.572 302.373L433.382 303.867L433.175 305.358L432.951 306.849L432.711 308.339L432.455 309.828L432.183 311.315L431.894 312.801L431.589 314.286L431.267 315.768L430.929 317.249L430.576 318.728L430.205 320.204L429.819 321.677L429.416 323.149L428.997 324.617L428.562 326.083L428.11 327.544L427.643 329.004L427.159 330.46L426.658 331.913L426.142 333.361L425.609 334.806L425.062 336.247L424.498 337.683L423.917 339.116L423.322 340.544L422.71 341.967L422.082 343.387L421.438 344.8L420.779 346.209L420.104 347.613L419.413 349.011L418.707 350.404L417.985 351.791L417.246 353.172L416.493 354.548L415.725 355.917L414.941 357.28L414.142 358.637L413.328 359.987L412.498 361.33L411.653 362.668L410.794 363.996L409.919 365.32L409.029 366.634L408.125 367.942L407.204 369.242L406.271 370.534L405.322 371.82L404.359 373.096L403.381 374.364L402.389 375.625L401.382 376.877L400.361 378.12L399.326 379.354L398.277 380.58L397.214 381.796L396.137 383.004L395.046 384.202L393.941 385.391L392.823 386.57L391.691 387.74L390.546 388.9L389.388 390.051L388.216 391.19L387.032 392.32L385.832 393.439L384.622 394.548L383.398 395.647L382.162 396.733L380.913 397.811L379.651 398.876L378.377 399.931L377.091 400.975L375.793 402.007L374.482 403.028L373.16 404.037L371.825 405.034L370.479 406.02L369.122 406.994L367.753 407.955L366.372 408.905L364.982 409.843L363.579 410.767L362.166 411.68L360.74 412.58L359.305 413.467L357.86 414.341L356.405 415.203L354.937 416.05L353.462 416.886L351.974 417.708L350.479 418.515L348.972 419.31L347.457 420.092L345.931 420.86L344.397 421.614L342.853 422.354L341.301 423.08L339.739 423.793L338.168 424.49L336.589 425.174L335.002 425.843L333.406 426.499L331.802 427.139L330.19 427.765L328.571 428.376L326.943 428.973L325.309 429.555L323.666 430.122L322.017 430.674L320.36 431.21L318.697 431.732L317.026 432.238L315.35 432.73L313.667 433.206L311.978 433.665L310.283 434.111L308.581 434.54L306.874 434.953L305.161 435.351L303.444 435.734L301.719 436.1L299.992 436.451L298.257 436.785L296.519 437.103L294.777 437.407L293.03 437.693L291.278 437.963L289.524 438.217L287.764 438.455L286.001 438.676L284.234 438.883L282.465 439.071L280.692 439.243L278.916 439.4L277.138 439.539L275.356 439.662L273.572 439.768L271.786 439.858L269.998 439.931L268.207 439.987L266.415 440.027L264.622 440.05L262.826 440.056L261.03 440.046L259.234 440.018L257.435 439.974L255.636 439.913L253.837 439.835L252.037 439.74L250.239 439.629L248.439 439.501L246.64 439.355L244.841 439.192L243.042 439.013L241.245 438.817L239.449 438.605L237.653 438.374L235.86 438.127L234.068 437.864L232.277 437.583L230.488 437.285L228.701 436.972L226.917 436.64L225.136 436.291L223.356 435.926L221.58 435.544L219.807 435.145L218.037 434.729L216.27 434.296L214.506 433.847L212.747 433.381L210.992 432.899L209.241 432.399L207.493 431.883L205.751 431.35L204.014 430.801L202.28 430.235L200.553 429.652L198.831 429.053L197.113 428.438L195.402 427.805L193.696 427.158L191.996 426.492L190.302 425.811L188.615 425.115L186.935 424.401L185.26 423.671L183.594 422.926L181.934 422.165L180.281 421.386L178.634 420.593L176.997 419.784L175.367 418.958L173.745 418.117L172.13 417.261L170.524 416.388L168.926 415.501L167.338 414.597L165.757 413.678L164.186 412.745L162.625 411.795L161.073 410.831L159.53 409.851L157.996 408.856L156.473 407.848L154.96 406.824L153.456 405.784L151.963 404.731L150.479 403.662L149.008 402.579L147.548 401.482L146.098 400.37L144.659 399.245L143.231 398.104L141.815 396.951L140.411 395.782L139.017 394.601L137.636 393.405L136.269 392.197L134.912 390.975L133.567 389.738L132.236 388.489L130.918 387.227L129.613 385.951L128.319 384.663L127.039 383.361L125.774 382.048L124.521 380.721L123.282 379.382L122.057 378.03L120.844 376.667L119.648 375.291L118.463 373.902L117.295 372.503L116.14 371.091L115.001 369.668L113.876 368.233L112.764 366.788L111.669 365.33L110.589 363.862L109.524 362.382L108.474 360.892L107.44 359.392L106.421 357.88L105.419 356.358L104.432 354.826L103.461 353.284L102.506 351.732L101.568 350.17L100.645 348.599L99.7396 347.017L98.8505 345.427L97.9779 343.827L97.1222 342.218L96.2835 340.6L95.4617 338.973L94.6571 337.339L93.8697 335.694L93.0995 334.043L92.3469 332.383L91.6118 330.714L90.8941 329.038L90.1945 327.355L89.5124 325.663L88.8483 323.964L88.2021 322.259L87.5741 320.545L86.9643 318.826L86.3726 317.099L85.7993 315.366L85.2445 313.628L84.7081 311.882L84.1903 310.131L83.6911 308.374L83.2108 306.61L82.7492 304.842L82.3063 303.068L81.8825 301.289L81.4777 299.505L81.0919 297.716L80.7253 295.923L80.3778 294.125L80.0496 292.323L79.7408 290.516L79.4512 288.707L79.1811 286.893L78.9305 285.075L78.6994 283.254L78.4879 281.43L78.2958 279.603L78.1235 277.773L77.971 275.94L77.8381 274.106L77.725 272.268L77.6317 270.428L77.5583 268.588L77.5048 266.744L77.4711 264.9L77.4574 263.053L77.4637 261.206L77.4899 259.357L77.5362 257.509L77.6024 255.66L77.6887 253.809L77.7952 251.959L77.9215 250.108L78.0681 248.259L78.2347 246.408L78.4214 244.559L78.6284 242.71L78.8553 240.863L79.1024 239.016L79.3696 237.17L79.6568 235.325L79.9643 233.484L80.2917 231.643L80.6393 229.805L81.007 227.968L81.3948 226.134L81.8025 224.303L82.2304 222.474L82.6783 220.649L83.1461 218.826L83.6339 217.007L84.1417 215.192L84.6693 213.38L85.2169 211.572L85.7844 209.769L86.3716 207.969L86.9787 206.173L87.6055 204.384L88.252 202.598L88.9182 200.818L89.604 199.043L90.3094 197.272L91.0343 195.508L91.7787 193.75L92.5425 191.997L93.3257 190.252L94.1282 188.511L94.9501 186.778L95.791 185.051L96.6512 183.331L97.5303 181.618L98.4286 179.913L99.3458 178.214L100.282 176.525L101.237 174.842L102.21 173.167L103.202 171.501L104.213 169.842L105.242 168.193L106.29 166.552L107.356 164.92L108.44 163.297L109.542 161.683L110.663 160.079L111.801 158.484L112.958 156.9L114.132 155.324L115.323 153.759L116.533 152.205L117.759 150.66L119.004 149.126L120.265 147.603L121.543 146.092L122.838 144.591L124.151 143.101L125.48 141.623L126.826 140.156L128.189 138.702L129.568 137.26L130.963 135.828L132.375 134.41L133.803 133.004L135.246 131.611L136.705 130.23L138.181 128.861L139.672 127.507L141.179 126.164L142.7 124.837L144.237 123.521L145.789 122.221L147.355 120.933L148.937 119.66L150.533 118.4L152.143 117.155L153.768 115.923L155.408 114.707L157.061 113.505L158.728 112.319L160.41 111.146L162.103 109.989L163.81 108.847L165.532 107.721L167.266 106.61L169.013 105.516L170.774 104.435L172.545 103.372L174.331 102.324L176.128 101.292L177.938 100.276L179.758 99.2772L181.592 98.2944L183.436 97.3281L185.291 96.3787L187.159 95.4461L189.037 94.5304L190.926 93.6317L192.826 92.7502L194.737 91.8859L196.658 91.0391L198.589 90.2097L200.53 89.3978L202.481 88.6036L204.442 87.8273L206.411 87.0688L208.389 86.3283L210.378 85.6059L212.375 84.9016L214.381 84.2157L216.395 83.548L218.418 82.8988L220.448 82.2682L222.486 81.6562L224.532 81.0628L226.586 80.4882L228.647 79.9325L230.714 79.3957L232.789 78.878L234.871 78.3793L236.959 77.8998L239.053 77.4396L241.153 76.9985L243.259 76.5769L245.371 76.1747L247.489 75.7921L249.611 75.429L251.738 75.0854L253.871 74.7616L256.008 74.4575L258.149 74.1732L260.294 73.9086L261.094 73.8175ZM262 146.382L261.383 96.9202L259.624 97.1537L257.734 97.4229L255.842 97.7099L253.963 98.0134L252.081 98.3355L250.208 98.674L248.339 99.03L246.477 99.4026L244.619 99.7929L242.765 100.2L240.916 100.625L239.076 101.066L237.237 101.525L235.47 101.983L233.588 102.491L231.77 102.999L229.961 103.524L228.161 104.064L226.365 104.622L224.575 105.197L222.794 105.787L221.022 106.392L219.257 107.016L217.5 107.653L215.75 108.308L214.013 108.978L212.277 109.665L210.553 110.367L208.838 111.084L207.135 111.816L205.436 112.564L203.746 113.329L202.072 114.106L200.399 114.9L198.745 115.708L197.093 116.534L195.457 117.37L193.824 118.226L192.207 119.091L190.601 119.973L189.003 120.87L187.418 121.78L185.84 122.707L184.278 123.644L182.723 124.598L181.183 125.564L179.654 126.543L178.136 127.538L176.627 128.547L175.135 129.564L173.652 130.6L172.18 131.647L170.722 132.707L169.278 133.778L167.843 134.865L166.424 135.962L165.018 137.071L163.622 138.196L162.243 139.329L160.874 140.477L159.519 141.637L158.178 142.807L156.853 143.988L155.536 145.184L154.239 146.387L152.953 147.603L151.68 148.832L150.423 150.07L149.179 151.32L147.95 152.58L146.737 153.85L145.536 155.131L144.349 156.424L143.182 157.723L142.026 159.035L140.885 160.357L139.76 161.687L138.651 163.026L137.554 164.378L136.475 165.736L135.411 167.104L134.362 168.481L133.329 169.868L132.313 171.26L131.312 172.663L130.326 174.075L129.355 175.494L128.403 176.92L127.466 178.355L126.545 179.8L125.639 181.249L124.751 182.707L123.878 184.173L123.024 185.642L122.185 187.122L121.36 188.609L120.556 190.099L119.766 191.599L118.994 193.105L118.238 194.614L117.5 196.132L116.778 197.654L116.073 199.182L115.385 200.716L114.715 202.254L114.061 203.798L113.424 205.348L112.804 206.902L112.203 208.46L111.617 210.024L111.051 211.589L110.5 213.161L109.968 214.737L109.452 216.316L108.955 217.898L108.474 219.484L108.012 221.073L107.566 222.666L107.138 224.261L106.728 225.86L106.335 227.461L105.96 229.064L105.602 230.67L105.262 232.278L104.94 233.887L104.635 235.5L104.348 237.112L104.079 238.728L103.827 240.342L103.593 241.96L103.377 243.578L103.178 245.197L102.996 246.816L102.833 248.436L102.687 250.057L102.559 251.676L102.448 253.298L102.355 254.918L102.279 256.538L102.221 258.157L102.181 259.775L102.158 261.393L102.152 263.011L102.164 264.626L102.194 266.24L102.241 267.853L102.305 269.463L102.386 271.073L102.485 272.681L102.601 274.285L102.735 275.889L102.886 277.489L103.053 279.086L103.238 280.681L103.44 282.273L103.66 283.863L103.896 285.448L104.149 287.031L104.419 288.608L104.706 290.184L105.009 291.755L105.33 293.321L105.667 294.885L106.02 296.443L106.391 297.998L106.777 299.546L107.18 301.091L107.6 302.63L108.036 304.165L108.487 305.693L108.956 307.218L109.44 308.736L109.941 310.249L110.457 311.757L110.989 313.257L111.538 314.751L112.101 316.239L112.68 317.722L113.276 319.197L113.886 320.666L114.512 322.127L115.153 323.583L115.809 325.03L116.481 326.47L117.167 327.904L117.869 329.329L118.586 330.747L119.316 332.157L120.063 333.559L120.823 334.954L121.597 336.34L122.387 337.718L123.19 339.087L124.008 340.448L124.839 341.8L125.685 343.142L126.545 344.477L127.418 345.802L128.305 347.118L129.206 348.426L130.118 349.722L131.046 351.011L131.986 352.288L132.939 353.556L133.906 354.815L134.885 356.063L135.877 357.3L136.882 358.529L137.898 359.747L138.927 360.954L139.969 362.15L141.022 363.337L142.088 364.511L143.166 365.677L144.255 366.829L145.355 367.972L146.467 369.102L147.591 370.222L148.725 371.331L149.872 372.428L151.028 373.513L152.196 374.587L153.375 375.649L154.562 376.699L155.763 377.738L156.971 378.764L158.19 379.777L159.421 380.779L160.66 381.769L161.909 382.747L163.168 383.711L164.436 384.663L165.713 385.603L167 386.531L168.296 387.444L169.599 388.346L170.911 389.234L172.233 390.109L173.563 390.972L174.902 391.822L176.248 392.658L177.602 393.481L178.964 394.291L180.333 395.087L181.71 395.871L183.095 396.64L184.486 397.395L185.886 398.138L187.29 398.866L188.703 399.581L190.122 400.283L191.546 400.969L192.978 401.643L194.417 402.303L195.86 402.949L197.309 403.58L198.765 404.198L200.224 404.801L201.69 405.39L203.162 405.966L204.638 406.527L206.118 407.073L207.604 407.606L209.094 408.124L210.588 408.628L212.087 409.117L213.59 409.594L215.097 410.053L216.607 410.5L218.121 410.931L219.639 411.348L221.158 411.752L222.682 412.14L224.209 412.515L225.738 412.873L227.27 413.217L228.805 413.548L230.342 413.864L231.881 414.165L233.421 414.45L234.965 414.721L236.508 414.979L238.054 415.222L239.601 415.448L241.149 415.662L242.699 415.86L244.248 416.045L245.799 416.214L247.35 416.369L248.902 416.508L250.454 416.634L252.006 416.744L253.559 416.841L255.109 416.922L256.66 416.989L258.212 417.042L259.762 417.08L261.31 417.103L262.858 417.112L264.405 417.107L265.95 417.087L267.494 417.053L269.036 417.005L270.577 416.942L272.115 416.864L273.651 416.773L275.184 416.667L276.716 416.547L278.244 416.412L279.77 416.264L281.294 416.101L282.814 415.924L284.331 415.734L285.844 415.53L287.355 415.311L288.861 415.078L290.362 414.833L291.862 414.572L293.356 414.298L294.846 414.011L296.333 413.709L297.813 413.394L299.29 413.066L300.761 412.723L302.228 412.369L303.69 412L305.147 411.617L306.598 411.222L308.043 410.813L309.482 410.392L310.916 409.957L312.346 409.509L313.767 409.048L315.183 408.575L316.593 408.088L317.995 407.589L319.391 407.077L320.78 406.552L322.164 406.015L323.54 405.466L324.907 404.904L326.269 404.33L327.622 403.744L328.969 403.145L330.309 402.534L331.637 401.914L332.963 401.277L334.277 400.632L335.585 399.973L336.881 399.305L338.172 398.624L339.455 397.932L340.727 397.228L341.992 396.512L343.248 395.786L344.492 395.049L345.732 394.3L346.958 393.542L348.177 392.772L349.389 391.99L350.588 391.199L351.776 390.399L352.959 389.585L354.129 388.764L355.29 387.931L356.442 387.087L357.579 386.236L358.713 385.372L359.834 384.499L360.94 383.619L362.042 382.724L363.129 381.824L364.206 380.915L365.276 379.992L366.329 379.066L367.375 378.127L368.41 377.18L369.431 376.225L370.443 375.26L371.444 374.287L372.433 373.306L373.408 372.316L374.374 371.318L375.33 370.312L376.27 369.299L377.203 368.275L378.12 367.246L379.026 366.209L379.922 365.162L380.803 364.113L381.673 363.051L382.531 361.985L383.378 360.91L384.21 359.83L385.029 358.744L385.839 357.647L386.634 356.548L387.417 355.441L388.189 354.326L388.943 353.208L389.69 352.082L390.422 350.949L391.141 349.812L391.846 348.669L392.541 347.519L393.219 346.368L393.887 345.206L394.54 344.042L395.179 342.874L395.808 341.696L396.42 340.521L397.022 339.333L397.607 338.149L398.184 336.952L398.742 335.758L399.29 334.554L399.824 333.35L400.342 332.142L400.849 330.929L401.342 329.711L401.819 328.494L402.286 327.269L402.736 326.043L403.174 324.814L403.599 323.581L404.01 322.345L404.407 321.107L404.79 319.868L405.159 318.624L405.513 317.38L405.856 316.132L406.183 314.883L406.497 313.633L406.797 312.378L407.083 311.123L407.357 309.868L407.614 308.612L407.859 307.354L408.09 306.09L408.307 304.832L408.51 303.57L408.699 302.307L408.874 301.046L409.035 299.782L409.184 298.515L409.317 297.257L409.438 295.988L409.545 294.725L409.636 293.464L409.716 292.2L409.781 290.938L409.832 289.677L409.869 288.412L409.892 287.155L409.903 285.893L409.899 284.635L409.883 283.377L409.852 282.123L409.808 280.868L409.75 279.615L409.678 278.367L409.593 277.115L409.495 275.867L409.384 274.625L409.259 273.38L409.12 272.142L408.968 270.902L408.804 269.668L408.626 268.435L408.435 267.204L408.23 265.978L408.013 264.755L407.782 263.535L407.539 262.319L407.281 261.102L407.012 259.894L406.73 258.689L406.435 257.486L406.127 256.285L405.807 255.095L405.473 253.901L405.128 252.717L404.77 251.534L404.399 250.359L404.017 249.185L403.62 248.017L403.213 246.856L402.794 245.699L402.361 244.543L401.919 243.397L401.462 242.254L400.994 241.119L400.515 239.986L400.023 238.858L399.52 237.741L399.004 236.625L398.479 235.517L397.941 234.417L397.392 233.318L396.83 232.227L396.26 231.145L395.675 230.066L395.082 228.997L394.477 227.935L393.86 226.874L393.235 225.825L392.596 224.781L391.948 223.745L391.288 222.714L390.621 221.693L389.939 220.676L389.251 219.67L388.55 218.67L387.84 217.678L387.118 216.691L386.388 215.715L385.649 214.747L384.897 213.783L384.139 212.831L383.368 211.885L382.592 210.949L381.802 210.019L381.005 209.098L380.198 208.186L379.383 207.281L378.559 206.387L377.724 205.499L376.883 204.622L376.032 203.752L375.175 202.894L374.304 202.04L373.43 201.199L372.543 200.364L371.651 199.54L370.753 198.726L369.845 197.92L368.927 197.123L368.003 196.337L367.072 195.56L366.13 194.789L365.188 194.034L364.233 193.283L363.272 192.544L362.305 191.816L361.329 191.094L360.348 190.385L359.363 189.687L358.366 188.996L357.363 188.314L356.359 187.647L355.341 186.985L354.326 186.339L353.3 185.699L352.268 185.069L351.229 184.449L350.189 183.843L349.138 183.244L348.086 182.657L347.024 182.079L345.964 181.514L344.894 180.959L343.819 180.412L342.74 179.877L341.658 179.355L340.569 178.84L339.475 178.337L338.379 177.846L337.281 177.366L336.171 176.893L335.066 176.435L333.953 175.987L332.835 175.548L331.715 175.122L330.594 174.707L329.468 174.303L328.335 173.907L327.204 173.526L326.067 173.153L324.927 172.792L323.789 172.443L322.645 172.105L321.501 171.777L320.348 171.46L319.198 171.155L318.046 170.861L316.892 170.578L315.736 170.305L314.574 170.044L313.415 169.795L312.257 169.556L311.093 169.329L309.926 169.111L308.766 168.908L307.597 168.713L306.432 168.53L305.261 168.357L304.097 168.197L302.923 168.046L301.758 167.909L300.588 167.781L299.419 167.665L298.251 167.56L297.08 167.465L295.914 167.382L294.742 167.31L293.575 167.249L292.411 167.199L291.239 167.159L290.076 167.131L288.912 167.114L287.749 167.108L286.954 167.11L287.557 215.436L287.916 215.437L288.585 215.446L289.254 215.461L289.925 215.482L290.596 215.511L291.269 215.546L291.941 215.587L292.615 215.635L293.288 215.69L293.963 215.752L294.638 215.82L295.314 215.894L295.99 215.976L296.665 216.064L297.341 216.159L298.018 216.261L298.694 216.37L299.369 216.485L300.045 216.608L300.72 216.736L301.396 216.873L302.071 217.015L302.746 217.165L303.418 217.321L304.092 217.484L304.764 217.654L305.435 217.83L306.106 218.013L306.776 218.204L307.444 218.401L308.111 218.606L308.778 218.817L309.442 219.035L310.106 219.259L310.768 219.491L311.428 219.729L312.087 219.973L312.744 220.225L313.399 220.484L314.053 220.749L314.705 221.021L315.354 221.3L316.002 221.586L316.648 221.879L317.29 222.177L317.932 222.483L318.569 222.797L319.205 223.116L319.838 223.442L320.469 223.775L321.097 224.114L321.722 224.46L322.343 224.812L322.963 225.171L323.579 225.537L324.192 225.91L324.801 226.287L325.407 226.673L326.011 227.066L326.61 227.464L327.206 227.868L327.799 228.279L328.387 228.696L328.972 229.12L329.553 229.55L330.131 229.987L330.703 230.429L331.272 230.877L331.838 231.333L332.398 231.794L332.955 232.261L333.507 232.735L334.054 233.215L334.597 233.7L335.135 234.191L335.67 234.689L336.198 235.192L336.722 235.702L337.242 236.216L337.756 236.737L338.265 237.265L338.769 237.797L339.269 238.335L339.762 238.879L340.25 239.428L340.733 239.982L341.21 240.543L341.682 241.108L342.148 241.679L342.609 242.257L343.064 242.838L343.513 243.425L343.955 244.017L344.393 244.614L344.824 245.217L345.248 245.825L345.667 246.437L346.081 247.055L346.487 247.677L346.887 248.305L347.28 248.937L347.667 249.573L348.048 250.214L348.421 250.861L348.789 251.511L349.15 252.166L349.503 252.826L349.851 253.489L350.19 254.157L350.523 254.83L350.849 255.506L351.169 256.187L351.481 256.872L351.786 257.56L352.084 258.253L352.373 258.949L352.656 259.649L352.932 260.353L353.201 261.061L353.461 261.773L353.714 262.487L353.959 263.205L354.196 263.927L354.427 264.652L354.649 265.38L354.863 266.112L355.071 266.845L355.27 267.583L355.46 268.324L355.643 269.068L355.818 269.812L355.986 270.563L356.144 271.314L356.294 272.067L356.437 272.824L356.572 273.583L356.698 274.344L356.815 275.108L356.925 275.873L357.026 276.641L357.119 277.412L357.204 278.184L357.279 278.957L357.346 279.732L357.406 280.511L357.455 281.289L357.497 282.07L357.53 282.852L357.555 283.635L357.57 284.42L357.578 285.206L357.575 285.992L357.566 286.78L357.547 287.57L357.519 288.36L357.482 289.151L357.437 289.942L357.383 290.734L357.319 291.526L357.247 292.32L357.166 293.114L357.077 293.907L356.977 294.701L356.869 295.496L356.754 296.291L356.628 297.084L356.493 297.878L356.349 298.671L356.197 299.465L356.035 300.259L355.866 301.051L355.685 301.843L355.496 302.634L355.3 303.425L355.092 304.215L354.877 305.005L354.653 305.792L354.419 306.579L354.176 307.364L353.924 308.148L353.664 308.932L353.395 309.713L353.116 310.493L352.829 311.272L352.531 312.047L352.225 312.823L351.911 313.595L351.588 314.367L351.255 315.135L350.914 315.901L350.564 316.666L350.204 317.428L349.836 318.188L349.459 318.944L349.072 319.699L348.679 320.451L348.275 321.199L347.862 321.946L347.44 322.688L347.011 323.428L346.573 324.165L346.125 324.899L345.669 325.629L345.205 326.355L344.731 327.08L344.25 327.799L343.759 328.515L343.26 329.228L342.753 329.935L342.237 330.641L341.713 331.341L341.179 332.037L340.639 332.73L340.089 333.417L339.531 334.1L338.966 334.78L338.392 335.455L337.81 336.124L337.219 336.79L336.621 337.45L336.013 338.106L335.399 338.756L334.777 339.402L334.146 340.042L333.509 340.677L332.862 341.308L332.208 341.933L331.547 342.551L330.879 343.165L330.201 343.773L329.516 344.375L328.825 344.972L328.126 345.563L327.42 346.148L326.706 346.726L325.985 347.299L325.256 347.866L324.52 348.426L323.778 348.979L323.029 349.527L322.273 350.068L321.509 350.604L320.74 351.131L319.962 351.652L319.179 352.168L318.389 352.675L317.592 353.176L316.789 353.669L315.979 354.157L315.163 354.637L314.341 355.109L313.512 355.574L312.678 356.032L311.838 356.483L310.99 356.925L310.139 357.362L309.28 357.789L308.417 358.211L307.546 358.623L306.672 359.028L305.791 359.425L304.904 359.814L304.013 360.196L303.116 360.568L302.215 360.934L301.308 361.292L300.396 361.64L299.478 361.98L298.557 362.313L297.63 362.637L296.699 362.953L295.764 363.26L294.823 363.558L293.879 363.849L292.93 364.129L291.977 364.402L291.019 364.667L290.059 364.922L289.094 365.169L288.125 365.405L287.153 365.635L286.176 365.853L285.196 366.065L284.213 366.266L283.226 366.459L282.236 366.642L281.243 366.816L280.247 366.981L279.248 367.137L278.246 367.283L277.241 367.42L276.235 367.548L275.224 367.667L274.212 367.776L273.198 367.875L272.181 367.965L271.162 368.045L270.141 368.116L269.117 368.177L268.093 368.229L267.066 368.271L266.038 368.303L265.007 368.325L263.976 368.338L262.944 368.342L261.911 368.335L260.876 368.319L259.84 368.292L258.804 368.256L257.766 368.21L256.728 368.154L255.689 368.088L254.65 368.013L253.611 367.927L252.571 367.831L251.532 367.726L250.492 367.61L249.453 367.484L248.413 367.348L247.374 367.204L246.335 367.048L245.298 366.883L244.26 366.707L243.224 366.522L242.188 366.327L241.153 366.121L240.12 365.906L239.088 365.679L238.057 365.444L237.026 365.199L235.998 364.943L234.973 364.677L233.948 364.402L232.926 364.116L231.905 363.821L230.886 363.515L229.87 363.2L228.856 362.875L227.845 362.54L226.836 362.194L225.83 361.838L224.827 361.473L223.826 361.098L222.829 360.713L221.835 360.319L220.844 359.914L219.857 359.5L218.872 359.076L217.892 358.642L216.914 358.198L215.941 357.745L214.973 357.281L214.008 356.809L213.047 356.326L212.091 355.835L211.138 355.333L210.191 354.822L209.246 354.301L208.309 353.772L207.375 353.233L206.446 352.684L205.522 352.125L204.603 351.558L203.69 350.981L202.782 350.395L201.88 349.8L200.983 349.195L200.091 348.582L199.206 347.959L198.326 347.328L197.453 346.688L196.585 346.038L195.724 345.38L194.869 344.713L194.02 344.037L193.178 343.352L192.342 342.659L191.514 341.957L190.692 341.247L189.877 340.527L189.068 339.8L188.268 339.064L187.473 338.321L186.687 337.568L185.909 336.808L185.136 336.038L184.373 335.263L183.617 334.477L182.869 333.684L182.128 332.884L181.396 332.075L180.671 331.26L179.955 330.436L179.247 329.604L178.548 328.765L177.857 327.919L177.174 327.066L176.5 326.204L175.836 325.336L175.179 324.461L174.531 323.578L173.893 322.688L173.263 321.792L172.644 320.888L172.033 319.978L171.431 319.062L170.84 318.139L170.256 317.208L169.684 316.273L169.12 315.329L168.567 314.381L168.022 313.426L167.489 312.465L166.965 311.497L166.45 310.524L165.946 309.546L165.453 308.561L164.969 307.571L164.496 306.575L164.034 305.574L163.581 304.567L163.139 303.556L162.708 302.538L162.288 301.517L161.878 300.489L161.481 299.457L161.093 298.42L160.715 297.38L160.349 296.334L159.995 295.283L159.651 294.228L159.318 293.17L158.996 292.106L158.686 291.039L158.389 289.967L158.1 288.892L157.825 287.813L157.561 286.732L157.308 285.645L157.067 284.556L156.838 283.462L156.619 282.367L156.413 281.267L156.219 280.165L156.037 279.06L155.866 277.952L155.707 276.842L155.562 275.729L155.427 274.614L155.304 273.495L155.194 272.375L155.096 271.252L155.009 270.129L154.935 269.002L154.873 267.875L154.823 266.746L154.786 265.614L154.761 264.481L154.749 263.348L154.748 262.213L154.76 261.076L154.786 259.94L154.822 258.802L154.872 257.663L154.934 256.524L155.008 255.384L155.094 254.244L155.194 253.103L155.306 251.963L155.43 250.822L155.567 249.682L155.717 248.541L155.878 247.402L156.054 246.263L156.241 245.124L156.442 243.986L156.653 242.848L156.878 241.711L157.117 240.576L157.367 239.442L157.63 238.309L157.905 237.178L158.193 236.049L158.494 234.92L158.808 233.793L159.134 232.669L159.472 231.547L159.822 230.426L160.186 229.308L160.562 228.192L160.95 227.078L161.351 225.969L161.765 224.86L162.191 223.756L162.629 222.653L163.08 221.555L163.544 220.46L164.019 219.366L164.507 218.278L165.007 217.193L165.52 216.111L166.044 215.034L166.582 213.96L167.13 212.891L167.692 211.825L168.265 210.764L168.851 209.708L169.448 208.655L170.058 207.608L170.679 206.565L171.312 205.527L171.958 204.495L172.615 203.468L173.284 202.445L173.965 201.428L174.658 200.416L175.361 199.41L176.077 198.41L176.804 197.416L177.543 196.428L178.293 195.446L179.054 194.469L179.827 193.499L180.611 192.536L181.406 191.579L182.213 190.629L183.031 189.684L183.858 188.749L184.697 187.818L185.547 186.895L186.408 185.98L187.28 185.071L188.163 184.172L189.056 183.278L189.96 182.392L190.874 181.514L191.798 180.644L192.733 179.781L193.677 178.927L194.633 178.081L195.597 177.243L196.572 176.413L197.557 175.592L198.552 174.78L199.556 173.975L200.571 173.18L201.593 172.394L202.627 171.616L203.668 170.848L204.72 170.089L205.781 169.339L206.851 168.598L207.93 167.867L209.017 167.145L210.114 166.432L211.22 165.729L212.333 165.037L213.455 164.355L214.587 163.681L215.726 163.018L216.874 162.365L218.028 161.723L219.193 161.091L220.363 160.468L221.542 159.857L222.729 159.256L223.923 158.666L225.125 158.086L226.334 157.518L227.55 156.96L228.774 156.413L230.004 155.877L231.241 155.352L232.484 154.839L233.736 154.336L234.993 153.844L236.256 153.366L237.526 152.897L238.802 152.44L240.084 151.995L241.372 151.562L242.666 151.14L243.965 150.73L245.271 150.332L246.581 149.946L247.897 149.572L249.217 149.21L250.543 148.86L251.874 148.522L253.21 148.196L254.55 147.882L255.895 147.581L257.245 147.293L258.598 147.017L259.956 146.753L261.317 146.502L262 146.382ZM278.733 239.314L263.203 242.839L262.291 169.757L261.559 169.914L260.457 170.161L259.356 170.418L258.264 170.684L257.172 170.961L256.088 171.247L255.003 171.546L253.929 171.85L252.853 172.168L251.789 172.492L250.724 172.828L249.665 173.174L248.611 173.528L247.561 173.892L246.521 174.264L245.482 174.648L244.449 175.04L243.422 175.441L242.397 175.853L241.385 176.27L240.373 176.7L239.371 177.137L238.37 177.585L237.378 178.039L236.389 178.504L235.411 178.976L234.437 179.457L233.469 179.948L232.509 180.445L231.553 180.952L230.605 181.468L229.667 181.99L228.728 182.524L227.801 183.063L226.882 183.611L225.968 184.166L225.06 184.731L224.162 185.303L223.27 185.883L222.385 186.469L221.509 187.063L220.637 187.666L219.775 188.276L218.92 188.893L218.073 189.518L217.235 190.148L216.405 190.787L215.58 191.433L214.764 192.087L213.958 192.745L213.159 193.412L212.368 194.084L211.585 194.764L210.811 195.451L210.045 196.143L209.288 196.841L208.538 197.548L207.798 198.258L207.066 198.976L206.344 199.698L205.627 200.43L204.923 201.164L204.226 201.905L203.538 202.652L202.86 203.402L202.189 204.161L201.53 204.922L200.876 205.692L200.235 206.464L199.601 207.244L198.977 208.028L198.362 208.815L197.756 209.608L197.16 210.405L196.573 211.209L195.995 212.015L195.428 212.828L194.87 213.642L194.322 214.461L193.781 215.287L193.253 216.114L192.732 216.948L192.222 217.782L191.721 218.623L191.229 219.466L190.75 220.312L190.278 221.162L189.817 222.016L189.365 222.875L188.924 223.732L188.491 224.598L188.07 225.463L187.659 226.332L187.256 227.204L186.864 228.079L186.483 228.955L186.111 229.836L185.75 230.717L185.397 231.602L185.056 232.486L184.724 233.376L184.402 234.267L184.091 235.159L183.789 236.052L183.498 236.95L183.216 237.847L182.947 238.744L182.686 239.645L182.434 240.548L182.194 241.45L181.963 242.354L181.742 243.259L181.532 244.165L181.333 245.073L181.143 245.979L180.962 246.886L180.793 247.796L180.634 248.704L180.484 249.613L180.344 250.524L180.215 251.432L180.096 252.343L179.987 253.251L179.887 254.161L179.798 255.072L179.719 255.98L179.65 256.888L179.591 257.797L179.541 258.703L179.502 259.61L179.472 260.515L179.453 261.421L179.443 262.324L179.444 263.227L179.453 264.128L179.474 265.029L179.503 265.928L179.542 266.825L179.591 267.721L179.65 268.614L179.719 269.507L179.797 270.397L179.884 271.286L179.981 272.174L180.088 273.056L180.204 273.94L180.329 274.819L180.465 275.698L180.609 276.572L180.763 277.445L180.926 278.317L181.098 279.183L181.28 280.049L181.47 280.909L181.671 281.769L181.88 282.624L182.098 283.478L182.325 284.325L182.562 285.174L182.806 286.015L183.059 286.856L183.322 287.69L183.592 288.524L183.873 289.352L184.161 290.175L184.459 290.998L184.765 291.814L185.079 292.626L185.401 293.436L185.732 294.241L186.072 295.041L186.419 295.837L186.774 296.628L187.139 297.417L187.511 298.2L187.891 298.979L188.279 299.752L188.673 300.52L189.079 301.286L189.489 302.044L189.908 302.798L190.335 303.548L190.77 304.292L191.212 305.032L191.66 305.766L192.117 306.493L192.582 307.218L193.052 307.936L193.531 308.648L194.017 309.356L194.509 310.057L195.009 310.755L195.514 311.442L196.027 312.128L196.547 312.806L197.073 313.478L197.608 314.147L198.147 314.807L198.692 315.461L199.245 316.11L199.804 316.754L200.367 317.389L200.94 318.02L201.516 318.644L202.099 319.261L202.69 319.873L203.283 320.476L203.884 321.076L204.49 321.668L205.1 322.253L205.719 322.831L206.341 323.404L206.969 323.969L207.603 324.527L208.241 325.079L208.885 325.624L209.533 326.162L210.187 326.693L210.844 327.218L211.507 327.735L212.175 328.246L212.849 328.749L213.524 329.244L214.206 329.733L214.892 330.216L215.582 330.691L216.276 331.158L216.973 331.619L217.675 332.072L218.381 332.517L219.09 332.955L219.803 333.386L220.522 333.811L221.242 334.226L221.965 334.636L222.694 335.037L223.423 335.43L224.156 335.817L224.896 336.197L225.636 336.568L226.378 336.932L227.123 337.288L227.874 337.637L228.623 337.978L229.379 338.312L230.135 338.638L230.892 338.956L231.654 339.267L232.418 339.57L233.182 339.866L233.95 340.154L234.72 340.433L235.493 340.705L236.264 340.97L237.041 341.228L237.816 341.476L238.593 341.718L239.373 341.952L240.155 342.179L240.936 342.396L241.719 342.607L242.505 342.81L243.29 343.005L244.076 343.192L244.863 343.373L245.65 343.544L246.438 343.708L247.227 343.866L248.017 344.014L248.806 344.156L249.596 344.289L250.387 344.416L251.178 344.534L251.969 344.645L252.757 344.748L253.548 344.842L254.337 344.931L255.128 345.011L255.918 345.083L256.707 345.148L257.496 345.206L258.282 345.256L259.071 345.298L259.856 345.332L260.64 345.361L261.427 345.38L262.209 345.393L262.99 345.398L263.772 345.395L264.55 345.386L265.331 345.368L266.108 345.344L266.881 345.313L267.655 345.274L268.429 345.228L269.197 345.174L269.967 345.114L270.732 345.046L271.497 344.972L272.26 344.888L273.019 344.8L273.779 344.704L274.533 344.6L275.285 344.49L276.038 344.374L276.786 344.25L277.531 344.119L278.275 343.981L279.016 343.836L279.751 343.685L280.484 343.528L281.217 343.363L281.946 343.191L282.671 343.014L283.393 342.83L284.111 342.639L284.83 342.441L285.541 342.237L286.247 342.027L286.956 341.81L287.656 341.587L288.354 341.359L289.048 341.124L289.738 340.882L290.427 340.634L291.11 340.38L291.787 340.12L292.462 339.855L293.133 339.583L293.802 339.305L294.462 339.022L295.122 338.733L295.776 338.438L296.424 338.138L297.07 337.832L297.709 337.521L298.346 337.203L298.978 336.879L299.605 336.552L300.226 336.219L300.844 335.88L301.458 335.535L302.064 335.186L302.666 334.831L303.264 334.472L303.857 334.108L304.446 333.738L305.028 333.364L305.606 332.984L306.179 332.6L306.745 332.212L307.306 331.818L307.863 331.42L308.414 331.017L308.96 330.61L309.501 330.198L310.035 329.783L310.564 329.363L311.087 328.938L311.605 328.509L312.118 328.077L312.625 327.639L313.126 327.199L313.619 326.755L314.109 326.305L314.593 325.852L315.071 325.396L315.543 324.937L316.008 324.472L316.467 324.006L316.923 323.534L317.369 323.062L317.812 322.583L318.247 322.102L318.676 321.619L319.101 321.13L319.516 320.641L319.929 320.147L320.334 319.652L320.732 319.153L321.125 318.65L321.51 318.147L321.89 317.637L322.265 317.126L322.631 316.616L322.992 316.099L323.348 315.581L323.694 315.062L324.037 314.54L324.372 314.015L324.701 313.487L325.024 312.959L325.34 312.428L325.65 311.895L325.953 311.359L326.249 310.824L326.539 310.285L326.823 309.745L327.101 309.203L327.371 308.658L327.636 308.114L327.893 307.567L328.144 307.021L328.389 306.47L328.626 305.921L328.859 305.367L329.083 304.818L329.302 304.26L329.512 303.711L329.719 303.153L329.918 302.595L330.109 302.039L330.295 301.481L330.474 300.924L330.648 300.361L330.813 299.805L330.974 299.241L331.127 298.685L331.273 298.122L331.414 297.559L331.547 297L331.674 296.442L331.795 295.876L331.909 295.316L332.017 294.752L332.118 294.194L332.214 293.633L332.303 293.071L332.385 292.509L332.46 291.949L332.531 291.391L332.594 290.834L332.65 290.272L332.702 289.715L332.746 289.157L332.784 288.6L332.816 288.045L332.842 287.491L332.861 286.939L332.874 286.383L332.882 285.829L332.884 285.28L332.878 284.731L332.867 284.183L332.85 283.636L332.827 283.087L332.797 282.548L332.762 281.998L332.722 281.462L332.675 280.923L332.622 280.38L332.563 279.844L332.5 279.313L332.428 278.774L332.353 278.246L332.27 277.715L332.184 277.192L332.09 276.663L331.992 276.138L331.888 275.619L331.779 275.1L331.663 274.58L331.542 274.067L331.416 273.554L331.284 273.044L331.148 272.539L331.004 272.029L330.858 271.53L330.705 271.026L330.547 270.531L330.384 270.035L330.216 269.544L330.042 269.053L329.863 268.564L329.681 268.083L329.492 267.603L329.298 267.122L329.1 266.648L328.897 266.172L328.691 265.708L328.476 265.238L328.261 264.776L328.038 264.317L327.812 263.859L327.582 263.406L327.346 262.956L327.106 262.508L326.862 262.065L326.613 261.624L326.361 261.188L326.104 260.754L325.841 260.324L325.577 259.898L325.307 259.475L325.032 259.054L324.755 258.641L324.473 258.228L324.188 257.82L323.898 257.414L323.606 257.015L323.308 256.617L323.007 256.224L322.703 255.835L322.394 255.45L322.084 255.068L321.768 254.689L321.45 254.317L321.128 253.947L320.803 253.581L320.474 253.219L320.144 252.861L319.809 252.508L319.47 252.159L319.13 251.812L318.786 251.471L318.438 251.135L318.088 250.801L317.736 250.473L317.381 250.149L317.024 249.829L316.66 249.512L316.299 249.201L315.932 248.892L315.564 248.59L315.193 248.291L314.819 247.997L314.443 247.707L314.066 247.421L313.686 247.14L313.304 246.862L312.92 246.591L312.533 246.322L312.144 246.058L311.754 245.8L311.362 245.544L310.969 245.294L310.572 245.048L310.174 244.806L309.776 244.57L309.373 244.337L308.972 244.109L308.569 243.886L308.163 243.667L307.755 243.452L307.348 243.242L306.94 243.036L306.529 242.835L306.119 242.639L305.704 242.446L305.292 242.259L304.877 242.077L304.462 241.898L304.046 241.724L303.627 241.554L303.212 241.39L302.791 241.23L302.371 241.074L301.952 240.923L301.532 240.776L301.111 240.634L300.69 240.495L300.268 240.361L299.847 240.233L299.424 240.108L299.001 239.987L298.581 239.872L298.155 239.761L297.735 239.654L297.312 239.552L296.889 239.453L296.466 239.36L296.044 239.27L295.621 239.186L295.199 239.105L294.779 239.028L294.358 238.957L293.935 238.889L293.517 238.826L293.094 238.767L292.678 238.712L292.258 238.661L291.84 238.615L291.425 238.573L291.007 238.536L290.592 238.501L290.177 238.472L289.764 238.446L289.35 238.424L288.938 238.408L288.53 238.395L288.119 238.385L287.71 238.38L287.302 238.378L286.897 238.382L286.491 238.388L286.088 238.399L285.685 238.414L285.286 238.432L284.885 238.455L284.489 238.481L284.093 238.51L283.698 238.545L283.306 238.582L282.912 238.623L282.524 238.668L282.136 238.716L281.751 238.769L281.366 238.825L280.984 238.884L280.603 238.947L280.227 239.013L279.848 239.084L279.475 239.156L279.102 239.233L278.733 239.314Z" fill="white"/>
</svg>
