<svg width="949" height="956" viewBox="0 0 949 956" fill="none" xmlns="http://www.w3.org/2000/svg">
<path d="M159.273 295.416C161.338 291.018 162.259 286.17 161.951 281.321C161.642 276.472 160.115 271.78 157.51 267.679C154.905 263.578 151.306 260.201 147.048 257.861C142.79 255.522 138.01 254.295 133.152 254.295C128.293 254.295 123.514 255.522 119.256 257.861C114.998 260.201 111.399 263.578 108.794 267.679C106.189 271.78 104.661 276.472 104.353 281.321C104.045 286.17 104.966 291.018 107.03 295.416H159.273Z" stroke="#263238" stroke-linecap="round" stroke-linejoin="round"/>
<path d="M228.117 295.416C230.194 291.013 231.125 286.157 230.824 281.299C230.522 276.44 228.997 271.737 226.391 267.626C223.785 263.514 220.182 260.128 215.917 257.782C211.652 255.436 206.863 254.205 201.996 254.205C197.128 254.205 192.339 255.436 188.074 257.782C183.809 260.128 180.206 263.514 177.6 267.626C174.994 271.737 173.469 276.44 173.167 281.299C172.866 286.157 173.797 291.013 175.874 295.416H228.117Z" stroke="#263238" stroke-linecap="round" stroke-linejoin="round"/>
<path d="M296.933 295.416C298.998 291.018 299.919 286.17 299.611 281.321C299.302 276.472 297.775 271.78 295.17 267.679C292.565 263.578 288.966 260.201 284.708 257.861C280.45 255.522 275.67 254.295 270.812 254.295C265.954 254.295 261.174 255.522 256.916 257.861C252.658 260.201 249.059 263.578 246.454 267.679C243.849 271.78 242.322 276.472 242.013 281.321C241.705 286.17 242.626 291.018 244.691 295.416H296.933Z" stroke="#263238" stroke-linecap="round" stroke-linejoin="round"/>
<path d="M365.75 295.416C367.815 291.018 368.736 286.17 368.428 281.321C368.119 276.472 366.592 271.78 363.987 267.679C361.382 263.578 357.783 260.201 353.525 257.861C349.267 255.522 344.487 254.295 339.629 254.295C334.77 254.295 329.991 255.522 325.733 257.861C321.475 260.201 317.876 263.578 315.271 267.679C312.666 271.78 311.138 276.472 310.83 281.321C310.522 286.17 311.443 291.018 313.508 295.416H365.75Z" stroke="#263238" stroke-linecap="round" stroke-linejoin="round"/>
<path d="M434.594 295.416C436.665 291.014 437.591 286.16 437.286 281.304C436.98 276.448 435.453 271.749 432.846 267.641C430.239 263.533 426.637 260.15 422.374 257.807C418.11 255.463 413.324 254.234 408.459 254.234C403.594 254.234 398.807 255.463 394.544 257.807C390.281 260.15 386.679 263.533 384.072 267.641C381.465 271.749 379.938 276.448 379.632 281.304C379.327 286.16 380.253 291.014 382.324 295.416H434.594Z" stroke="#263238" stroke-linecap="round" stroke-linejoin="round"/>
<path d="M503.411 295.416C505.476 291.018 506.397 286.17 506.088 281.321C505.78 276.472 504.252 271.78 501.647 267.679C499.042 263.578 495.444 260.201 491.186 257.861C486.928 255.522 482.148 254.295 477.29 254.295C472.431 254.295 467.651 255.522 463.393 257.861C459.135 260.201 455.537 263.578 452.932 267.679C450.327 271.78 448.799 276.472 448.491 281.321C448.182 286.17 449.103 291.018 451.168 295.416H503.411Z" stroke="#263238" stroke-linecap="round" stroke-linejoin="round"/>
<path d="M572.227 295.416C574.292 291.018 575.213 286.17 574.905 281.321C574.596 276.472 573.069 271.78 570.464 267.679C567.859 263.578 564.26 260.201 560.002 257.861C555.744 255.522 550.964 254.295 546.106 254.295C541.248 254.295 536.468 255.522 532.21 257.861C527.952 260.201 524.353 263.578 521.748 267.679C519.143 271.78 517.615 276.472 517.307 281.321C516.999 286.17 517.92 291.018 519.985 295.416H572.227Z" stroke="#263238" stroke-linecap="round" stroke-linejoin="round"/>
<path d="M641.044 295.416C643.109 291.018 644.03 286.17 643.722 281.321C643.413 276.472 641.886 271.78 639.281 267.679C636.676 263.578 633.077 260.201 628.819 257.861C624.561 255.522 619.781 254.295 614.923 254.295C610.064 254.295 605.285 255.522 601.027 257.861C596.768 260.201 593.17 263.578 590.565 267.679C587.96 271.78 586.432 276.472 586.124 281.321C585.816 286.17 586.737 291.018 588.801 295.416H641.044Z" stroke="#263238" stroke-linecap="round" stroke-linejoin="round"/>
<path d="M709.888 295.416C711.737 291.499 712.68 287.217 712.649 282.887C712.618 278.556 711.612 274.288 709.706 270.399C707.801 266.51 705.045 263.1 701.642 260.421C698.239 257.742 694.276 255.864 690.049 254.925C685.821 253.986 681.436 254.011 677.219 254.998C673.002 255.984 669.061 257.907 665.689 260.624C662.316 263.341 659.599 266.783 657.737 270.693C655.876 274.603 654.919 278.882 654.936 283.213C654.922 287.428 655.838 291.595 657.618 295.416H709.888Z" stroke="#263238" stroke-linecap="round" stroke-linejoin="round"/>
<path d="M778.705 295.416C780.77 291.018 781.691 286.17 781.382 281.321C781.074 276.472 779.546 271.78 776.941 267.679C774.336 263.578 770.738 260.201 766.48 257.861C762.222 255.522 757.442 254.295 752.583 254.295C747.725 254.295 742.945 255.522 738.687 257.861C734.429 260.201 730.831 263.578 728.226 267.679C725.62 271.78 724.093 276.472 723.785 281.321C723.476 286.17 724.397 291.018 726.462 295.416H778.705Z" stroke="#263238" stroke-linecap="round" stroke-linejoin="round"/>
<path d="M847.521 295.416C849.586 291.018 850.507 286.17 850.199 281.321C849.89 276.472 848.363 271.78 845.758 267.679C843.153 263.578 839.554 260.201 835.296 257.861C831.038 255.522 826.258 254.295 821.4 254.295C816.541 254.295 811.762 255.522 807.504 257.861C803.246 260.201 799.647 263.578 797.042 267.679C794.437 271.78 792.909 276.472 792.601 281.321C792.293 286.17 793.214 291.018 795.278 295.416H847.521Z" stroke="#263238" stroke-linecap="round" stroke-linejoin="round"/>
<path d="M87.9893 296.301H858.49" stroke="#263238" stroke-linecap="round" stroke-linejoin="round"/>
<path d="M87.9893 347.927H858.49" stroke="#263238" stroke-linecap="round" stroke-linejoin="round"/>
<path d="M87.9893 500.337H858.49" stroke="#263238" stroke-linecap="round" stroke-linejoin="round"/>
<path d="M87.9893 551.937H858.49" stroke="#263238" stroke-linecap="round" stroke-linejoin="round"/>
<path d="M160.319 407.303H104.778V499.345H160.319V407.303Z" stroke="#263238" stroke-linecap="round" stroke-linejoin="round"/>
<path d="M228.546 407.303H173.004V499.345H228.546V407.303Z" stroke="#263238" stroke-linecap="round" stroke-linejoin="round"/>
<path d="M296.799 407.303H241.258V499.345H296.799V407.303Z" stroke="#263238" stroke-linecap="round" stroke-linejoin="round"/>
<path d="M365.026 407.303H309.485V499.345H365.026V407.303Z" stroke="#263238" stroke-linecap="round" stroke-linejoin="round"/>
<path d="M433.28 407.303H377.738V499.345H433.28V407.303Z" stroke="#263238" stroke-linecap="round" stroke-linejoin="round"/>
<path d="M501.506 407.303H445.965V499.345H501.506V407.303Z" stroke="#263238" stroke-linecap="round" stroke-linejoin="round"/>
<path d="M569.76 407.303H514.219V499.345H569.76V407.303Z" stroke="#263238" stroke-linecap="round" stroke-linejoin="round"/>
<path d="M637.987 407.303H582.445V499.345H637.987V407.303Z" stroke="#263238" stroke-linecap="round" stroke-linejoin="round"/>
<path d="M706.241 407.303H650.699V499.345H706.241V407.303Z" stroke="#263238" stroke-linecap="round" stroke-linejoin="round"/>
<path d="M774.467 407.303H718.926V499.345H774.467V407.303Z" stroke="#263238" stroke-linecap="round" stroke-linejoin="round"/>
<path d="M842.694 407.303H787.152V499.345H842.694V407.303Z" stroke="#263238" stroke-linecap="round" stroke-linejoin="round"/>
<path d="M798.47 614.236V566.794H781.816V614.236H773.475V704.052H806.811V614.236H798.47Z" stroke="#263238" stroke-linecap="round" stroke-linejoin="round"/>
<path d="M742.741 614.236V566.794H726.06V614.236H717.746V704.052H751.055V614.236H742.741Z" stroke="#263238" stroke-linecap="round" stroke-linejoin="round"/>
<path d="M686.985 614.236V566.794H670.33V614.236H661.99V704.052H695.325V614.236H686.985Z" stroke="#263238" stroke-linecap="round" stroke-linejoin="round"/>
<path d="M631.256 614.236V566.794H614.575V614.236H606.261V704.052H639.57V614.236H631.256Z" stroke="#263238" stroke-linecap="round" stroke-linejoin="round"/>
<path d="M575.499 614.236V566.794H558.845V614.236H550.504V704.052H583.84V614.236H575.499Z" stroke="#263238" stroke-linecap="round" stroke-linejoin="round"/>
<path d="M519.77 614.236V566.794H503.089V614.236H494.775V704.052H528.084V614.236H519.77Z" stroke="#263238" stroke-linecap="round" stroke-linejoin="round"/>
<path d="M464.014 614.236V566.794H447.36V614.236H439.019V704.052H472.355V614.236H464.014Z" stroke="#263238" stroke-linecap="round" stroke-linejoin="round"/>
<path d="M408.285 614.236V566.794H391.604V614.236H383.29V704.052H416.599V614.236H408.285Z" stroke="#263238" stroke-linecap="round" stroke-linejoin="round"/>
<path d="M352.529 614.236V566.794H335.874V614.236H327.534V704.052H360.869V614.236H352.529Z" stroke="#263238" stroke-linecap="round" stroke-linejoin="round"/>
<path d="M296.8 614.236V566.794H280.118V614.236H271.805V704.052H305.114V614.236H296.8Z" stroke="#263238" stroke-linecap="round" stroke-linejoin="round"/>
<path d="M241.043 614.236V566.794H224.389V614.236H216.048V704.052H249.384V614.236H241.043Z" stroke="#263238" stroke-linecap="round" stroke-linejoin="round"/>
<path d="M185.314 614.236V566.794H168.633V614.236H160.319V704.052H193.628V614.236H185.314Z" stroke="#263238" stroke-linecap="round" stroke-linejoin="round"/>
<path d="M129.558 614.236V566.794H112.904V614.236H104.563V704.052H137.899V614.236H129.558Z" stroke="#263238" stroke-linecap="round" stroke-linejoin="round"/>
<path d="M87.9893 704.374H858.49" stroke="#263238" stroke-linecap="round" stroke-linejoin="round"/>
<path d="M87.9893 755.973H858.49" stroke="#263238" stroke-linecap="round" stroke-linejoin="round"/>
<path d="M169.518 78.4524V1" stroke="#263238" stroke-linecap="round" stroke-linejoin="round"/>
<path d="M776.237 78.4524V1" stroke="#263238" stroke-linecap="round" stroke-linejoin="round"/>
<path d="M271.912 77.1382H73.6948V209.703H271.912V77.1382Z" stroke="#263238" stroke-linecap="round" stroke-linejoin="round"/>
<path d="M119.045 111.895C126.394 112.941 129.773 118.654 129.773 126.78V128.389H123.444V126.297C123.444 120.933 121.298 117.634 116.444 117.634C111.59 117.634 109.525 120.933 109.525 126.297C109.525 139.894 129.853 139.974 129.853 157.031C129.853 165.077 126.394 170.95 119.126 171.996V176.662H113.574V172.076C106.038 171.03 102.686 165.318 102.686 157.112V153.384H108.988V157.541C108.988 162.904 111.241 166.096 116.095 166.096C120.95 166.096 123.176 162.985 123.176 157.541C123.176 144.131 102.927 143.863 102.927 126.806C102.927 118.493 106.307 113.049 113.655 111.922V106.934H119.206L119.045 111.895Z" fill="#263238"/>
<path d="M161.016 160.035V172.237H154.446V160.035H134.868V153.867L153.641 111.627H160.99V153.867H165.844V160.035H161.016ZM141.117 153.867H154.526V124.366L141.117 153.867Z" fill="#263238"/>
<path d="M198.241 126.27V157.165C198.241 166.766 193.896 172.827 184.215 172.827C174.962 172.827 170.537 166.847 170.537 157.594V156.468H176.866V158.023C176.866 163.387 179.199 166.686 184.054 166.686C188.908 166.686 191.482 163.387 191.482 157.004V143.407C190.774 145.397 189.433 147.101 187.666 148.258C185.898 149.415 183.801 149.963 181.694 149.817C173.916 149.817 170.457 144.265 170.457 135.523V126.27C170.457 117.018 174.962 111.037 184.295 111.037C193.628 111.037 198.241 117.018 198.241 126.27ZM177.108 125.921V135.013C177.108 140.377 179.468 143.756 184.295 143.756C189.122 143.756 191.482 140.457 191.482 135.013V125.921C191.482 120.37 189.23 117.179 184.295 117.179C179.36 117.179 177.108 120.343 177.108 125.921Z" fill="#263238"/>
<path d="M211.221 163.843V172.237H204.731V163.843H211.221Z" fill="#263238"/>
<path d="M245.308 126.27V157.165C245.308 166.766 240.99 172.827 231.308 172.827C222.029 172.827 217.631 166.847 217.631 157.594V156.468H223.933V158.024C223.933 163.387 226.293 166.686 231.121 166.686C235.948 166.686 238.576 163.387 238.576 157.004V143.407C237.868 145.4 236.529 147.107 234.762 148.268C232.995 149.43 230.897 149.983 228.787 149.844C221.01 149.844 217.55 144.292 217.55 135.549V126.297C217.55 117.045 222.029 111.064 231.389 111.064C240.748 111.064 245.308 117.018 245.308 126.27ZM224.201 125.922V135.013C224.201 140.377 226.535 143.756 231.389 143.756C236.243 143.756 238.576 140.457 238.576 135.013V125.922C238.576 120.37 236.323 117.179 231.389 117.179C226.454 117.179 224.201 120.343 224.201 125.922Z" fill="#263238"/>
<path d="M878.631 77.1382H680.414V209.703H878.631V77.1382Z" stroke="#263238" stroke-linecap="round" stroke-linejoin="round"/>
<path d="M725.148 111.895C732.496 112.941 735.875 118.654 735.875 126.78V128.389H729.546V126.297C729.546 120.933 727.4 117.634 722.546 117.634C717.692 117.634 715.627 120.933 715.627 126.297C715.627 139.894 735.955 139.974 735.955 157.031C735.955 165.077 732.496 170.95 725.228 171.996V176.662H719.677V172.076C712.167 171.03 708.788 165.318 708.788 157.112V153.384H715.09V157.541C715.09 162.904 717.343 166.096 722.197 166.096C727.052 166.096 729.278 162.985 729.278 157.541C729.278 144.131 709.03 143.863 709.03 126.806C709.03 118.493 712.409 113.049 719.757 111.922V106.934H725.308L725.148 111.895Z" fill="#263238"/>
<path d="M769.801 126.351C769.801 144.614 749.285 151.185 749.204 165.13V166.069H769.104V172.237H742.526V167.035C742.526 147.484 763.043 143.675 763.043 126.619C763.043 120.37 760.978 117.098 755.963 117.098C750.947 117.098 748.856 120.638 748.856 126.002V131.366H742.526V126.431C742.526 117.179 746.791 111.037 756.123 111.037C765.456 111.037 769.801 117.098 769.801 126.351Z" fill="#263238"/>
<path d="M788.413 122.623C785.882 124.202 782.997 125.124 780.019 125.305V119.78C786.59 119.512 788.842 115.972 790.398 111.734H795.064V172.345H788.413V122.623Z" fill="#263238"/>
<path d="M811.772 163.843V172.237H805.282V163.843H811.772Z" fill="#263238"/>
<path d="M845.886 126.27V157.165C845.886 166.766 841.568 172.827 831.859 172.827C822.607 172.827 818.182 166.847 818.182 157.594V156.468H824.511V158.024C824.511 163.387 826.844 166.686 831.699 166.686C836.553 166.686 839.127 163.387 839.127 157.004V143.407C838.419 145.416 837.069 147.136 835.285 148.3C833.5 149.463 831.382 150.006 829.258 149.844C821.454 149.844 817.994 144.292 817.994 135.549V126.297C817.994 117.045 822.5 111.064 831.833 111.064C841.166 111.064 845.886 117.018 845.886 126.27ZM824.753 125.922V135.013C824.753 140.377 827.113 143.756 831.94 143.756C836.767 143.756 839.127 140.457 839.127 135.013V125.922C839.127 120.37 836.875 117.179 831.94 117.179C827.005 117.179 824.753 120.343 824.753 125.922Z" fill="#263238"/>
<path d="M451.758 955.558C575.405 955.558 675.64 933.513 675.64 906.319C675.64 879.125 575.405 857.08 451.758 857.08C328.111 857.08 227.875 879.125 227.875 906.319C227.875 933.513 328.111 955.558 451.758 955.558Z" fill="#7B73F1"/>
<path opacity="0.5" d="M451.758 955.558C575.405 955.558 675.64 933.513 675.64 906.319C675.64 879.125 575.405 857.08 451.758 857.08C328.111 857.08 227.875 879.125 227.875 906.319C227.875 933.513 328.111 955.558 451.758 955.558Z" fill="white"/>
<path d="M271.215 873.948C271.215 873.948 270.196 887.197 273.897 891.112C277.598 895.028 309.512 896.476 313.133 891.595C316.753 886.714 314.688 868.558 314.688 868.558C314.688 868.558 301.681 872.849 271.215 873.948Z" fill="#7B73F1" stroke="#263238" stroke-linecap="round" stroke-linejoin="round"/>
<path d="M303.746 889.048C286.341 889.503 276.927 888.377 271.993 887.036C272.264 888.489 272.89 889.853 273.816 891.005C277.41 894.921 309.432 896.369 313.052 891.488C313.625 890.622 314.034 889.659 314.259 888.645C311.041 888.806 307.581 888.94 303.746 889.048Z" fill="white" stroke="#263238" stroke-linecap="round" stroke-linejoin="round"/>
<path d="M366.234 890.469C374.257 897.447 383.581 902.77 393.669 906.131C408.634 910.556 412.764 912.996 411.208 917.904C409.653 922.812 396.753 924.287 365.778 925.279C334.802 926.272 311.497 922.249 307.366 919.299C303.236 916.349 305.811 910.958 307.366 909.51C308.922 908.062 360.548 886.553 366.234 890.469Z" fill="#7B73F1" stroke="#263238" stroke-linecap="round" stroke-linejoin="round"/>
<path d="M411.209 918.011C411.51 917.277 411.605 916.473 411.482 915.688C411.359 914.903 411.023 914.167 410.511 913.56C403.297 916.51 390.397 917.395 360.628 917.046C334.453 916.724 318.47 912.889 305.382 913.399C305.033 914.481 305.038 915.646 305.394 916.726C305.751 917.806 306.442 918.744 307.367 919.406C311.497 922.356 334.802 926.352 365.778 925.387C396.753 924.421 409.68 922.919 411.209 918.011Z" fill="white" stroke="#263238" stroke-linecap="round" stroke-linejoin="round"/>
<path d="M302.727 604.045C302.727 604.045 301.681 662.912 290.337 713.439C278.992 763.965 271.751 787.512 269.686 819.399C268.436 838.516 268.606 857.7 270.196 876.791C270.196 876.791 275.881 879.715 289.827 878.749C297.467 878.447 304.913 876.254 311.497 872.366C311.497 872.366 313.052 817.415 313.052 787.002C313.052 756.59 326.461 673.211 327.507 642.315C328.553 611.42 319.247 595.705 312.543 590.797C305.838 585.889 302.727 604.045 302.727 604.045Z" fill="#263238" stroke="#263238" stroke-linecap="round" stroke-linejoin="round"/>
<path d="M370.873 535.362C370.873 535.362 370.363 564.863 370.363 602.087C370.363 639.312 362.103 726.687 355.399 768.363C348.694 810.039 353.334 866.922 354.353 871.347C355.372 875.772 357.464 874.297 361.057 878.695C363.958 882.571 366.55 886.669 368.808 890.951C368.808 890.951 348.667 904.709 333.193 909.724C317.718 914.74 312.006 916.59 308.412 916.59C304.818 916.59 304.792 913.157 302.217 904.817C299.642 896.476 299.535 861.639 299.535 861.639C299.535 861.639 292.321 812.131 292.321 781.719C292.321 751.306 306.267 732.667 306.267 703.247C306.267 673.827 297.47 594.337 292.321 582.563C287.172 570.79 277.329 554.618 276.23 546.278C275.13 537.937 274.674 532.52 274.674 532.52L370.873 535.362Z" fill="#263238" stroke="#263238" stroke-linecap="round" stroke-linejoin="round"/>
<path d="M357.464 397.514C357.464 397.514 377.068 378.875 380.689 372.519C384.309 366.163 381.735 353.88 385.865 350.448C389.995 347.015 403.914 341.597 405.979 337.199C408.044 332.801 410.645 331.299 412.174 338.674C413.703 346.049 408.58 349.402 405.469 352.888L402.385 356.348L423.036 351.44C423.036 351.44 419.415 336.234 424.055 332.801C428.694 329.368 431.805 351.44 432.315 357.823C432.824 364.206 426.656 369.113 415.285 373.512C408.202 376.246 400.956 378.539 393.589 380.377L370.364 436.294L357.464 397.514Z" fill="white" stroke="#263238" stroke-linecap="round" stroke-linejoin="round"/>
<path d="M427.166 355.329C428.185 350.448 426.656 334.249 430.786 331.809C434.916 329.368 435.426 341.115 435.426 341.115C435.426 341.115 437.491 352.888 434.916 357.796C432.342 362.704 428.721 363.669 428.721 360.236" fill="white"/>
<path d="M427.166 355.329C428.185 350.448 426.656 334.249 430.786 331.809C434.916 329.368 435.426 341.115 435.426 341.115C435.426 341.115 437.491 352.888 434.916 357.796C432.342 362.704 428.721 363.669 428.721 360.236" stroke="#263238" stroke-linecap="round" stroke-linejoin="round"/>
<path d="M396.861 373.27C396.861 373.27 395.654 368.094 403.914 365.654C412.174 363.213 426.12 360.29 426.12 360.29C426.12 360.29 436.445 331.862 440.065 340.685C443.686 349.509 435.426 367.665 432.315 370.186C429.204 372.707 405.979 377.052 405.979 377.052" fill="white"/>
<path d="M396.861 373.27C396.861 373.27 395.654 368.094 403.914 365.654C412.174 363.213 426.12 360.29 426.12 360.29C426.12 360.29 436.445 331.862 440.065 340.685C443.686 349.509 435.426 367.665 432.315 370.186C429.204 372.707 405.979 377.052 405.979 377.052" stroke="#263238" stroke-linecap="round" stroke-linejoin="round"/>
<path d="M305.811 276.374C305.811 276.374 285.161 310.756 277.946 340.256C270.732 369.757 264.001 428.088 261.855 461.423C259.71 494.759 255.15 540.887 255.15 540.887C275.703 546.219 296.892 548.701 318.121 548.262C341.379 547.797 364.543 545.166 387.313 540.404C387.313 540.404 376.022 444.125 365.295 388.208C354.567 332.291 344.135 297.025 344.135 297.025C344.135 297.025 316.136 274.39 305.811 276.374Z" fill="#7B73F1" stroke="#263238" stroke-linecap="round" stroke-linejoin="round"/>
<path d="M319.247 212.117C321.724 221.41 321.899 231.168 319.757 240.545C316.136 255.751 314.071 266.559 314.071 266.559C314.071 266.559 344.028 298.446 344.028 296.971C344.028 295.496 345.074 278.815 349.713 268.516C354.353 258.218 357.464 252.425 357.464 252.425C350.349 248.198 344.725 241.862 341.373 234.296C335.687 221.53 335.178 201.416 327.427 200.933C319.676 200.451 319.247 212.117 319.247 212.117Z" fill="white" stroke="#263238" stroke-linecap="round" stroke-linejoin="round"/>
<path d="M390.504 168.456C390.504 168.456 390.504 197.393 392.57 203.776C394.635 210.159 401.849 211.607 400.83 215.04C399.811 218.473 390.102 220.404 390.102 220.404C390.102 220.404 387.42 244.943 385.436 251.808C383.451 258.674 378.222 260.149 366.85 259.157C355.479 258.164 342.714 254.758 337.35 247.383C331.986 240.008 329.09 226.787 329.09 226.787C327.549 215.071 326.654 203.28 326.408 191.466C326.408 175.777 324.343 167.33 346.039 159.096C367.735 150.863 389.432 161.59 390.504 168.456Z" fill="white" stroke="#263238" stroke-linecap="round" stroke-linejoin="round"/>
<path d="M366.743 226.331L377.068 232.713C377.068 232.713 371.919 242.02 368.299 239.579C364.678 237.139 366.743 226.331 366.743 226.331Z" stroke="#263238" stroke-linecap="round" stroke-linejoin="round"/>
<path d="M382.244 205.492C382.244 208.335 381.439 210.642 380.42 210.642C379.401 210.642 378.624 208.335 378.624 205.492C378.624 202.65 379.428 200.343 380.42 200.343C381.413 200.343 382.244 202.65 382.244 205.492Z" fill="#263238"/>
<path d="M371.383 194.926C371.383 194.926 374.065 185.62 381.735 186.103" stroke="#263238" stroke-linecap="round" stroke-linejoin="round"/>
<path d="M334.748 216.89L345.476 213.967C345.476 213.967 339.281 204.634 345.986 200.236C352.69 195.838 362.506 192.378 359.931 187.953C357.357 183.528 340.3 181.087 348.56 175.697C356.82 170.306 368.191 167.356 370.256 169.314C372.322 171.272 370.256 173.739 383.666 173.739C397.075 173.739 404.316 168.831 400.186 153.142C396.056 137.453 373.85 131.553 359.958 137.051C346.066 142.549 341.882 146.384 341.882 146.384C341.882 146.384 312.382 147.35 303.666 167.839C294.95 188.329 298.516 201.201 304.712 208.067C310.907 214.933 320.186 222.308 323.806 222.308C327.427 222.308 334.748 216.89 334.748 216.89Z" fill="#263238" stroke="#263238" stroke-linecap="round" stroke-linejoin="round"/>
<path d="M307.957 196.776C318.148 193.397 323.833 183.179 337.457 174.115C345.855 168.606 355.738 165.798 365.778 166.069C365.778 166.069 360.092 149.066 373.823 150.192C387.554 151.319 391.953 160.383 379.509 159.257" stroke="white" stroke-width="0.75" stroke-linecap="round" stroke-linejoin="round"/>
<path d="M339.388 222.898C339.388 221.423 335.258 200.826 327.507 200.826C319.756 200.826 315.626 206.19 318.737 218.473C321.848 230.756 331.128 234.564 338.342 228.288" fill="white"/>
<path d="M339.388 222.898C339.388 221.423 335.258 200.826 327.507 200.826C319.756 200.826 315.626 206.19 318.737 218.473C321.848 230.756 331.128 234.564 338.342 228.288" stroke="#263238" stroke-linecap="round" stroke-linejoin="round"/>
<path d="M307.876 254.785L348.667 291.071L352.797 314.135L297.551 277.34L307.876 254.785Z" fill="#7B73F1" stroke="#263238" stroke-linecap="round" stroke-linejoin="round"/>
<path d="M254.909 650.12C253.406 650.155 251.945 649.622 250.817 648.628C249.688 647.634 248.976 646.252 248.821 644.756L244.852 596.67C244.64 592.829 245.962 589.062 248.526 586.195C251.091 583.329 254.689 581.598 258.53 581.383L340.193 574.92C344.009 574.574 347.812 575.714 350.81 578.102C353.807 580.49 355.768 583.942 356.284 587.739L361.138 636.389C361.2 637.17 361.106 637.956 360.86 638.701C360.615 639.446 360.224 640.134 359.71 640.726C359.195 641.318 358.568 641.801 357.865 642.148C357.161 642.494 356.396 642.697 355.613 642.745C354.018 642.91 352.422 642.44 351.172 641.436C349.921 640.431 349.118 638.974 348.936 637.381L344.081 588.732C343.988 588.044 343.63 587.419 343.085 586.988C342.54 586.558 341.849 586.356 341.158 586.425L259.495 592.889C258.822 592.943 258.193 593.249 257.736 593.746C257.279 594.243 257.026 594.895 257.028 595.57L260.97 643.656C261.017 644.439 260.908 645.224 260.65 645.964C260.392 646.705 259.989 647.387 259.465 647.97C258.941 648.554 258.307 649.028 257.598 649.365C256.89 649.702 256.122 649.894 255.338 649.932L254.909 650.12Z" fill="#263238" stroke="white" stroke-miterlimit="10"/>
<path d="M211.034 645.212L222.029 724.407C222.379 727.149 223.774 729.65 225.922 731.389C228.07 733.127 230.807 733.97 233.561 733.74L390.585 721.296C393.293 721.099 395.826 719.883 397.672 717.892C399.519 715.901 400.542 713.284 400.535 710.569V628.611L306.669 647.813L211.034 645.212Z" fill="#7B73F1" stroke="#263238" stroke-linecap="round" stroke-linejoin="round"/>
<path d="M243.994 724.246L241.848 724.407C241.263 724.46 240.68 724.282 240.224 723.911C239.768 723.541 239.475 723.006 239.408 722.423L234.58 663.663C234.558 663.371 234.596 663.078 234.69 662.801C234.784 662.524 234.934 662.268 235.129 662.051C235.324 661.833 235.562 661.656 235.827 661.533C236.092 661.409 236.38 661.34 236.672 661.33L238.818 661.169C239.404 661.109 239.991 661.284 240.448 661.656C240.906 662.028 241.197 662.567 241.258 663.153L246.086 721.913C246.107 722.205 246.07 722.498 245.976 722.775C245.881 723.052 245.732 723.308 245.537 723.525C245.341 723.743 245.104 723.92 244.839 724.043C244.574 724.167 244.286 724.236 243.994 724.246V724.246Z" fill="white" stroke="#263238" stroke-linecap="round" stroke-linejoin="round"/>
<path d="M263.035 722.852L260.917 723.013C260.324 723.066 259.735 722.885 259.274 722.509C258.813 722.133 258.517 721.592 258.449 721.002L253.622 662.242C253.604 661.951 253.644 661.659 253.739 661.384C253.835 661.108 253.985 660.854 254.179 660.637C254.374 660.42 254.61 660.244 254.873 660.119C255.137 659.994 255.422 659.922 255.714 659.909L257.859 659.748C258.152 659.718 258.447 659.747 258.729 659.832C259.01 659.917 259.272 660.058 259.499 660.245C259.726 660.432 259.913 660.662 260.051 660.922C260.188 661.182 260.273 661.466 260.3 661.759L265.154 720.519C265.176 721.107 264.967 721.681 264.571 722.118C264.175 722.554 263.623 722.817 263.035 722.852V722.852Z" fill="white" stroke="#263238" stroke-linecap="round" stroke-linejoin="round"/>
<path d="M282.157 721.431L280.038 721.592C279.446 721.644 278.856 721.464 278.395 721.088C277.934 720.712 277.638 720.171 277.571 719.58L272.743 660.82C272.725 660.529 272.765 660.238 272.861 659.962C272.957 659.687 273.106 659.433 273.301 659.216C273.496 658.999 273.732 658.822 273.995 658.697C274.258 658.572 274.544 658.501 274.835 658.487L276.981 658.353C277.57 658.293 278.16 658.467 278.622 658.839C279.084 659.21 279.381 659.749 279.448 660.338L284.276 719.097C284.298 719.686 284.088 720.26 283.692 720.696C283.296 721.132 282.745 721.396 282.157 721.431V721.431Z" fill="white" stroke="#263238" stroke-linecap="round" stroke-linejoin="round"/>
<path d="M301.145 720.009L298.999 720.17C298.409 720.23 297.82 720.056 297.358 719.684C296.896 719.313 296.599 718.774 296.532 718.185L291.704 659.399C291.69 659.106 291.733 658.814 291.832 658.539C291.931 658.263 292.083 658.01 292.28 657.793C292.476 657.576 292.714 657.4 292.979 657.275C293.244 657.151 293.531 657.079 293.823 657.066L295.942 656.905C296.531 656.844 297.121 657.019 297.583 657.39C298.045 657.762 298.342 658.3 298.409 658.889L303.236 717.649C303.262 717.943 303.228 718.239 303.135 718.519C303.042 718.8 302.894 719.058 302.698 719.279C302.502 719.5 302.264 719.678 301.996 719.804C301.729 719.93 301.44 719.999 301.145 720.009V720.009Z" fill="white" stroke="#263238" stroke-linecap="round" stroke-linejoin="round"/>
<path d="M320.186 718.588L318.041 718.749C317.749 718.782 317.455 718.757 317.173 718.675C316.892 718.593 316.63 718.455 316.403 718.27C316.175 718.085 315.987 717.857 315.849 717.598C315.711 717.34 315.627 717.056 315.6 716.764L310.746 658.004C310.731 657.712 310.775 657.42 310.874 657.144C310.972 656.868 311.124 656.615 311.321 656.398C311.518 656.182 311.756 656.006 312.02 655.881C312.285 655.756 312.572 655.685 312.865 655.671L314.983 655.51C315.571 655.457 316.157 655.634 316.618 656.004C317.078 656.374 317.377 656.909 317.451 657.495L322.385 716.255C322.408 716.555 322.367 716.858 322.266 717.142C322.165 717.426 322.007 717.686 321.8 717.906C321.593 718.125 321.342 718.299 321.065 718.417C320.787 718.534 320.488 718.592 320.186 718.588V718.588Z" fill="white" stroke="#263238" stroke-linecap="round" stroke-linejoin="round"/>
<path d="M339.227 717.193L337.082 717.354C336.789 717.384 336.494 717.355 336.212 717.27C335.931 717.184 335.669 717.044 335.442 716.857C335.215 716.67 335.028 716.44 334.89 716.18C334.753 715.92 334.668 715.635 334.641 715.343L329.814 656.717C329.796 656.426 329.836 656.134 329.931 655.859C330.027 655.583 330.177 655.33 330.371 655.112C330.566 654.895 330.802 654.719 331.065 654.594C331.329 654.469 331.614 654.397 331.906 654.384L334.024 654.223C334.617 654.17 335.206 654.351 335.667 654.727C336.128 655.102 336.424 655.643 336.492 656.234L341.319 714.994C341.32 715.559 341.103 716.103 340.713 716.512C340.324 716.922 339.792 717.166 339.227 717.193Z" fill="white" stroke="#263238" stroke-linecap="round" stroke-linejoin="round"/>
<path d="M358.269 715.718L356.15 715.879C355.557 715.932 354.968 715.751 354.507 715.375C354.046 714.999 353.75 714.458 353.683 713.867L348.855 655.134C348.833 654.843 348.871 654.549 348.965 654.272C349.059 653.995 349.209 653.74 349.404 653.522C349.599 653.304 349.837 653.128 350.102 653.004C350.367 652.88 350.655 652.811 350.947 652.801L353.093 652.64C353.384 652.607 353.679 652.632 353.96 652.714C354.241 652.796 354.503 652.934 354.731 653.119C354.958 653.304 355.146 653.532 355.284 653.791C355.422 654.049 355.506 654.333 355.533 654.625L360.36 713.385C360.382 713.676 360.345 713.97 360.251 714.247C360.156 714.524 360.007 714.779 359.812 714.997C359.616 715.215 359.379 715.391 359.114 715.515C358.849 715.639 358.561 715.708 358.269 715.718V715.718Z" fill="white" stroke="#263238" stroke-linecap="round" stroke-linejoin="round"/>
<path d="M377.31 714.35L375.191 714.511C374.601 714.572 374.012 714.397 373.55 714.026C373.088 713.654 372.791 713.116 372.724 712.527L367.977 653.767C367.955 653.475 367.992 653.182 368.087 652.905C368.181 652.628 368.33 652.373 368.526 652.155C368.721 651.937 368.958 651.761 369.223 651.637C369.489 651.513 369.776 651.444 370.069 651.434L372.214 651.273C372.801 651.213 373.387 651.388 373.845 651.76C374.303 652.132 374.594 652.671 374.655 653.257L379.509 712.017C379.523 712.316 379.477 712.615 379.374 712.896C379.27 713.176 379.111 713.433 378.905 713.651C378.7 713.869 378.453 714.043 378.179 714.163C377.905 714.284 377.609 714.347 377.31 714.35V714.35Z" fill="white" stroke="#263238" stroke-linecap="round" stroke-linejoin="round"/>
<path d="M199.663 634.002L305.006 640.384L411.369 614.88L413.944 630.569L305.516 654.116L202.264 648.216L199.663 634.002Z" fill="#7B73F1" stroke="#263238" stroke-linecap="round" stroke-linejoin="round"/>
<path d="M281.031 418.031C281.031 418.031 274.835 433.719 276.9 465.607C278.965 497.494 297.041 552.419 297.041 555.369C297.041 558.319 284.651 570.575 285.161 575.966C286.097 580.5 287.851 584.826 290.337 588.731C290.337 588.731 284.651 590.689 285.161 593.157C285.67 595.624 287.226 596.589 291.356 596.589C295.486 596.589 302.083 600.022 306.347 595.597C310.612 591.172 312.543 588.731 313.562 581.866C314.581 575 312.543 564.192 312.543 546.546C312.543 528.899 304.792 448.443 307.366 440.102C308.92 435.069 310.82 430.15 313.052 425.379L281.031 418.031Z" fill="white" stroke="#263238" stroke-linecap="round" stroke-linejoin="round"/>
<path d="M306.857 314.618C299.391 317.711 292.691 322.397 287.226 328.349C280.011 337.199 282.586 347.98 283.096 354.846C283.338 360.411 283.167 365.987 282.586 371.527L271.215 416.18C271.215 416.18 274.835 422.053 299.106 426.908C323.377 431.762 331.128 431.815 331.128 431.815C331.128 431.815 329.063 380.86 331.128 360.183C333.193 339.505 335.767 329.77 328.446 322.422" fill="#7B73F1"/>
<path d="M306.857 314.618C299.391 317.711 292.691 322.397 287.226 328.349C280.011 337.199 282.586 347.98 283.096 354.846C283.338 360.411 283.167 365.987 282.586 371.527L271.215 416.18C271.215 416.18 274.835 422.053 299.106 426.908C323.377 431.762 331.128 431.815 331.128 431.815C331.128 431.815 329.063 380.86 331.128 360.183C333.193 339.505 335.767 329.77 328.446 322.422" stroke="#263238" stroke-linecap="round" stroke-linejoin="round"/>
<path d="M537.471 864.455C537.471 864.455 508.614 879.875 502.606 885.91C496.599 891.944 511.564 897.844 522.506 897.844C533.448 897.844 538.409 899.346 555.332 892.883C572.254 886.419 569.76 882.423 584.672 886.392C599.583 890.362 605.59 884.917 605.59 884.917L586.683 863.462L537.471 864.455Z" fill="#7B73F1" stroke="#263238" stroke-linecap="round" stroke-linejoin="round"/>
<path d="M596.15 874.136C587.137 874.747 578.264 876.681 569.814 879.875C556.888 884.864 548.922 889.825 529.586 891.327C520.209 892.197 510.772 890.501 502.285 886.419C497.752 892.185 512.02 897.79 522.64 897.79C533.26 897.79 538.544 899.292 555.466 892.829C572.389 886.366 569.895 882.37 584.806 886.339C599.717 890.308 605.724 884.864 605.724 884.864L596.15 874.136Z" fill="white" stroke="#263238" stroke-linecap="round" stroke-linejoin="round"/>
<path d="M596.74 878.4C596.74 878.4 560.079 904.441 554.072 911.334C548.064 918.226 557.343 925.145 574.32 925.145C591.296 925.145 629.593 910.797 633.964 901.786C638.336 892.775 596.74 878.4 596.74 878.4Z" fill="#7B73F1" stroke="#263238" stroke-linecap="round" stroke-linejoin="round"/>
<path d="M574.32 925.146C591.269 925.146 629.593 910.798 633.965 901.786C634.823 899.99 633.965 898.005 631.846 895.967C617.843 904.994 602.435 911.629 586.254 915.598C569.197 919.728 558.416 918.441 552.221 916.483C553.267 921.31 561.635 925.146 574.32 925.146Z" fill="white" stroke="#263238" stroke-linecap="round" stroke-linejoin="round"/>
<path d="M527.521 456.033C527.521 456.033 498.664 525.761 506.066 574.92C513.468 624.079 527.95 686.861 529.935 698.286C531.919 709.711 529.425 733.15 532.911 754.981C536.398 776.811 539.884 832.594 538.275 844.046C536.666 855.497 533.796 868.906 533.796 868.906C533.796 868.906 552.221 876.952 559.167 878.856C567.211 880.438 575.358 881.442 583.545 881.86C583.545 881.86 578.584 878.856 590.035 886.821C600.38 893.681 611.816 898.732 623.854 901.759C630.826 903.234 634.313 907.123 634.796 903.234C635.278 899.346 635.305 886.821 635.305 881.78C637.308 856.291 637.8 830.706 636.78 805.158C634.796 764.93 620.877 738.997 623.854 697.696C626.83 656.395 646.247 609.65 642.251 554.43C638.255 499.211 623.049 460.941 623.049 460.941C623.049 460.941 545.945 459.492 527.521 456.033Z" fill="#263238" stroke="#263238" stroke-linecap="round" stroke-linejoin="round"/>
<path d="M556.888 532.627L571.799 548.048C571.799 548.048 568.822 608.256 568.822 648.537C568.822 688.819 568.312 717.193 572.308 741.089C576.304 764.984 587.22 842.061 588.212 857.509C589.204 872.956 589.714 871.937 586.737 875.906C585.183 877.571 584.141 879.647 583.733 881.887" stroke="white" stroke-linecap="round" stroke-linejoin="round"/>
<path d="M685.725 315.717C683.23 318.212 672.315 314.725 674.3 306.277C676.284 297.829 690.203 274.443 677.277 246.579C664.35 218.714 633.991 218.231 633.991 218.231L631.148 225.553C631.148 220.538 630.934 216.649 630.934 216.649C628.252 209.918 597.303 198.493 596.07 207.906C594.836 217.32 590.035 246.23 601.433 254.303C609.157 259.666 616.881 256.984 622.325 252.184C619.195 266.004 618.12 280.209 619.134 294.343C621.628 327.679 646.516 331.138 664.913 329.207C683.311 327.276 688.219 313.25 685.725 315.717Z" fill="#263238" stroke="#263238" stroke-linecap="round" stroke-linejoin="round"/>
<path d="M635.869 225.768C635.869 225.768 668.185 241.859 670.197 266.157C672.208 290.454 656.063 305.205 662.795 314.645C669.526 324.085 676.928 320.679 676.928 320.679" stroke="white" stroke-width="0.75" stroke-linecap="round" stroke-linejoin="round"/>
<path d="M629.808 231.158C629.808 231.158 644.638 257.414 636.539 280.987C628.44 304.561 634.528 322.717 654.722 327.41" stroke="white" stroke-width="0.75" stroke-linecap="round" stroke-linejoin="round"/>
<path d="M570.324 303.783C561.109 308.297 551.434 311.804 541.467 314.243C525.027 318.212 522.05 320.706 520.575 324.192C519.1 327.679 497.672 362.489 482.761 383.891C467.849 405.292 459.857 419.694 462.861 429.161C465.865 438.628 473.294 442.087 480.776 435.624C488.258 429.161 519.556 378.42 519.556 378.42C519.556 378.42 525.536 416.717 525.536 434.122C525.536 451.527 524.544 461.987 524.544 461.987C524.544 461.987 540.474 466.465 576.787 466.465C613.099 466.465 623.049 461.102 623.049 461.102C623.049 461.102 615.003 441.202 618.061 423.797C619.742 413.717 622.438 403.834 626.106 394.296C626.106 394.296 645.523 441.068 650.485 445.037C655.446 449.006 681.836 457.991 681.836 436.992C681.836 415.993 655.956 358.386 649.492 338.969C643.029 319.553 642.52 322.074 631.577 318.078C620.635 314.082 586.817 307.136 586.817 307.136L570.324 303.783Z" fill="#7B73F1" stroke="#263238" stroke-linecap="round" stroke-linejoin="round"/>
<path d="M462.861 429.16C465.838 438.601 473.294 442.087 480.776 435.624C486.14 431.011 503.652 403.736 513.227 388.557C512.331 387.104 511.288 385.747 510.116 384.507C507.1 381.719 503.522 379.611 499.621 378.324C495.721 377.038 491.59 376.604 487.508 377.052C485.898 379.439 484.343 381.745 482.841 383.89C467.823 405.265 459.858 419.693 462.861 429.16Z" fill="white" stroke="#263238" stroke-linecap="round" stroke-linejoin="round"/>
<path d="M681.756 437.126C681.756 430.957 679.503 421.598 676.15 410.951C662.474 409.445 648.67 412.259 636.673 418.996C642.037 430.957 647.964 443.133 650.404 445.118C655.393 449.06 681.756 458.017 681.756 437.126Z" fill="white" stroke="#263238" stroke-linecap="round" stroke-linejoin="round"/>
<path d="M491.342 393.787L476.512 401.269" stroke="#263238" stroke-linecap="round" stroke-linejoin="round"/>
<path d="M573.3 294.826C573.3 294.826 560.857 295.335 555.386 305.768C549.915 316.2 543.451 355.516 543.451 355.516C543.451 355.516 567.32 350.153 569.304 350.555C571.289 350.957 598.617 365.466 598.617 365.466C598.617 365.466 611.544 326.177 607.065 306.787C602.586 287.397 582.741 292.358 573.3 294.826Z" fill="white" stroke="#263238" stroke-linecap="round" stroke-linejoin="round"/>
<path d="M570.324 283.401C570.324 283.401 571.316 290.347 565.845 312.258C560.374 334.169 562.842 354.524 571.799 348.061C580.756 341.598 593.683 314.725 594.675 304.293C595.668 293.86 598.618 275.436 598.618 275.436C598.618 275.436 591.216 283.401 570.324 283.401Z" fill="white" stroke="#263238" stroke-linecap="round" stroke-linejoin="round"/>
<path d="M549.405 216.73C549.405 216.73 545.436 249.073 548.922 267.98C552.409 286.887 565.335 294.343 585.744 288.362C606.153 282.382 616.586 261.007 616.586 261.007C616.586 261.007 631.014 262.509 634.501 253.552C637.987 244.594 633.991 235.637 627.018 236.12C620.046 236.602 612.59 252.559 607.628 250.065C602.667 247.571 603.23 229.147 605.215 222.683C607.199 216.22 596.418 210.588 578.396 207.102C560.374 203.615 552.623 204.42 551.148 205.439C549.673 206.458 549.405 216.73 549.405 216.73Z" fill="white" stroke="#263238" stroke-linecap="round" stroke-linejoin="round"/>
<path d="M570.297 232.365C570.297 232.365 569.305 241.832 566.837 243.817C564.37 245.801 559.865 247.303 562.842 249.18C564.99 250.44 567.355 251.286 569.814 251.674" stroke="#263238" stroke-linecap="round" stroke-linejoin="round"/>
<path d="M559.864 258.755C562.115 260.011 564.601 260.791 567.166 261.044C569.732 261.298 572.322 261.021 574.775 260.23C579.265 258.716 583.117 255.742 585.718 251.782" stroke="#263238" stroke-linecap="round" stroke-linejoin="round"/>
<path d="M583.733 234.859C583.607 235.374 583.337 235.843 582.956 236.212C582.575 236.581 582.097 236.834 581.578 236.944C581.059 237.053 580.52 237.013 580.022 236.83C579.525 236.646 579.089 236.325 578.766 235.905C578.443 235.485 578.245 234.981 578.195 234.453C578.145 233.925 578.245 233.394 578.484 232.92C578.722 232.447 579.09 232.05 579.544 231.776C579.998 231.503 580.521 231.363 581.051 231.373C581.863 231.493 582.596 231.923 583.097 232.574C583.597 233.224 583.825 234.044 583.733 234.859V234.859Z" fill="#263238"/>
<path d="M562.6 230.3C562.474 230.815 562.204 231.284 561.823 231.653C561.442 232.022 560.965 232.275 560.446 232.384C559.927 232.494 559.387 232.454 558.89 232.271C558.392 232.087 557.957 231.766 557.633 231.346C557.31 230.926 557.112 230.422 557.062 229.894C557.012 229.366 557.112 228.835 557.351 228.361C557.59 227.888 557.957 227.491 558.411 227.217C558.866 226.943 559.388 226.804 559.918 226.813C560.727 226.94 561.457 227.372 561.956 228.021C562.455 228.67 562.686 229.486 562.6 230.3Z" fill="#263238"/>
<path d="M553.776 219.197C553.776 219.197 556.27 208.47 565.389 215.067" stroke="#263238" stroke-linecap="round" stroke-linejoin="round"/>
<path d="M578.933 219.197C580.018 218.896 581.162 218.878 582.256 219.145C583.351 219.411 584.358 219.953 585.184 220.72C586.009 221.486 586.625 222.451 586.972 223.522C587.319 224.593 587.385 225.736 587.166 226.84" stroke="#263238" stroke-linecap="round" stroke-linejoin="round"/>
<path d="M550.907 207.289C550.907 207.289 553.884 186.371 559.864 177.923C565.845 169.475 587.219 164.514 611.115 173.954C635.01 183.394 640.964 196.83 638.953 209.274C636.92 219.16 633.929 228.825 630.022 238.131C630.022 238.131 615.084 220.216 600.655 214.236C586.227 208.255 550.907 207.289 550.907 207.289Z" fill="#7B73F1" stroke="#263238" stroke-linecap="round" stroke-linejoin="round"/>
<path d="M621.896 229.361C621.896 229.361 614.682 214.906 591.859 204.876C574.527 197.273 555.19 195.522 536.773 199.888C526.207 202.569 514.514 208.791 523.981 214.343C533.448 219.894 535.111 211.661 556.807 215.469C578.503 219.277 623.585 233.25 623.585 233.25L621.896 229.361Z" fill="#7B73F1" stroke="#263238" stroke-linecap="round" stroke-linejoin="round"/>
<path d="M551.792 214.343C551.792 214.343 522.291 207.102 521.192 211.017C520.092 214.933 534.547 219.921 551.792 214.343Z" fill="white" stroke="#263238" stroke-linecap="round" stroke-linejoin="round"/>
<path d="M586.737 411.755L575.795 377.91L494.695 371.447L525.536 469.952L605.134 484.38L586.737 411.755Z" fill="white" stroke="#263238" stroke-linecap="round" stroke-linejoin="round"/>
<path d="M497.564 414.33C497.564 414.33 500.649 423.234 505.288 425.942C509.928 428.651 511.108 425.165 508.399 421.303C506.724 419.143 505.294 416.805 504.135 414.33C503.784 413.776 503.299 413.32 502.725 413.004C502.15 412.688 501.505 412.522 500.85 412.522C500.194 412.522 499.549 412.688 498.975 413.004C498.4 413.32 497.915 413.776 497.564 414.33Z" fill="white" stroke="#263238" stroke-linecap="round" stroke-linejoin="round"/>
<path d="M496.009 407.732C496.009 407.732 495.607 413.928 498.315 416.261C501.024 418.594 512.663 421.303 513.039 418.192C513.414 415.081 513.817 415.108 506.468 412.828C502.693 411.8 499.145 410.072 496.009 407.732V407.732Z" fill="white" stroke="#263238" stroke-linecap="round" stroke-linejoin="round"/>
<path d="M495.607 394.564C495.607 394.564 490.243 404.648 492.12 407.357C493.998 410.066 511.51 413.928 513.039 411.997C514.567 410.066 510.357 404.246 506.468 401.913C502.58 399.58 495.607 394.564 495.607 394.564Z" fill="white" stroke="#263238" stroke-linecap="round" stroke-linejoin="round"/>
<path d="M499.871 388.369C499.871 388.369 491.343 389.147 491.343 393.733C491.343 398.319 506.469 408.081 508.775 405.748C511.081 403.415 509.955 401.859 506.469 397.702C504.093 394.72 501.89 391.604 499.871 388.369Z" fill="white" stroke="#263238" stroke-linecap="round" stroke-linejoin="round"/>
<path d="M552.409 377.427L542.835 375.926L541.735 364.635L526.824 362.06L530.793 374.048L520.548 372.439L526.529 388.369L555.386 392.339L552.409 377.427Z" fill="white" stroke="#263238" stroke-linecap="round" stroke-linejoin="round"/>
<path d="M595.694 406.204C588.375 404.473 580.899 403.493 573.381 403.281C568.634 403.281 548.869 410.173 552.275 411.541C555.681 412.908 569.304 411.541 571.343 411.541C573.436 411.771 575.497 412.239 577.484 412.935C577.484 412.935 565.228 414.303 562.493 415C559.757 415.698 548.869 419.13 551.604 421.195C554.34 423.26 565.228 421.893 565.228 421.893L576.787 422.59C571.621 423.779 566.392 424.674 561.125 425.272C557.719 425.272 559.757 429.402 563.807 429.402C567.856 429.402 580.139 430.796 580.139 430.796C580.139 430.796 567.883 433.478 567.213 436.294C566.542 439.11 577.431 437.689 580.837 436.294C584.242 434.9 596.499 428.034 599.207 427.337C601.916 426.64 608.755 424.655 608.755 424.655C608.755 424.655 633.938 435.678 641.42 441.175C648.902 446.673 655.044 452.895 667.3 452.895C679.556 452.895 681.621 442.57 681.621 434.283C681.621 425.996 668.668 420.498 657.779 419.13C646.891 417.763 622.379 410.173 614.869 409.476C608.423 408.736 602.021 407.644 595.694 406.204V406.204Z" fill="white" stroke="#263238" stroke-linecap="round" stroke-linejoin="round"/>
</svg>
