<svg width="87" height="63" viewBox="0 0 87 63" fill="none"
    xmlns="http://www.w3.org/2000/svg">
    <path d="M13.3728 56.3739C30.0121 65.0659 56.9878 65.0659 73.6271 56.3739C90.2664 47.6819 90.2644 33.5884 73.6271 24.8964C56.9897 16.2044 30.0121 16.2044 13.3728 24.8964C-3.26654 33.5884 -3.26455 47.6879 13.3728 56.3739Z" fill="#F5F5F5"/>
    <path d="M62.8856 41.5179C65.9041 42.9576 70.7992 42.9576 73.8077 41.5179C76.8163 40.0781 76.8262 37.7448 73.8077 36.307C70.7893 34.8693 65.8942 34.8693 62.8856 36.307C59.8771 37.7448 59.8671 40.0801 62.8856 41.5179Z" fill="#E0E0E0"/>
    <path d="M27.0056 8.42191C26.9823 8.42192 26.9598 8.41277 26.9431 8.39644C26.9264 8.38011 26.9168 8.35789 26.9163 8.33453V4.76003C26.9163 3.26866 27.7364 1.58268 28.7432 1.00282C29.1642 0.760548 29.5832 0.732746 29.9228 0.929344C30.3895 1.19743 30.6556 1.84481 30.6556 2.7027V6.25536C30.6559 6.26691 30.6538 6.27839 30.6495 6.28912C30.6452 6.29984 30.6388 6.30958 30.6306 6.31775C30.6224 6.32592 30.6127 6.33235 30.602 6.33664C30.5912 6.34094 30.5798 6.34301 30.5682 6.34274C30.5566 6.343 30.545 6.34094 30.5342 6.33667C30.5233 6.33239 30.5135 6.326 30.5051 6.31786C30.4968 6.30972 30.4902 6.3 30.4857 6.28926C30.4812 6.27853 30.4788 6.267 30.4789 6.25536V2.70865C30.4789 1.91432 30.2445 1.31857 29.8335 1.08821C29.5475 0.923385 29.202 0.949202 28.8405 1.16169C27.8834 1.71574 27.1029 3.33221 27.1029 4.76598V8.34049C27.1022 8.35234 27.0991 8.36392 27.0937 8.37452C27.0884 8.38511 27.0809 8.39451 27.0718 8.40213C27.0627 8.40975 27.0521 8.41543 27.0407 8.41884C27.0294 8.42224 27.0174 8.42328 27.0056 8.42191V8.42191Z" fill="#455A64"/>
    <path d="M37.3221 20.9843L36.9309 4.17818L34.0713 2.52994L33.7317 18.9131L37.3221 20.9843Z" fill="#3B3773"/>
    <g opacity="0.2">
        <path d="M37.3221 20.9843L36.9309 4.17818L34.0713 2.52994L33.7317 18.9131L37.3221 20.9843Z" fill="black"/>
    </g>
    <path d="M24.019 8.33454L23.6814 24.7157L33.7317 18.9131L34.0713 2.52994L24.019 8.33454Z" fill="#3B3773"/>
    <g opacity="0.4">
        <path d="M24.019 8.33454L23.6814 24.7157L33.7317 18.9131L34.0713 2.52994L24.019 8.33454Z" fill="black"/>
    </g>
    <path d="M26.8804 9.98078L27.2696 26.7869L37.3219 20.9843L36.9307 4.17816L26.8804 9.98078Z" fill="#3B3773"/>
    <path d="M24.019 8.33453L26.8806 9.98079L27.2698 26.7869L23.6814 24.7157L24.019 8.33453Z" fill="#3B3773"/>
    <g opacity="0.2">
        <path d="M24.019 8.33453L26.8806 9.98079L27.2698 26.7869L23.6814 24.7157L24.019 8.33453Z" fill="black"/>
    </g>
    <path opacity="0.2" d="M27.2698 26.7869L25.8182 24.2907L25.558 14.1272L25.2999 24.1418L23.6814 24.7157L27.2698 26.7869Z" fill="black"/>
    <g opacity="0.2">
        <path d="M29.8731 9.55981C29.7686 9.62791 29.6816 9.71967 29.6192 9.82766C29.5567 9.93565 29.5206 10.0568 29.5137 10.1814C29.5137 10.4097 29.6745 10.5051 29.8731 10.3919C29.9792 10.3226 30.0672 10.229 30.1297 10.1188C30.1922 10.0086 30.2275 9.88499 30.2325 9.75839C30.2325 9.53002 30.0717 9.4347 29.8731 9.55981Z" fill="black"/>
    </g>
    <g opacity="0.2">
        <path d="M33.4356 7.47666C33.3311 7.54476 33.2441 7.63653 33.1817 7.74451C33.1192 7.8525 33.0831 7.97367 33.0762 8.09822C33.0762 8.32858 33.237 8.42192 33.4356 8.30872C33.5397 8.2404 33.6264 8.14854 33.6885 8.04057C33.7506 7.93259 33.7864 7.81153 33.7931 7.68716C33.7931 7.4568 33.6342 7.36346 33.4356 7.47666Z" fill="black"/>
    </g>
    <path d="M29.8731 10.0543C29.86 10.0555 29.8468 10.0538 29.8344 10.0494C29.8221 10.0449 29.8109 10.0378 29.8016 10.0285C29.7923 10.0192 29.7851 10.008 29.7807 9.9956C29.7762 9.98323 29.7746 9.97004 29.7758 9.95696V6.38245C29.7758 4.89307 30.5959 3.20511 31.6008 2.62723C32.0237 2.38297 32.4428 2.35715 32.7804 2.55177C33.247 2.82184 33.5151 3.46922 33.5151 4.32711V7.89169C33.517 7.9044 33.5162 7.91738 33.5126 7.92973C33.509 7.94209 33.5029 7.95353 33.4945 7.96327C33.4861 7.97302 33.4757 7.98084 33.464 7.9862C33.4523 7.99156 33.4396 7.99433 33.4267 7.99433C33.4139 7.99433 33.4012 7.99156 33.3895 7.9862C33.3778 7.98084 33.3674 7.97302 33.359 7.96327C33.3506 7.95353 33.3444 7.94209 33.3409 7.92973C33.3373 7.91738 33.3365 7.9044 33.3384 7.89169V4.34101C33.3384 3.54667 33.104 2.95092 32.693 2.71858C32.407 2.55375 32.0595 2.57957 31.7001 2.79404C30.7429 3.3461 29.9624 4.96257 29.9624 6.39635V9.97086C29.9609 9.99351 29.9509 10.0147 29.9343 10.0302C29.9177 10.0457 29.8958 10.0543 29.8731 10.0543V10.0543Z" fill="#455A64"/>
    <path d="M14.2864 17.0464C14.2766 17.0467 14.2668 17.045 14.2577 17.0414C14.2485 17.0378 14.2402 17.0324 14.2332 17.0256C14.2261 17.0188 14.2205 17.0106 14.2167 17.0015C14.2129 16.9925 14.2109 16.9827 14.2109 16.9729V13.9942C14.2109 12.7451 14.898 11.3351 15.74 10.8486C15.8843 10.749 16.053 10.6906 16.2279 10.6797C16.4029 10.6689 16.5775 10.706 16.733 10.787C17.1301 11.0114 17.3486 11.5536 17.3486 12.2725V15.2512C17.3457 15.2689 17.3366 15.2849 17.3229 15.2965C17.3093 15.3081 17.292 15.3145 17.2741 15.3145C17.2562 15.3145 17.2389 15.3081 17.2252 15.2965C17.2116 15.2849 17.2025 15.2689 17.1996 15.2512V12.2725C17.1996 11.6072 17.001 11.1127 16.6595 10.9141C16.5269 10.8476 16.3786 10.8183 16.2307 10.8295C16.0827 10.8407 15.9406 10.8919 15.8195 10.9777C15.0251 11.4404 14.3658 12.7927 14.3658 13.9942V16.9729C14.3659 16.9831 14.3638 16.9932 14.3597 17.0025C14.3557 17.0118 14.3497 17.0202 14.3423 17.0271C14.3348 17.034 14.326 17.0393 14.3164 17.0426C14.3067 17.0459 14.2965 17.0472 14.2864 17.0464Z" fill="#455A64"/>
    <path d="M22.9267 27.5634L22.5991 13.4937L20.2041 12.1156L19.9202 25.8298L22.9267 27.5634Z" fill="#3B3773"/>
    <g opacity="0.2">
        <path d="M22.9267 27.5634L22.5991 13.4937L20.2041 12.1156L19.9202 25.8298L22.9267 27.5634Z" fill="black"/>
    </g>
    <path d="M11.7901 16.9729L11.5061 30.6871L19.9201 25.8298L20.2041 12.1156L11.7901 16.9729Z" fill="#3B3773"/>
    <g opacity="0.4">
        <path d="M11.7901 16.9729L11.5061 30.6871L19.9201 25.8298L20.2041 12.1156L11.7901 16.9729Z" fill="black"/>
    </g>
    <path d="M14.1851 18.3511L14.5107 32.4228L22.9267 27.5634L22.5991 13.4937L14.1851 18.3511Z" fill="#3B3773"/>
    <path d="M11.7901 16.9729L14.185 18.3511L14.5107 32.4228L11.5061 30.6871L11.7901 16.9729Z" fill="#3B3773"/>
    <g opacity="0.2">
        <path d="M11.7901 16.9729L14.185 18.3511L14.5107 32.4228L11.5061 30.6871L11.7901 16.9729Z" fill="black"/>
    </g>
    <path opacity="0.2" d="M14.5107 32.4228L13.2953 30.3317L13.0789 21.8243L12.8604 30.2066L11.5061 30.6871L14.5107 32.4228Z" fill="black"/>
    <g opacity="0.2">
        <path d="M16.689 17.9897C16.6018 18.0474 16.5293 18.1246 16.4772 18.2153C16.4252 18.306 16.395 18.4076 16.3892 18.5119C16.3892 18.7105 16.5242 18.782 16.689 18.6867C16.7772 18.6304 16.8507 18.5538 16.9032 18.4632C16.9557 18.3727 16.9858 18.2709 16.9909 18.1664C16.9909 17.9738 16.8558 17.9003 16.689 17.9897Z" fill="#455A64"/>
    </g>
    <g opacity="0.2">
        <path d="M19.6719 16.256C19.5845 16.3131 19.5118 16.3899 19.4597 16.4803C19.4076 16.5707 19.3776 16.6721 19.3721 16.7763C19.3721 16.9749 19.5071 17.0464 19.6719 16.9531C19.7595 16.8963 19.8324 16.8195 19.8845 16.729C19.9367 16.6386 19.9666 16.537 19.9718 16.4328C19.9718 16.2382 19.8467 16.1607 19.6719 16.256Z" fill="#455A64"/>
    </g>
    <path d="M16.6892 18.4127C16.6699 18.4122 16.6515 18.4043 16.6378 18.3906C16.6241 18.3769 16.6162 18.3585 16.6157 18.3392V15.3505C16.6157 14.1034 17.3008 12.6935 18.1448 12.2069C18.2889 12.1072 18.4575 12.0485 18.6325 12.0373C18.8074 12.0261 18.9821 12.0628 19.1377 12.1434C19.5349 12.3698 19.7514 12.9119 19.7514 13.6288V16.6075C19.7516 16.6173 19.7499 16.6269 19.7463 16.636C19.7427 16.645 19.7373 16.6532 19.7304 16.6601C19.7236 16.667 19.7154 16.6724 19.7063 16.676C19.6973 16.6796 19.6876 16.6813 19.6779 16.681C19.6584 16.681 19.6397 16.6733 19.6259 16.6595C19.6121 16.6457 19.6044 16.627 19.6044 16.6075V13.6288C19.6044 12.9655 19.4058 12.471 19.0623 12.2725C18.9303 12.205 18.7822 12.1752 18.6343 12.1864C18.4865 12.1976 18.3446 12.2494 18.2243 12.336C17.4299 12.7987 16.7706 14.1511 16.7706 15.3505V18.3392C16.7704 18.3495 16.768 18.3596 16.7638 18.3689C16.7595 18.3782 16.7534 18.3866 16.7457 18.3935C16.7381 18.4003 16.7292 18.4056 16.7194 18.4089C16.7097 18.4122 16.6994 18.4135 16.6892 18.4127V18.4127Z" fill="#455A64"/>
    <path d="M12.6738 39.5598L13.6786 39.0455C13.6786 39.0455 13.5098 37.1451 13.1683 35.2466C12.6976 32.6352 10.6006 30.0715 8.28708 30.149C5.97358 30.2264 6.5177 31.9581 7.56821 32.8437C8.23346 33.4057 11.9688 36.17 12.6738 39.5598Z" fill="#3B3773"/>
    <g opacity="0.1">
        <path d="M12.6738 39.5598L13.6786 39.0455C13.6786 39.0455 13.5098 37.1451 13.1683 35.2466C12.6976 32.6352 10.6006 30.0715 8.28708 30.149C5.97358 30.2264 6.5177 31.9581 7.56821 32.8437C8.23346 33.4057 11.9688 36.17 12.6738 39.5598Z" fill="black"/>
    </g>
    <path d="M13.1682 39.3474H13.1563C13.1232 39.3439 13.0929 39.3276 13.0717 39.3019C13.0506 39.2763 13.0403 39.2435 13.0431 39.2104C13.3112 36.5672 10.7375 31.8945 7.73295 30.7686C7.70189 30.757 7.6767 30.7335 7.66292 30.7033C7.64914 30.6732 7.6479 30.6388 7.65947 30.6077C7.67107 30.5766 7.69453 30.5515 7.72469 30.5377C7.75486 30.5239 7.78925 30.5227 7.82033 30.5342C10.9103 31.6959 13.5673 36.5037 13.2933 39.2441C13.2885 39.2736 13.2732 39.3003 13.2502 39.3193C13.2271 39.3383 13.198 39.3483 13.1682 39.3474Z" fill="white"/>
    <path d="M13.3747 41.7919L13.6785 39.7723C13.454 38.4602 12.7952 37.2615 11.8079 36.3686C10.1398 34.8395 7.7945 34.1584 6.22767 34.6231C4.66084 35.0877 4.88723 36.6268 6.26937 37.1471C7.65152 37.6673 9.5182 37.6435 11.234 38.839C12.4036 39.6711 13.4323 41.0889 13.3747 41.7919Z" fill="#3B3773"/>
    <path d="M13.492 40.5389C13.4629 40.5384 13.435 40.5278 13.4129 40.509C13.3908 40.4901 13.3759 40.4642 13.3708 40.4356C12.928 37.9454 9.0576 35.332 6.22182 35.608C6.20559 35.6099 6.18914 35.6086 6.17346 35.604C6.15777 35.5994 6.14319 35.5916 6.13057 35.5812C6.11795 35.5708 6.10757 35.558 6.10005 35.5435C6.09252 35.529 6.08801 35.5131 6.08678 35.4968C6.08486 35.4805 6.08623 35.4639 6.09081 35.4481C6.09539 35.4323 6.10309 35.4176 6.11346 35.4048C6.12383 35.3921 6.13665 35.3815 6.15117 35.3738C6.16569 35.366 6.18161 35.3613 6.19799 35.3598C9.19263 35.0619 13.1484 37.7428 13.6111 40.3919C13.6143 40.408 13.6142 40.4245 13.6109 40.4405C13.6076 40.4565 13.6011 40.4717 13.5919 40.4852C13.5826 40.4987 13.5708 40.5102 13.5571 40.5191C13.5433 40.528 13.5279 40.534 13.5118 40.5369L13.492 40.5389Z" fill="white"/>
    <path d="M55.6076 26.3659L51.0044 23.7089L45.1918 20.3528H45.1779C44.6557 20.0629 44.33 19.4254 44.33 18.5139C44.33 17.6402 44.0321 17.0186 43.5496 16.7128L47.5212 19.0044L48.1488 19.3658L53.9534 22.716L54.0169 22.7537C54.5154 23.0516 54.8232 23.6811 54.8232 24.5687C54.8232 25.4564 55.1171 26.0621 55.6076 26.3659Z" fill="#3B3773"/>
    <g opacity="0.1">
        <path d="M55.6076 26.3659L51.0044 23.7089L45.1918 20.3528H45.1779C44.6557 20.0629 44.33 19.4254 44.33 18.5139C44.33 17.6402 44.0321 17.0186 43.5496 16.7128L47.5212 19.0044L48.1488 19.3658L53.9534 22.716L54.0169 22.7537C54.5154 23.0516 54.8232 23.6811 54.8232 24.5687C54.8232 25.4564 55.1171 26.0621 55.6076 26.3659Z" fill="black"/>
    </g>
    <path d="M60.463 19.9001V21.3001C60.463 23.1012 59.2 25.2896 57.6412 26.1892C56.8726 26.634 56.1736 26.6817 55.6652 26.3997L55.6076 26.3659C55.1171 26.0621 54.8133 25.4386 54.8133 24.5608C54.8133 23.6831 54.5055 23.0436 54.0071 22.7458L53.9435 22.708L48.1389 19.3579C49.2113 18.2756 49.9738 16.6433 49.9738 15.2453V13.8552L60.463 19.9001Z" fill="#3B3773"/>
    <path d="M53.9475 22.708C53.4391 22.4399 52.756 22.4916 51.9934 22.9304C51.6292 23.1445 51.2953 23.4063 51.0005 23.7089C49.9282 24.7892 49.1676 26.4215 49.1676 27.8196C49.1676 29.6207 47.9026 31.8091 46.3437 32.7107L43.5199 34.3411L33.0366 28.2862L35.8605 26.6559C37.4194 25.7563 38.6843 23.5659 38.6843 21.7647C38.6843 19.9636 39.9473 17.7752 41.5082 16.8756C42.2747 16.4328 42.9718 16.3851 43.4801 16.6651L43.5477 16.7028L47.5193 18.9945L48.1469 19.3559L53.9475 22.708Z" fill="#3B3773"/>
    <g opacity="0.4">
        <path d="M53.9475 22.708C53.4391 22.4399 52.756 22.4916 51.9934 22.9304C51.6292 23.1445 51.2953 23.4063 51.0005 23.7089C49.9282 24.7892 49.1676 26.4215 49.1676 27.8196C49.1676 29.6207 47.9026 31.8091 46.3437 32.7107L43.5199 34.3411L33.0366 28.2862L35.8605 26.6559C37.4194 25.7563 38.6843 23.5659 38.6843 21.7647C38.6843 19.9636 39.9473 17.7752 41.5082 16.8756C42.2747 16.4328 42.9718 16.3851 43.4801 16.6651L43.5477 16.7028L47.5193 18.9945L48.1469 19.3559L53.9475 22.708Z" fill="white"/>
    </g>
    <path d="M45.9346 29.1302C45.869 28.6934 45.5136 28.5345 45.0846 28.7827L43.5238 29.6823L40.3464 31.5152C39.7659 31.8334 39.2067 32.189 38.6724 32.5796C37.8517 33.2843 37.0899 34.0547 36.3946 34.8832C35.0045 36.4719 33.6144 38.1956 32.2243 38.9979L25.0177 43.1582C24.7675 43.3215 24.5593 43.5414 24.4099 43.8002C24.2605 44.0589 24.1742 44.3492 24.1579 44.6476V47.3185C24.1579 47.8269 24.4895 48.0553 24.9165 47.8666C24.6592 47.9764 24.3811 48.0287 24.1015 48.0197C23.822 48.0108 23.5477 47.9409 23.298 47.815L13.7302 42.2884C13.48 42.1251 13.2718 41.9052 13.1224 41.6464C12.973 41.3877 12.8867 41.0974 12.8704 40.799V38.1281C12.8863 37.8297 12.9726 37.5392 13.122 37.2804C13.2714 37.0216 13.4798 36.8017 13.7302 36.6387L20.9368 32.4684C22.3269 31.6741 23.717 29.9424 25.1071 28.3558C25.8053 27.529 26.5697 26.7606 27.3928 26.0581C27.9267 25.6684 28.4852 25.3135 29.0649 24.9957L32.2422 23.1628L33.8011 22.2612C34.0676 22.126 34.3622 22.0556 34.661 22.0556C34.9598 22.0556 35.2544 22.126 35.5208 22.2612L45.0946 27.7898C45.3216 27.9409 45.5138 28.1386 45.6587 28.3697C45.8035 28.6008 45.8975 28.86 45.9346 29.1302V29.1302Z" fill="#455A64"/>
    <path d="M24.97 45.0507C24.97 45.0507 12.8703 38.1261 12.8723 38.0665C12.8723 38.0665 12.8723 38.1062 12.8723 38.1261V40.797C12.8883 41.0954 12.9745 41.3859 13.1239 41.6447C13.2733 41.9035 13.4817 42.1233 13.7322 42.2864L23.3059 47.815C23.5724 47.9502 23.867 48.0206 24.1658 48.0206C24.4646 48.0206 24.7592 47.9502 25.0256 47.815L25.4347 47.5787L24.97 45.0507Z" fill="#37474F"/>
    <path d="M45.0826 28.7807L40.3504 31.5152C39.7704 31.8334 39.2112 32.1883 38.6763 32.5776C36.5276 34.3133 34.379 37.7587 32.2303 38.9959L25.0237 43.1661C24.7733 43.3292 24.5648 43.5491 24.4154 43.8079C24.266 44.0667 24.1798 44.3571 24.1638 44.6555V47.3265C24.1638 47.8746 24.5491 48.097 25.0237 47.8229L45.0806 36.2415C45.3309 36.0782 45.5391 35.8583 45.6885 35.5995C45.8379 35.3408 45.9242 35.0505 45.9405 34.7521V29.2772C45.9445 28.7291 45.5592 28.5067 45.0826 28.7807Z" fill="#263238"/>
    <path d="M38.7378 30.5839C38.1573 30.9021 37.5981 31.2576 37.0637 31.6483C36.65 31.9895 36.258 32.3563 35.8901 32.7465C35.8095 32.8242 35.7065 32.8746 35.5957 32.8907C35.4849 32.9067 35.3718 32.8875 35.2725 32.8358L27.8911 28.5742C27.8476 28.553 27.8099 28.5214 27.7813 28.4823C27.7527 28.4432 27.7341 28.3977 27.727 28.3498C27.72 28.3019 27.7248 28.2529 27.7409 28.2073C27.757 28.1616 27.7841 28.1205 27.8196 28.0877C28.189 27.6975 28.5823 27.3308 28.9972 26.9895C29.5312 26.5997 30.0897 26.2449 30.6693 25.9271C31.5729 25.4028 32.5857 24.817 33.4991 24.2927C33.606 24.239 33.724 24.2109 33.8437 24.2109C33.9633 24.2109 34.0813 24.239 34.1882 24.2927L41.5676 28.5524C41.6087 28.5668 41.6443 28.5937 41.6695 28.6293C41.6947 28.6648 41.7083 28.7073 41.7083 28.7509C41.7083 28.7945 41.6947 28.8371 41.6695 28.8726C41.6443 28.9082 41.6087 28.9351 41.5676 28.9495L38.7378 30.5839Z" fill="#37474F"/>
    <path d="M34.1883 24.6522C34.0814 24.5982 33.9634 24.5701 33.8437 24.5701C33.724 24.5701 33.606 24.5982 33.4992 24.6522L30.6694 26.2885C30.0897 26.6063 29.5312 26.9612 28.9973 27.3509C28.5828 27.692 28.1895 28.0581 27.8197 28.4471L27.7839 28.4928C27.8135 28.5304 27.8499 28.562 27.8912 28.5861L35.2725 32.8477C35.3718 32.8994 35.4849 32.9186 35.5957 32.9026C35.7066 32.8866 35.8095 32.8361 35.8901 32.7584C36.2581 32.3682 36.6501 32.0014 37.0638 31.6602C37.5981 31.2695 38.1573 30.914 38.7378 30.5958L41.5676 28.9614L41.6014 28.9376L41.5676 28.9138L34.1883 24.6522Z" fill="white"/>
    <path d="M23.3577 45.9821C23.3577 46.2402 23.1591 46.3375 22.9268 46.2005L14.1077 41.1088C13.985 41.0318 13.8822 40.9269 13.8077 40.8027C13.7332 40.6784 13.689 40.5384 13.6787 40.3939C13.6787 40.1358 13.8773 40.0384 14.1077 40.1755L22.9268 45.2691C23.0495 45.3458 23.1525 45.4503 23.2274 45.5741C23.3023 45.698 23.3469 45.8377 23.3577 45.9821V45.9821Z" fill="#263238"/>
    <path d="M26.535 36.7856V36.4322L26.1259 36.4024L25.2085 35.8682C25.0752 35.8007 24.9279 35.7655 24.7785 35.7655C24.6291 35.7655 24.4819 35.8007 24.3486 35.8682L23.729 36.2256L23.4172 36.2018V36.5454C23.4204 36.5999 23.4385 36.6525 23.4697 36.6974C23.5009 36.7423 23.5439 36.7776 23.594 36.7995L24.7497 37.4668C24.883 37.5343 25.0303 37.5695 25.1797 37.5695C25.3291 37.5695 25.4763 37.5343 25.6096 37.4668L26.3642 37.0319C26.4124 37.0101 26.454 36.9761 26.485 36.9332C26.516 36.8904 26.5353 36.8402 26.541 36.7876L26.535 36.7856Z" fill="#E0E0E0"/>
    <path d="M25.2084 35.5187L26.3661 36.1859C26.418 36.2035 26.463 36.2369 26.4949 36.2814C26.5269 36.326 26.544 36.3794 26.544 36.4341C26.544 36.4889 26.5269 36.5423 26.4949 36.5868C26.463 36.6314 26.418 36.6648 26.3661 36.6824L25.6115 37.1173C25.4782 37.1848 25.331 37.22 25.1816 37.22C25.0322 37.22 24.8849 37.1848 24.7516 37.1173L23.5959 36.45C23.544 36.4324 23.4989 36.399 23.467 36.3545C23.4351 36.31 23.418 36.2566 23.418 36.2018C23.418 36.147 23.4351 36.0936 23.467 36.0491C23.4989 36.0046 23.544 35.9712 23.5959 35.9536L24.3485 35.5187C24.4818 35.4511 24.6291 35.416 24.7784 35.416C24.9278 35.416 25.0751 35.4511 25.2084 35.5187V35.5187Z" fill="#F5F5F5"/>
    <path d="M23.5105 35.0341V34.6806L23.1014 34.6508L22.176 34.1167C22.0427 34.0491 21.8954 34.0139 21.7461 34.0139C21.5967 34.0139 21.4494 34.0491 21.3161 34.1167L20.6965 34.4741L20.3848 34.4523V34.7938C20.3886 34.8482 20.4073 34.9005 20.4389 34.9449C20.4704 34.9894 20.5135 35.0244 20.5635 35.046L21.7192 35.7133C21.8522 35.7817 21.9996 35.8174 22.1492 35.8174C22.2987 35.8174 22.4461 35.7817 22.5791 35.7133L23.3317 35.2784C23.3805 35.2572 23.4228 35.2234 23.4542 35.1804C23.4856 35.1375 23.505 35.087 23.5105 35.0341V35.0341V35.0341Z" fill="#E0E0E0"/>
    <path d="M22.1759 33.7671L23.3317 34.4364C23.3835 34.454 23.4286 34.4874 23.4605 34.5319C23.4924 34.5764 23.5096 34.6298 23.5096 34.6846C23.5096 34.7394 23.4924 34.7928 23.4605 34.8373C23.4286 34.8818 23.3835 34.9152 23.3317 34.9328L22.579 35.3757C22.4458 35.4432 22.2985 35.4784 22.1491 35.4784C21.9997 35.4784 21.8524 35.4432 21.7192 35.3757L20.5634 34.7065C20.5115 34.6888 20.4665 34.6554 20.4346 34.6109C20.4027 34.5664 20.3855 34.513 20.3855 34.4582C20.3855 34.4034 20.4027 34.35 20.4346 34.3055C20.4665 34.261 20.5115 34.2276 20.5634 34.21L21.316 33.7751C21.4487 33.7063 21.5956 33.6698 21.745 33.6684C21.8944 33.667 22.042 33.7009 22.1759 33.7671V33.7671Z" fill="#F5F5F5"/>
    <path d="M29.5594 38.5312V38.1777L29.1622 38.1479L28.2348 37.6137C28.1016 37.5462 27.9543 37.511 27.8049 37.511C27.6555 37.511 27.5082 37.5462 27.375 37.6137L26.7574 37.9712L26.4436 37.9473V38.2909C26.4469 38.3454 26.4652 38.3979 26.4964 38.4428C26.5275 38.4876 26.5704 38.523 26.6203 38.5451L27.7781 39.2123C27.9113 39.2798 28.0586 39.315 28.208 39.315C28.3574 39.315 28.5047 39.2798 28.638 39.2123L29.3906 38.7774C29.439 38.7559 29.4808 38.722 29.5119 38.6791C29.5429 38.6362 29.5621 38.5859 29.5673 38.5332V38.5332L29.5594 38.5312Z" fill="#E0E0E0"/>
    <path d="M28.227 37.2642L29.3827 37.9314C29.4346 37.949 29.4796 37.9825 29.5115 38.027C29.5435 38.0715 29.5606 38.1249 29.5606 38.1797C29.5606 38.2345 29.5435 38.2879 29.5115 38.3324C29.4796 38.3769 29.4346 38.4103 29.3827 38.4279L28.6301 38.8628C28.4968 38.9303 28.3495 38.9655 28.2001 38.9655C28.0508 38.9655 27.9035 38.9303 27.7702 38.8628L26.6125 38.1956C26.5606 38.178 26.5155 38.1446 26.4836 38.1C26.4517 38.0555 26.4346 38.0021 26.4346 37.9473C26.4346 37.8926 26.4517 37.8392 26.4836 37.7946C26.5155 37.7501 26.5606 37.7167 26.6125 37.6991L27.3671 37.2642C27.5003 37.1967 27.6476 37.1615 27.797 37.1615C27.9464 37.1615 28.0937 37.1967 28.227 37.2642V37.2642Z" fill="#F5F5F5"/>
    <path d="M28.9555 35.3896V35.0361L28.5465 35.0063L27.6211 34.4721C27.4878 34.4046 27.3405 34.3694 27.1911 34.3694C27.0417 34.3694 26.8945 34.4046 26.7612 34.4721L26.1416 34.8296L25.8298 34.8057V35.1493C25.8332 35.2038 25.8514 35.2563 25.8826 35.3011C25.9138 35.346 25.9566 35.3814 26.0066 35.4035L27.1643 36.0707C27.2976 36.1382 27.4449 36.1734 27.5942 36.1734C27.7436 36.1734 27.8909 36.1382 28.0242 36.0707L28.7768 35.6358C28.8251 35.614 28.867 35.58 28.8983 35.5372C28.9296 35.4944 28.9493 35.4442 28.9555 35.3916V35.3916V35.3896Z" fill="#E0E0E0"/>
    <path d="M27.6211 34.1226L28.7768 34.7899C28.8287 34.8075 28.8738 34.8409 28.9057 34.8854C28.9376 34.9299 28.9547 34.9833 28.9547 35.0381C28.9547 35.0929 28.9376 35.1463 28.9057 35.1908C28.8738 35.2353 28.8287 35.2687 28.7768 35.2863L28.0242 35.7212C27.8909 35.7888 27.7436 35.8239 27.5943 35.8239C27.4449 35.8239 27.2976 35.7888 27.1643 35.7212L26.0026 35.054C25.9507 35.0364 25.9057 35.003 25.8738 34.9585C25.8419 34.9139 25.8247 34.8605 25.8247 34.8058C25.8247 34.751 25.8419 34.6976 25.8738 34.6531C25.9057 34.6085 25.9507 34.5751 26.0026 34.5575L26.7572 34.1226C26.891 34.0545 27.039 34.0189 27.1891 34.0189C27.3393 34.0189 27.4873 34.0545 27.6211 34.1226V34.1226Z" fill="#F5F5F5"/>
    <path d="M25.9311 33.6381V33.2846L25.522 33.2548L24.5966 32.7206C24.4634 32.6531 24.3161 32.6179 24.1667 32.6179C24.0173 32.6179 23.87 32.6531 23.7368 32.7206L23.1172 33.0781L22.8054 33.0562V33.3899C22.8085 33.4444 22.8267 33.497 22.8579 33.5419C22.8891 33.5868 22.9321 33.6221 22.9822 33.644L24.1399 34.3113C24.2732 34.3788 24.4205 34.414 24.5698 34.414C24.7192 34.414 24.8665 34.3788 24.9998 34.3113L25.7524 33.8764C25.8009 33.8551 25.8429 33.8212 25.874 33.7783C25.905 33.7353 25.9241 33.6849 25.9291 33.6321V33.6321L25.9311 33.6381Z" fill="#E0E0E0"/>
    <path d="M24.5967 32.3711L25.7524 33.0403C25.8043 33.0579 25.8493 33.0913 25.8813 33.1359C25.9132 33.1804 25.9303 33.2338 25.9303 33.2886C25.9303 33.3433 25.9132 33.3967 25.8813 33.4413C25.8493 33.4858 25.8043 33.5192 25.7524 33.5368L25.0097 33.9717C24.8765 34.0392 24.7292 34.0744 24.5798 34.0744C24.4304 34.0744 24.2831 34.0392 24.1499 33.9717L22.9921 33.3025C22.9402 33.2849 22.8952 33.2515 22.8633 33.2069C22.8314 33.1624 22.8142 33.109 22.8142 33.0542C22.8142 32.9995 22.8314 32.9461 22.8633 32.9015C22.8952 32.857 22.9402 32.8236 22.9921 32.806L23.7467 32.3711C23.8787 32.3052 24.0242 32.2709 24.1717 32.2709C24.3192 32.2709 24.4647 32.3052 24.5967 32.3711V32.3711Z" fill="#F5F5F5"/>
    <path d="M31.98 37.1352V36.7817L31.5709 36.7519L30.6455 36.2177C30.5122 36.1502 30.3649 36.115 30.2155 36.115C30.0662 36.115 29.9189 36.1502 29.7856 36.2177L29.166 36.5751L28.8542 36.5513V36.8949C28.8582 36.9495 28.8769 37.002 28.9084 37.0467C28.9399 37.0915 28.9829 37.1269 29.033 37.1491L30.1887 37.8163C30.322 37.8838 30.4693 37.919 30.6187 37.919C30.7681 37.919 30.9153 37.8838 31.0486 37.8163L31.8032 37.3814C31.8514 37.3596 31.893 37.3256 31.924 37.2827C31.955 37.2399 31.9743 37.1897 31.98 37.1371V37.1352Z" fill="#E0E0E0"/>
    <path d="M30.6456 35.8682L31.8034 36.5354C31.8552 36.553 31.9003 36.5864 31.9322 36.631C31.9641 36.6755 31.9813 36.7289 31.9813 36.7837C31.9813 36.8384 31.9641 36.8918 31.9322 36.9364C31.9003 36.9809 31.8552 37.0143 31.8034 37.0319L31.0488 37.4668C30.9155 37.5343 30.7682 37.5695 30.6188 37.5695C30.4694 37.5695 30.3221 37.5343 30.1889 37.4668L29.0331 36.7995C28.9813 36.7819 28.9362 36.7485 28.9043 36.704C28.8724 36.6595 28.8552 36.6061 28.8552 36.5513C28.8552 36.4965 28.8724 36.4431 28.9043 36.3986C28.9362 36.3541 28.9813 36.3207 29.0331 36.3031L29.7858 35.8682C29.919 35.8007 30.0663 35.7655 30.2157 35.7655C30.3651 35.7655 30.5124 35.8007 30.6456 35.8682Z" fill="#F5F5F5"/>
    <path d="M24.1162 38.1876V37.8342L23.7071 37.8044L22.7817 37.2702C22.6487 37.2017 22.5013 37.166 22.3518 37.166C22.2022 37.166 22.0548 37.2017 21.9218 37.2702L21.3023 37.6276L20.9905 37.6038V37.9573C20.9942 38.0117 21.0127 38.064 21.0438 38.1088C21.0749 38.1535 21.1176 38.189 21.1672 38.2115L22.325 38.8787C22.4582 38.9462 22.6055 38.9814 22.7549 38.9814C22.9043 38.9814 23.0516 38.9462 23.1848 38.8787L23.9375 38.4438C23.9858 38.4219 24.0276 38.388 24.0589 38.3452C24.0902 38.3024 24.11 38.2522 24.1162 38.1996V38.1996V38.1876Z" fill="#E0E0E0"/>
    <path d="M22.7816 36.9207L23.9374 37.5879C23.9893 37.6055 24.0343 37.6389 24.0662 37.6834C24.0981 37.728 24.1153 37.7814 24.1153 37.8361C24.1153 37.8909 24.0981 37.9443 24.0662 37.9888C24.0343 38.0334 23.9893 38.0668 23.9374 38.0844L23.1848 38.5193C23.0515 38.5868 22.9042 38.622 22.7548 38.622C22.6054 38.622 22.4582 38.5868 22.3249 38.5193L21.1672 37.852C21.1153 37.8344 21.0702 37.801 21.0383 37.7565C21.0064 37.712 20.9893 37.6586 20.9893 37.6038C20.9893 37.549 21.0064 37.4956 21.0383 37.4511C21.0702 37.4066 21.1153 37.3732 21.1672 37.3556L21.9218 36.9207C22.055 36.8531 22.2023 36.818 22.3517 36.818C22.5011 36.818 22.6484 36.8531 22.7816 36.9207Z" fill="#F5F5F5"/>
    <path d="M21.0897 36.4361V36.0826L20.6925 36.0528L19.7651 35.5187C19.6318 35.4511 19.4846 35.416 19.3352 35.416C19.1858 35.416 19.0385 35.4511 18.9052 35.5187L18.2876 35.8761L17.9739 35.8523V36.1958C17.9772 36.2503 17.9955 36.3029 18.0266 36.3477C18.0578 36.3925 18.1007 36.4279 18.1506 36.45L19.3084 37.1173C19.4416 37.1848 19.5889 37.22 19.7383 37.22C19.8877 37.22 20.035 37.1848 20.1682 37.1173L20.9209 36.6824C20.9693 36.6609 21.0111 36.627 21.0422 36.5841C21.0732 36.5412 21.0923 36.4908 21.0976 36.4381V36.4381L21.0897 36.4361Z" fill="#E0E0E0"/>
    <path d="M19.7552 35.1771L20.913 35.8443C20.9649 35.8619 21.0099 35.8954 21.0418 35.9399C21.0737 35.9844 21.0909 36.0378 21.0909 36.0926C21.0909 36.1474 21.0737 36.2008 21.0418 36.2453C21.0099 36.2898 20.9649 36.3232 20.913 36.3408L20.1604 36.7658C20.0271 36.8333 19.8798 36.8685 19.7304 36.8685C19.581 36.8685 19.4337 36.8333 19.3005 36.7658L18.1427 36.0985C18.0909 36.0809 18.0458 36.0475 18.0139 36.003C17.982 35.9585 17.9648 35.9051 17.9648 35.8503C17.9648 35.7955 17.982 35.7421 18.0139 35.6976C18.0458 35.6531 18.0909 35.6197 18.1427 35.6021L18.8954 35.1672C19.0294 35.1012 19.1771 35.0677 19.3265 35.0694C19.4759 35.0712 19.6228 35.108 19.7552 35.1771Z" fill="#F5F5F5"/>
    <path d="M27.1406 39.9431V39.5896L26.7315 39.5599L25.8041 39.0157C25.6711 38.9473 25.5237 38.9116 25.3742 38.9116C25.2246 38.9116 25.0772 38.9473 24.9442 39.0157L24.3247 39.3732L24.0168 39.3474V39.6909C24.021 39.7455 24.0398 39.7978 24.0713 39.8426C24.1027 39.8873 24.1457 39.9227 24.1956 39.9451L25.3513 40.6123C25.4846 40.6799 25.6319 40.7151 25.7813 40.7151C25.9306 40.7151 26.0779 40.6799 26.2112 40.6123L26.9638 40.1774C27.0121 40.1556 27.054 40.1216 27.0853 40.0788C27.1166 40.036 27.1363 39.9859 27.1426 39.9332V39.9332L27.1406 39.9431Z" fill="#E0E0E0"/>
    <path d="M25.8042 38.6662L26.9599 39.3335C27.0118 39.3511 27.0569 39.3845 27.0888 39.429C27.1207 39.4735 27.1378 39.5269 27.1378 39.5817C27.1378 39.6365 27.1207 39.6899 27.0888 39.7344C27.0569 39.7789 27.0118 39.8123 26.9599 39.8299L26.2013 40.2648C26.0681 40.3324 25.9208 40.3675 25.7714 40.3675C25.622 40.3675 25.4747 40.3324 25.3415 40.2648L24.1857 39.5976C24.1338 39.58 24.0888 39.5466 24.0569 39.5021C24.025 39.4575 24.0078 39.4041 24.0078 39.3494C24.0078 39.2946 24.025 39.2412 24.0569 39.1967C24.0888 39.1521 24.1338 39.1187 24.1857 39.1011L24.9383 38.6662C25.0724 38.5977 25.2207 38.562 25.3713 38.562C25.5218 38.562 25.6701 38.5977 25.8042 38.6662V38.6662Z" fill="#F5F5F5"/>
    <path d="M21.6933 39.5817V39.2282L21.2843 39.1984L20.3589 38.6622C20.2256 38.5947 20.0783 38.5595 19.9289 38.5595C19.7795 38.5595 19.6322 38.5947 19.499 38.6622L18.8794 39.0197L18.5676 38.9979V39.3474C18.5715 39.4017 18.5902 39.454 18.6217 39.4985C18.6532 39.5429 18.6963 39.5779 18.7464 39.5996L19.9021 40.2688C20.0354 40.3363 20.1827 40.3715 20.332 40.3715C20.4814 40.3715 20.6287 40.3363 20.762 40.2688L21.5166 39.8339C21.565 39.8119 21.6069 39.7776 21.6379 39.7344C21.6689 39.6912 21.688 39.6406 21.6933 39.5876V39.5817Z" fill="#E0E0E0"/>
    <path d="M20.359 38.3127L21.5167 38.982C21.5686 38.9996 21.6137 39.033 21.6456 39.0775C21.6775 39.122 21.6946 39.1754 21.6946 39.2302C21.6946 39.285 21.6775 39.3384 21.6456 39.3829C21.6137 39.4274 21.5686 39.4608 21.5167 39.4784L20.7621 39.9133C20.6289 39.9808 20.4816 40.016 20.3322 40.016C20.1828 40.016 20.0355 39.9808 19.9023 39.9133L18.7465 39.2461C18.6946 39.2285 18.6496 39.1951 18.6177 39.1505C18.5858 39.106 18.5686 39.0526 18.5686 38.9978C18.5686 38.9431 18.5858 38.8897 18.6177 38.8451C18.6496 38.8006 18.6946 38.7672 18.7465 38.7496L19.4991 38.3127C19.6324 38.2452 19.7797 38.21 19.9291 38.21C20.0785 38.21 20.2257 38.2452 20.359 38.3127Z" fill="#F5F5F5"/>
    <path d="M18.6689 37.8302V37.4767L18.2598 37.4469L17.3344 36.9127C17.2012 36.8452 17.0539 36.81 16.9045 36.81C16.7551 36.81 16.6078 36.8452 16.4746 36.9127L15.855 37.2702L15.5432 37.2464V37.5899C15.5465 37.6444 15.5648 37.6969 15.596 37.7418C15.6271 37.7866 15.67 37.822 15.72 37.8441L16.8777 38.5113C17.011 38.5789 17.1582 38.614 17.3076 38.614C17.457 38.614 17.6043 38.5789 17.7376 38.5113L18.4902 38.0764C18.5385 38.0546 18.5803 38.0206 18.6117 37.9778C18.643 37.935 18.6627 37.8848 18.6689 37.8322V37.8322V37.8302Z" fill="#E0E0E0"/>
    <path d="M17.3346 36.5672L18.4904 37.2344C18.5423 37.252 18.5873 37.2854 18.6192 37.33C18.6511 37.3745 18.6683 37.4279 18.6683 37.4827C18.6683 37.5374 18.6511 37.5908 18.6192 37.6354C18.5873 37.6799 18.5423 37.7133 18.4904 37.7309L17.7377 38.1559C17.6045 38.2234 17.4572 38.2586 17.3078 38.2586C17.1584 38.2586 17.0111 38.2234 16.8779 38.1559L15.7201 37.4886C15.6683 37.471 15.6232 37.4376 15.5913 37.3931C15.5594 37.3486 15.5422 37.2952 15.5422 37.2404C15.5422 37.1856 15.5594 37.1322 15.5913 37.0877C15.6232 37.0432 15.6683 37.0098 15.7201 36.9922L16.4708 36.5672C16.6046 36.499 16.7526 36.4635 16.9027 36.4635C17.0528 36.4635 17.2009 36.499 17.3346 36.5672V36.5672Z" fill="#F5F5F5"/>
    <path d="M24.7178 41.3332V40.9797L24.3107 40.9499L23.3833 40.4138C23.25 40.3462 23.1027 40.3111 22.9533 40.3111C22.8039 40.3111 22.6567 40.3462 22.5234 40.4138L21.9038 40.7712L21.592 40.7494V41.0929C21.5955 41.1471 21.6138 41.1994 21.645 41.2438C21.6762 41.2883 21.719 41.3234 21.7688 41.3451L22.9245 42.0144C23.0578 42.0819 23.2051 42.1171 23.3545 42.1171C23.5039 42.1171 23.6511 42.0819 23.7844 42.0144L24.539 41.5795C24.5877 41.5578 24.6297 41.5236 24.6608 41.4803C24.6919 41.437 24.7108 41.3863 24.7158 41.3332H24.7178Z" fill="#E0E0E0"/>
    <path d="M23.3834 40.0583L24.5412 40.7275C24.593 40.7451 24.6381 40.7785 24.67 40.8231C24.7019 40.8676 24.7191 40.921 24.7191 40.9758C24.7191 41.0305 24.7019 41.0839 24.67 41.1285C24.6381 41.173 24.593 41.2064 24.5412 41.224L23.7865 41.6589C23.6533 41.7264 23.506 41.7616 23.3566 41.7616C23.2072 41.7616 23.0599 41.7264 22.9267 41.6589L21.7709 40.9916C21.719 40.974 21.674 40.9406 21.6421 40.8961C21.6102 40.8516 21.593 40.7982 21.593 40.7434C21.593 40.6886 21.6102 40.6352 21.6421 40.5907C21.674 40.5462 21.719 40.5128 21.7709 40.4952L22.5236 40.0583C22.6568 39.9908 22.8041 39.9556 22.9535 39.9556C23.1029 39.9556 23.2502 39.9908 23.3834 40.0583V40.0583Z" fill="#F5F5F5"/>
    <path d="M27.9131 31.2293L27.8396 30.9254L27.5338 30.8996L26.5409 30.3217C26.0663 30.0477 25.4367 30.1053 25.1309 30.4429C25.066 30.5138 25.0184 30.5987 24.9919 30.6911H24.9045L24.982 31.0128C25.0164 31.1269 25.0733 31.233 25.1493 31.3248C25.2254 31.4165 25.3191 31.4921 25.4248 31.547L26.6441 32.25C26.7431 32.3029 26.8565 32.3228 26.9676 32.3067C27.0787 32.2907 27.1818 32.2395 27.2617 32.1606C27.4537 31.9554 27.6463 31.7436 27.8396 31.5252C27.8757 31.486 27.9013 31.4383 27.9142 31.3866C27.927 31.3349 27.9266 31.2808 27.9131 31.2293Z" fill="#E0E0E0"/>
    <path d="M26.5668 31.9422L25.3474 31.2392C24.8728 30.9651 24.7517 30.4766 25.0516 30.139C25.3514 29.8014 25.9869 29.7419 26.4615 30.0179L27.6808 30.7209C27.7242 30.7434 27.7617 30.7757 27.7904 30.8152C27.8191 30.8548 27.8382 30.9005 27.8461 30.9487C27.854 30.9969 27.8505 31.0463 27.836 31.0929C27.8214 31.1396 27.7962 31.1822 27.7622 31.2173C27.5689 31.4358 27.3763 31.6476 27.1843 31.8528C27.1046 31.9319 27.0015 31.9833 26.8903 31.9994C26.7791 32.0155 26.6657 31.9954 26.5668 31.9422V31.9422Z" fill="#F5F5F5"/>
    <path d="M34.1448 35.0222L34.0713 34.7144H33.9839C33.9008 34.6153 33.8006 34.5319 33.688 34.4682L32.4707 33.7652C32.3726 33.7127 32.2599 33.6939 32.15 33.7119C32.0402 33.7298 31.9393 33.7834 31.863 33.8645C31.6644 34.077 31.4837 34.2875 31.2951 34.49L31.1223 34.4761L31.1998 34.7958C31.2101 34.8377 31.2291 34.877 31.2554 34.9112C31.2817 34.9453 31.3148 34.9737 31.3527 34.9944L32.57 35.6974C33.0446 35.9714 33.688 35.9278 33.9958 35.5902C34.0676 35.5164 34.119 35.4253 34.1451 35.3258C34.1712 35.2263 34.1711 35.1217 34.1448 35.0222V35.0222Z" fill="#E0E0E0"/>
    <path d="M32.5022 35.3757L31.2849 34.6727C31.2417 34.6511 31.2044 34.6194 31.1761 34.5803C31.1478 34.5412 31.1293 34.4958 31.1223 34.4481C31.1153 34.4003 31.1199 34.3515 31.1358 34.3059C31.1517 34.2603 31.1783 34.2193 31.2134 34.1862C31.4054 33.9796 31.598 33.7678 31.7913 33.5507C31.8676 33.4697 31.9685 33.416 32.0783 33.3981C32.1882 33.3801 32.3009 33.3989 32.399 33.4514L33.6163 34.1544C34.0929 34.4284 34.2339 34.9308 33.9281 35.2684C33.6223 35.606 32.9788 35.6457 32.5022 35.3757Z" fill="#F5F5F5"/>
    <path d="M31.0944 33.0959L31.021 32.7961L30.7886 32.7802L29.329 31.9382C29.2066 31.8727 29.066 31.8493 28.9289 31.8716C28.7919 31.8938 28.6659 31.9605 28.5704 32.0613C28.4215 32.2281 28.2745 32.391 28.1256 32.5518C28.1119 32.5682 28.0993 32.5854 28.0879 32.6035H27.9409L28.0164 32.9172C28.0297 32.9707 28.0543 33.0207 28.0885 33.0639C28.1228 33.107 28.1659 33.1424 28.215 33.1674L29.7778 34.069C29.9013 34.1353 30.0427 34.1602 30.1814 34.1402C30.32 34.1202 30.4487 34.0563 30.5483 33.9578C30.6973 33.7989 30.8462 33.6341 30.9932 33.4693C31.0405 33.4208 31.0746 33.3611 31.0923 33.2958C31.11 33.2304 31.1108 33.1616 31.0944 33.0959Z" fill="#E0E0E0"/>
    <path d="M30.9217 33.1555C30.7748 33.3203 30.6258 33.4852 30.4789 33.644C30.3787 33.7424 30.2498 33.8062 30.1109 33.8262C29.9719 33.8462 29.8302 33.8214 29.7064 33.7552L28.1435 32.8537C28.0897 32.8266 28.0433 32.7869 28.008 32.7381C27.9727 32.6893 27.9498 32.6326 27.941 32.5731C27.9322 32.5135 27.938 32.4526 27.9576 32.3957C27.9773 32.3388 28.0105 32.2874 28.0542 32.246C28.2031 32.0851 28.3501 31.9223 28.499 31.7555C28.5945 31.6547 28.7204 31.588 28.8575 31.5658C28.9946 31.5435 29.1351 31.5669 29.2576 31.6324L30.8205 32.534C30.874 32.5628 30.9203 32.6036 30.9556 32.6531C30.9909 32.7027 31.0144 32.7597 31.0242 32.8198C31.034 32.8799 31.0298 32.9414 31.0121 32.9996C30.9943 33.0578 30.9634 33.1111 30.9217 33.1555V33.1555Z" fill="#F5F5F5"/>
    <path d="M76.0359 24.8329L71.3911 22.15L71.0535 29.9881L76.0359 32.8775V24.8329Z" fill="#3B3773"/>
    <path d="M76.0359 32.8775L78.3573 31.5371L76.9653 24.2967L76.0359 24.8329V32.8775Z" fill="#37474F"/>
    <path d="M78.3573 31.5371L76.8421 31.3405L76.0359 32.8775L78.3573 31.5371Z" fill="#37474F"/>
    <path d="M78.3573 31.5371L76.8421 31.3405L76.0359 32.8775L78.3573 31.5371Z" fill="#37474F"/>
    <path d="M78.3573 31.5371L76.8421 31.3405L76.0359 32.8775L78.3573 31.5371Z" fill="#3B3773"/>
    <path opacity="0.1" d="M78.3573 31.5371L76.8421 31.3405L76.0359 32.8775L78.3573 31.5371Z" fill="black"/>
    <path d="M76.8421 31.3405L76.0359 24.2967V24.8329V32.8775L76.8421 31.3405Z" fill="#3B3773"/>
    <path opacity="0.2" d="M76.8421 31.3405L76.0359 24.2967V24.8329V32.8775L76.8421 31.3405Z" fill="black"/>
    <path d="M71.3909 22.15L72.2031 22.0904L72.3202 21.6138L76.9651 24.2967H76.0357V24.8329L71.3909 22.15Z" fill="#3B3773"/>
    <path opacity="0.2" d="M71.3909 22.15L72.2031 22.0904L72.3202 21.6138L76.9651 24.2967H76.0357V24.8329L71.3909 22.15Z" fill="black"/>
    <path d="M74.5187 24.4993C74.5187 24.5668 74.4691 24.5966 74.4095 24.5608C74.3782 24.5403 74.3522 24.5127 74.3336 24.4803C74.315 24.4479 74.3042 24.4115 74.3022 24.3742C74.3022 24.3047 74.3499 24.2769 74.4095 24.3106C74.4413 24.3312 74.4677 24.3591 74.4867 24.3918C74.5057 24.4246 74.5167 24.4614 74.5187 24.4993Z" fill="#3B3773"/>
    <path opacity="0.3" d="M74.5187 24.4993C74.5187 24.5668 74.4691 24.5966 74.4095 24.5608C74.3782 24.5403 74.3522 24.5127 74.3336 24.4803C74.315 24.4479 74.3042 24.4115 74.3022 24.3742C74.3022 24.3047 74.3499 24.2769 74.4095 24.3106C74.4413 24.3312 74.4677 24.3591 74.4867 24.3918C74.5057 24.4246 74.5167 24.4614 74.5187 24.4993Z" fill="black"/>
    <path d="M73.1405 23.6811C73.1405 23.7506 73.0909 23.7784 73.0313 23.7447C72.9984 23.723 72.9714 23.6935 72.9527 23.6589C72.934 23.6242 72.9241 23.5855 72.9241 23.5461C72.9241 23.4786 72.9717 23.4488 73.0313 23.4845C73.0642 23.5059 73.0913 23.535 73.1103 23.5692C73.1294 23.6035 73.1397 23.6419 73.1405 23.6811Z" fill="#3B3773"/>
    <path opacity="0.3" d="M73.1405 23.6811C73.1405 23.7506 73.0909 23.7784 73.0313 23.7447C72.9984 23.723 72.9714 23.6935 72.9527 23.6589C72.934 23.6242 72.9241 23.5855 72.9241 23.5461C72.9241 23.4786 72.9717 23.4488 73.0313 23.4845C73.0642 23.5059 73.0913 23.535 73.1103 23.5692C73.1294 23.6035 73.1397 23.6419 73.1405 23.6811Z" fill="black"/>
    <g style="mix-blend-mode:multiply">
        <path d="M75.4501 23.9492C75.4501 24.0187 75.4005 24.0465 75.3409 24.0127C75.3093 23.992 75.2832 23.9641 75.2645 23.9313C75.2459 23.8985 75.2353 23.8618 75.2336 23.8241C75.2336 23.7566 75.2813 23.7288 75.3409 23.7625C75.3724 23.7829 75.3987 23.8104 75.4177 23.8429C75.4366 23.8753 75.4477 23.9117 75.4501 23.9492V23.9492Z" fill="#3B3773"/>
    </g>
    <g style="mix-blend-mode:multiply" opacity="0.2">
        <path d="M75.4501 23.9492C75.4501 24.0187 75.4005 24.0465 75.3409 24.0127C75.3093 23.992 75.2832 23.9641 75.2645 23.9313C75.2459 23.8985 75.2353 23.8618 75.2336 23.8241C75.2336 23.7566 75.2813 23.7288 75.3409 23.7625C75.3724 23.7829 75.3987 23.8104 75.4177 23.8429C75.4366 23.8753 75.4477 23.9117 75.4501 23.9492V23.9492Z" fill="black"/>
    </g>
    <g style="mix-blend-mode:multiply">
        <path d="M74.06 23.133C74.06 23.2025 74.0103 23.2303 73.9507 23.1965C73.9192 23.1758 73.893 23.1479 73.8744 23.1151C73.8558 23.0823 73.8452 23.0456 73.8435 23.0079C73.8435 22.9404 73.8912 22.9106 73.9507 22.9463C73.9823 22.9667 74.0086 22.9943 74.0275 23.0267C74.0465 23.0591 74.0576 23.0955 74.06 23.133V23.133Z" fill="#3B3773"/>
    </g>
    <g style="mix-blend-mode:multiply" opacity="0.2">
        <path d="M74.06 23.133C74.06 23.2025 74.0103 23.2303 73.9507 23.1965C73.9192 23.1758 73.893 23.1479 73.8744 23.1151C73.8558 23.0823 73.8452 23.0456 73.8435 23.0079C73.8435 22.9404 73.8912 22.9106 73.9507 22.9463C73.9823 22.9667 74.0086 22.9943 74.0275 23.0267C74.0465 23.0591 74.0576 23.0955 74.06 23.133V23.133Z" fill="black"/>
    </g>
    <path d="M76.9653 24.2967H76.0359L76.8421 31.3405L78.3573 31.5371L76.9653 24.2967Z" fill="#3B3773"/>
    <path d="M72.3203 21.6138L72.2031 22.0904L72.3203 22.6862L72.5546 22.8232L72.3203 21.6138Z" fill="#3B3773"/>
    <path d="M70.7576 8.59668C71.403 8.59668 72.7017 8.80718 73.3749 11.7581C73.5278 12.4274 73.6549 13.1582 73.7721 14.0975C73.9528 15.4875 74.1692 16.6354 74.34 17.95C74.3639 18.1327 74.4512 18.6708 74.4731 18.8376C74.5962 19.7293 74.8444 20.2873 74.8444 20.9645C74.7431 21.3736 74.5068 21.8263 73.5933 21.9197C72.7355 21.6436 72.9023 21.5106 72.8824 20.7421C72.8626 19.9735 73.1028 19.7968 73.0254 18.8813C72.6957 16.7108 72.0464 13.0112 72.0464 13.0112L70.7576 8.59668Z" fill="#FFA8A7"/>
    <path d="M75.3309 23.9492C75.3162 23.949 75.3021 23.9437 75.2909 23.9343C75.2797 23.9249 75.272 23.9119 75.2693 23.8975C75.2693 23.8975 75.1085 22.9424 74.9099 22.2235C74.751 21.6535 74.3459 21.5046 73.9884 21.3735C73.909 21.3457 73.8335 21.3179 73.768 21.2882C73.7606 21.2849 73.7538 21.2802 73.7482 21.2744C73.7425 21.2685 73.7381 21.2616 73.7352 21.2541C73.7322 21.2465 73.7308 21.2384 73.731 21.2303C73.7312 21.2222 73.7329 21.2142 73.7362 21.2067C73.7395 21.1993 73.7442 21.1925 73.75 21.1869C73.7559 21.1813 73.7628 21.1768 73.7703 21.1739C73.7779 21.1709 73.786 21.1695 73.7941 21.1697C73.8022 21.1699 73.8102 21.1717 73.8177 21.175C73.8832 21.2047 73.9547 21.2306 74.0301 21.2584C74.3975 21.3914 74.8523 21.5582 75.0231 22.1897C75.2216 22.9165 75.3865 23.8678 75.3885 23.8777C75.3908 23.894 75.3867 23.9105 75.3771 23.9238C75.3674 23.9372 75.353 23.9463 75.3368 23.9492H75.3309Z" fill="#455A64"/>
    <path d="M74.4093 20.1542C74.2523 20.4135 74.1307 20.6927 74.0479 20.9843C74.0161 21.1412 73.7639 21.0022 73.7162 20.7857C73.6921 20.4552 73.6921 20.1233 73.7162 19.7928C73.6353 20.0984 73.5991 20.4141 73.609 20.7301C73.6606 21.036 73.7421 21.1035 73.9526 21.1789C74.1631 21.2544 74.1511 21.0618 74.2107 20.8096C74.2703 20.5574 74.4093 20.1542 74.4093 20.1542Z" fill="#F28F8F"/>
    <path d="M74.3557 24.3702V22.5114C74.3557 22.0984 74.3557 21.6317 73.6865 21.2385C73.4482 21.0995 73.2675 21.0558 73.1781 21.1134C73.0888 21.171 73.1007 21.3259 73.1007 21.3279V23.6076C73.1007 23.624 73.0942 23.6396 73.0826 23.6512C73.0711 23.6627 73.0554 23.6692 73.0391 23.6692C73.0228 23.6692 73.0071 23.6627 72.9956 23.6512C72.984 23.6396 72.9776 23.624 72.9776 23.6076V21.3338C72.9717 21.2726 72.9809 21.2109 73.0045 21.1542C73.028 21.0974 73.0651 21.0472 73.1126 21.0082C73.2476 20.9228 73.4601 20.9645 73.7481 21.1313C74.4828 21.5622 74.4808 22.0885 74.4788 22.5114V24.3702C74.4788 24.3865 74.4724 24.4022 74.4608 24.4137C74.4493 24.4253 74.4336 24.4317 74.4173 24.4317C74.401 24.4317 74.3853 24.4253 74.3738 24.4137C74.3622 24.4022 74.3557 24.3865 74.3557 24.3702V24.3702Z" fill="#455A64"/>
    <path d="M73.9528 23.133C73.938 23.1332 73.9237 23.1281 73.9124 23.1186C73.9011 23.1091 73.8936 23.0959 73.8912 23.0814L73.6628 21.6734C73.6599 21.6573 73.6636 21.6408 73.6729 21.6274C73.6822 21.614 73.6964 21.6048 73.7125 21.6019C73.7288 21.5996 73.7453 21.6037 73.7586 21.6133C73.772 21.6229 73.7811 21.6374 73.784 21.6536L74.0143 23.0556C74.0172 23.0716 74.0136 23.0882 74.0043 23.1016C73.995 23.115 73.9807 23.1241 73.9647 23.127L73.9528 23.133Z" fill="#455A64"/>
    <path d="M73.5337 21.1511C73.1961 21.0141 72.8406 20.754 72.7155 20.895C72.6545 20.9694 72.6125 21.0574 72.593 21.1516C72.5734 21.2457 72.577 21.3432 72.6034 21.4357C72.6297 21.5282 72.678 21.613 72.7443 21.6827C72.8105 21.7525 72.8926 21.8051 72.9836 21.8363C73.3685 21.9664 73.7874 21.953 74.1632 21.7985L73.5337 21.1511Z" fill="#FFA8A7"/>
    <path d="M70.269 8.52716C71.2759 8.52716 72.4912 8.84489 72.9757 9.77625C73.494 10.7692 73.8356 13.4322 73.8356 13.4322C73.8356 13.4322 73.4543 14.2523 72.0484 14.161L70.269 8.52716Z" fill="#37474F"/>
    <path d="M62.2263 33.3303C61.9761 33.1992 61.8152 33.5189 61.5889 33.7751C61.428 33.9538 61.1798 34.2378 61.142 34.4424C61.0884 34.7462 61.3605 35.2228 61.6623 35.4849C61.9642 35.7471 62.3157 35.9357 62.4249 36.5116C62.4527 36.7757 62.555 37.0265 62.7199 37.2347C62.8848 37.4428 63.1055 37.5998 63.3563 37.6872C64.0096 37.9692 64.8853 37.8858 65.1832 37.6872C65.5347 37.4589 65.213 37.2106 64.7205 36.4957C64.0771 35.5743 63.5747 34.917 63.5747 34.0571L62.2263 33.3303Z" fill="#263238"/>
    <path d="M62.7408 32.5757L62.2125 33.3501C62.1007 33.5112 62.0568 33.7099 62.0903 33.9031C62.1237 34.0963 62.2318 34.2686 62.3912 34.3828L62.4071 34.3927C62.5673 34.4903 62.7568 34.5281 62.9422 34.4994C63.1276 34.4707 63.2968 34.3773 63.4199 34.2358L64.244 33.3362L62.7408 32.5757Z" fill="#FFA8A7"/>
    <path d="M72.4513 17.4555C72.4851 18.4484 72.2051 22.434 71.524 24.2074C70.8428 25.9807 70.4456 27.0689 70.2312 27.4363C70.0167 27.8037 63.8328 33.8248 63.8328 33.8248C63.8328 33.8248 62.7823 33.7473 62.6155 32.7306C62.6155 32.7306 65.1494 28.4233 65.6995 27.5396C66.2496 26.6559 68.1917 25.3016 68.1917 25.3016L68.015 17.5747L72.4513 17.4555Z" fill="#37474F"/>
    <path d="M71.0879 38.4934L72.395 38.1962L71.9622 36.2927L70.6551 36.5899L71.0879 38.4934Z" fill="#FFA8A7"/>
    <path d="M72.4514 17.4555H66.1801C66.1245 18.1505 65.9815 18.5398 65.9438 20.2198C65.8961 22.9384 68.4241 27.8772 68.4241 27.8772C68.3923 28.2466 68.2354 29.7955 68.5869 31.1677C69.143 33.3343 70.6542 36.9981 70.6542 36.9981C70.6542 36.9981 71.5994 37.1332 72.0701 36.5871C72.0701 36.5871 71.2341 29.1441 71.0077 27.2377C70.7634 25.1745 70.1379 21.4073 70.1379 21.4073C70.5517 20.994 70.9273 20.544 71.2599 20.0629C71.8399 19.2896 72.2463 18.4002 72.4514 17.4555" fill="#37474F"/>
    <path d="M63.8627 15.9145C64.1447 13.0072 65.0244 10.9638 65.1535 10.233L66.0074 13.8313C65.7385 14.7966 65.5257 15.7766 65.3699 16.7664C65.3342 17.0146 64.9291 19.1752 64.9926 20.0967C65.0033 20.2593 65.0741 20.4122 65.1912 20.5256C65.505 20.8334 65.5983 21.0995 65.8088 21.445C65.9736 21.7171 66.1444 21.8124 66.1007 21.878C66.0422 21.9475 65.9597 21.9925 65.8695 22.0039C65.7793 22.0153 65.6882 21.9923 65.6142 21.9395C65.4473 21.8257 65.2946 21.6924 65.1594 21.5423C65.2131 21.8986 65.3237 22.2439 65.4871 22.5651C65.8584 23.3018 65.7969 23.689 64.7662 23.4726C64.1208 23.3356 63.6939 22.8252 63.5231 21.2981C63.4919 20.7477 63.4952 20.1959 63.533 19.6459C63.5827 18.365 63.7773 16.7863 63.8627 15.9145Z" fill="#FFA8A7"/>
    <path d="M68.1977 8.58673C66.9963 8.87666 65.356 9.25397 64.8813 10.5567C64.4067 11.8594 63.8884 14.3298 63.8884 14.3298C64.2638 14.7686 65.4314 14.999 65.9358 14.7269L66.1721 13.9465V17.4456C67.1114 18.4683 70.3901 18.9449 72.4434 17.4456V10.9181C72.4434 9.87355 71.8635 8.62049 70.259 8.5351L68.1977 8.58673Z" fill="#455A64"/>
    <path d="M66.1802 13.9545L66.7819 12.058L66.1802 14.8044V13.9545Z" fill="#37474F"/>
    <path d="M67.7469 3.24285C67.639 3.22842 67.5293 3.23881 67.426 3.27323C67.3228 3.30764 67.2288 3.36517 67.1511 3.44144C66.897 3.70158 66.9526 4.18215 67.1511 5.28628L67.9355 5.37763L67.7469 3.24285Z" fill="#263238"/>
    <path d="M72.3222 2.92315C72.4908 2.92398 72.6578 2.89018 72.8127 2.82385C73.053 2.68485 73.1166 2.95889 72.9855 3.19521C72.8976 3.36534 72.7678 3.51025 72.6083 3.61624C72.4488 3.72222 72.2649 3.78577 72.074 3.80089C72.074 3.76713 71.8496 3.18726 71.8496 3.18726L72.3222 2.92315Z" fill="#263238"/>
    <path d="M68.1142 5.38955C67.997 5.45905 67.8322 5.23465 67.6873 5.08373C67.6308 5.01908 67.5587 4.96991 67.4779 4.94088C67.3972 4.91185 67.3103 4.90392 67.2256 4.91784C67.1409 4.93176 67.0611 4.96707 66.9939 5.02042C66.9266 5.07378 66.8741 5.14341 66.8413 5.22274C66.603 5.72516 67.1451 6.3924 67.4629 6.61283C67.5516 6.68972 67.6623 6.73668 67.7792 6.74702C67.8962 6.75736 68.0134 6.73055 68.1142 6.67041L68.1976 8.59072C68.3382 8.89874 68.5528 9.16715 68.8224 9.37195C69.092 9.57675 69.4082 9.71157 69.7426 9.76435C70.8706 9.91726 70.6382 8.9859 70.2688 8.53115V7.83213C70.5506 7.89285 70.8403 7.9076 71.1267 7.87582C71.2737 7.8361 71.6252 7.41312 71.8516 6.93651C72.1057 6.40431 72.5287 5.45707 72.1514 3.85648C71.7542 2.13675 69.8995 2.08511 68.7973 2.77817C67.6952 3.47123 68.1142 5.38955 68.1142 5.38955Z" fill="#FFA8A7"/>
    <path d="M68.1143 5.58812C68.0568 5.58812 67.8324 5.21876 67.6874 5.08571C67.4888 4.90301 67.747 3.24881 67.747 3.24881C67.747 3.24881 67.5484 2.6193 67.9455 2.20426C68.3427 1.78922 69.1132 1.85673 69.6752 1.83688C70.3658 1.84322 71.0505 1.70806 71.6869 1.43971C72.4812 1.09219 72.5467 1.04254 72.646 1.40198C72.7453 1.76141 72.783 2.55773 72.3064 3.0959L72.0463 3.51888C72.0463 3.51888 71.804 3.71746 71.0534 3.81477C70.3027 3.91208 69.0378 3.50498 68.869 3.48314C68.6545 3.45335 68.6068 3.66385 68.4916 4.23577C68.3963 4.72627 68.3109 5.58812 68.1143 5.58812Z" fill="#263238"/>
    <path d="M67.7469 3.36994L67.0439 2.99263C67.0912 2.89874 67.1738 2.82742 67.2735 2.79429C67.3733 2.76116 67.4821 2.76893 67.5761 2.81589C67.6705 2.86842 67.741 2.95538 67.7728 3.05861C67.8047 3.16185 67.7954 3.27339 67.7469 3.36994V3.36994Z" fill="#263238"/>
    <path d="M70.2669 7.82814C70.2669 7.82814 69.2224 7.61764 68.857 7.43097C68.6422 7.31908 68.4659 7.14548 68.3506 6.93253C68.4053 7.14853 68.5033 7.3512 68.6385 7.52828C68.9046 7.86984 70.2669 8.12403 70.2669 8.12403V7.82814Z" fill="#F28F8F"/>
    <path d="M70.3007 5.34784C70.2992 5.3891 70.2855 5.42899 70.2615 5.46254C70.2374 5.4961 70.204 5.52184 70.1654 5.53656C70.1269 5.55128 70.0848 5.55433 70.0445 5.54533C70.0042 5.53634 69.9675 5.51569 69.9388 5.48596C69.9102 5.45622 69.8909 5.41873 69.8834 5.37812C69.8759 5.33752 69.8805 5.29561 69.8966 5.25761C69.9128 5.21961 69.9397 5.18719 69.9742 5.16439C70.0086 5.1416 70.0489 5.12942 70.0902 5.12939C70.1184 5.12991 70.1462 5.13597 70.172 5.14723C70.1978 5.15849 70.2212 5.17472 70.2407 5.19501C70.2603 5.21529 70.2756 5.23923 70.2859 5.26545C70.2962 5.29168 70.3013 5.31967 70.3007 5.34784V5.34784Z" fill="#263238"/>
    <path d="M70.0883 4.55749L69.6395 4.80373C69.6074 4.74243 69.6004 4.67102 69.6201 4.60466C69.6397 4.53829 69.6845 4.48219 69.7448 4.44827C69.7743 4.43195 69.8069 4.42182 69.8404 4.4185C69.874 4.41518 69.9079 4.41874 69.9401 4.42896C69.9722 4.43919 70.0019 4.45586 70.0274 4.47795C70.0529 4.50005 70.0737 4.52711 70.0883 4.55749V4.55749Z" fill="#263238"/>
    <path d="M70.1717 6.74786L70.6502 6.92659C70.6397 6.95873 70.6229 6.98842 70.6007 7.01392C70.5785 7.03942 70.5514 7.06019 70.5211 7.07501C70.4907 7.08983 70.4576 7.09839 70.4239 7.10019C70.3901 7.10198 70.3563 7.09697 70.3246 7.08546C70.2605 7.0597 70.2089 7.01023 70.1804 6.94734C70.1519 6.88445 70.1488 6.813 70.1717 6.74786V6.74786Z" fill="#F28F8F"/>
    <path d="M72.1674 4.73023L71.7583 4.41647C71.7774 4.38871 71.802 4.36517 71.8306 4.34731C71.8592 4.32944 71.8911 4.31763 71.9244 4.3126C71.9577 4.30757 71.9917 4.30944 72.0243 4.31808C72.0569 4.32673 72.0873 4.34197 72.1138 4.36285C72.1684 4.40533 72.2045 4.46729 72.2145 4.53576C72.2245 4.60423 72.2076 4.67391 72.1674 4.73023V4.73023Z" fill="#263238"/>
    <path d="M72.0402 5.28827C72.0387 5.32962 72.025 5.36958 72.0008 5.40318C71.9767 5.43677 71.9432 5.46251 71.9045 5.47717C71.8658 5.49182 71.8236 5.49476 71.7833 5.4856C71.7429 5.47644 71.7062 5.4556 71.6776 5.42567C71.6491 5.39574 71.6299 5.35806 71.6227 5.31733C71.6154 5.2766 71.6203 5.23463 71.6367 5.19667C71.6532 5.1587 71.6804 5.12643 71.7151 5.10387C71.7498 5.08131 71.7903 5.06947 71.8317 5.06983C71.8598 5.07035 71.8875 5.07642 71.9132 5.0877C71.9389 5.09899 71.9621 5.11525 71.9815 5.13557C72.0009 5.15588 72.0161 5.17983 72.0262 5.20604C72.0362 5.23226 72.041 5.2602 72.0402 5.28827Z" fill="#263238"/>
    <path d="M71.0553 5.26245L70.8567 6.50757L71.5478 6.42615L71.0553 5.26245Z" fill="#F28F8F"/>
    <path d="M72.2468 37.5601L72.2051 37.3734C72.3421 37.3993 72.9279 38.3664 73.5118 38.7973C74.1492 39.262 74.7033 39.536 74.9872 39.7445C75.3685 40.0245 74.8165 40.5965 73.8791 40.6481C73.4125 40.6739 72.5645 40.5309 72.3044 40.2847C72.0442 40.0384 71.8536 39.6254 71.6471 39.4467C71.4405 39.2679 71.0195 39.113 70.8785 38.8847C70.8006 38.6591 70.7728 38.4191 70.7971 38.1817C70.7971 37.9354 70.813 37.6673 70.8964 37.6713C70.8964 37.6991 70.9302 37.8143 70.9302 37.8143C71.1758 37.9391 71.4492 37.9992 71.7245 37.9891C71.9449 37.9692 72.356 37.9176 72.2468 37.5601Z" fill="#263238"/>
    <path d="M70.8429 25.9748C70.8429 25.9748 70.2869 22.019 70.1379 21.4073C70.1379 21.4073 71.0355 20.9089 71.3751 20.5197C71.1173 20.8911 70.8347 21.2447 70.5291 21.5781L70.8429 25.9748Z" fill="#263238"/>
    <path d="M67.4849 25.8437C67.4849 25.8437 68.1541 27.5098 68.4242 27.8772C68.4242 27.8772 68.3566 29.1461 68.3666 29.4023L68.0151 29.7101C68.0047 29.1355 68.0574 28.5615 68.172 27.9983C67.8649 27.3074 67.6344 26.5849 67.4849 25.8437V25.8437Z" fill="#263238"/>
    <path d="M23.7012 50.4422L48.0198 36.4004C48.1263 36.3465 48.244 36.3184 48.3633 36.3184C48.4827 36.3184 48.6004 36.3465 48.7069 36.4004L64.1527 45.3188C64.253 45.3839 64.3364 45.4718 64.3961 45.5754C64.4558 45.6789 64.4902 45.7951 64.4963 45.9145V46.0515C64.49 46.1709 64.4556 46.2871 64.3959 46.3906C64.3362 46.4941 64.2529 46.5821 64.1527 46.6473L39.8342 60.6872C39.7282 60.7415 39.6107 60.7699 39.4916 60.7699C39.3725 60.7699 39.2551 60.7415 39.149 60.6872L23.6992 51.6198C23.5996 51.5543 23.5167 51.4662 23.4574 51.3627C23.3981 51.2592 23.3639 51.1432 23.3577 51.0241C23.3656 50.907 23.4008 50.7935 23.4605 50.6924C23.5201 50.5914 23.6026 50.5057 23.7012 50.4422V50.4422Z" fill="#3B3773"/>
    <g opacity="0.2">
        <path d="M23.7012 50.4422L48.0198 36.4004C48.1263 36.3465 48.244 36.3184 48.3633 36.3184C48.4827 36.3184 48.6004 36.3465 48.7069 36.4004L64.1527 45.3188C64.253 45.3839 64.3364 45.4718 64.3961 45.5754C64.4558 45.6789 64.4902 45.7951 64.4963 45.9145V46.0515C64.49 46.1709 64.4556 46.2871 64.3959 46.3906C64.3362 46.4941 64.2529 46.5821 64.1527 46.6473L39.8342 60.6872C39.7282 60.7415 39.6107 60.7699 39.4916 60.7699C39.3725 60.7699 39.2551 60.7415 39.149 60.6872L23.6992 51.6198C23.5996 51.5543 23.5167 51.4662 23.4574 51.3627C23.3981 51.2592 23.3639 51.1432 23.3577 51.0241C23.3656 50.907 23.4008 50.7935 23.4605 50.6924C23.5201 50.5914 23.6026 50.5057 23.7012 50.4422V50.4422Z" fill="white"/>
    </g>
    <path d="M23.3577 51.03C23.3639 51.1492 23.3981 51.2652 23.4574 51.3686C23.5167 51.4721 23.5996 51.5602 23.6992 51.6258L39.149 60.6911C39.2583 60.7351 39.3734 60.7632 39.4906 60.7745V58.0917L38.6844 47.3801L29.8116 46.9134L23.7012 50.4422C23.6018 50.5063 23.5189 50.5929 23.4592 50.6951C23.3995 50.7972 23.3647 50.9119 23.3577 51.03Z" fill="#3B3773"/>
    <path d="M23.3577 51.03C23.3639 51.1492 23.3981 51.2652 23.4574 51.3686C23.5167 51.4721 23.5996 51.5602 23.6992 51.6258L39.149 60.6911C39.2583 60.7351 39.3734 60.7632 39.4906 60.7745V58.0917L38.6844 47.3801L29.8116 46.9134L23.7012 50.4422C23.6018 50.5063 23.5189 50.5929 23.4592 50.6951C23.3995 50.7972 23.3647 50.9119 23.3577 51.03Z" fill="#3B3773"/>
    <g opacity="0.2">
        <path d="M23.3577 51.03C23.3639 51.1492 23.3981 51.2652 23.4574 51.3686C23.5167 51.4721 23.5996 51.5602 23.6992 51.6258L39.149 60.6911C39.2583 60.7351 39.3734 60.7632 39.4906 60.7745V58.0917L38.6844 47.3801L29.8116 46.9134L23.7012 50.4422C23.6018 50.5063 23.5189 50.5929 23.4592 50.6951C23.3995 50.7972 23.3647 50.9119 23.3577 51.03Z" fill="black"/>
    </g>
    <path d="M48.7069 36.4004L64.1527 45.3188C64.1948 45.3322 64.2315 45.3587 64.2576 45.3944C64.2836 45.4301 64.2977 45.4732 64.2977 45.5174C64.2977 45.5615 64.2836 45.6046 64.2576 45.6403C64.2315 45.676 64.1948 45.7025 64.1527 45.7159L39.8342 59.7558C39.7277 59.8097 39.61 59.8378 39.4906 59.8378C39.3713 59.8378 39.2536 59.8097 39.1471 59.7558L23.7012 50.8394C23.6601 50.8249 23.6245 50.7981 23.5993 50.7625C23.5741 50.7269 23.5605 50.6844 23.5605 50.6408C23.5605 50.5972 23.5741 50.5547 23.5993 50.5191C23.6245 50.4836 23.6601 50.4567 23.7012 50.4422L48.0198 36.4004C48.1263 36.3465 48.244 36.3184 48.3634 36.3184C48.4827 36.3184 48.6004 36.3465 48.7069 36.4004V36.4004Z" fill="#3B3773"/>
    <path d="M37.1971 46.4964C37.1527 46.4923 37.1099 46.478 37.072 46.4547L35.5627 45.5829C35.5171 45.5571 35.4932 45.5313 35.4893 45.5094C35.4853 45.4876 35.5052 45.4618 35.5469 45.4379L36.2201 45.0507C36.3739 44.9554 36.5514 44.9049 36.7324 44.9049C36.9134 44.9049 37.0909 44.9554 37.2447 45.0507C37.3123 45.0845 37.3688 45.1368 37.4076 45.2016C37.4218 45.2249 37.4293 45.2517 37.4293 45.2791C37.4293 45.3064 37.4218 45.3332 37.4076 45.3565C37.5078 45.3307 37.6122 45.3254 37.7145 45.3407C37.8169 45.3561 37.9151 45.3918 38.0033 45.4459C38.1602 45.5372 38.2416 45.6444 38.2476 45.7517C38.2536 45.8589 38.1622 45.9761 37.9775 46.0833L37.3222 46.4507C37.2861 46.4783 37.2425 46.4943 37.1971 46.4964V46.4964ZM36.8277 45.5035C36.8734 45.4757 36.8972 45.4479 36.8952 45.4181C36.8933 45.3883 36.8674 45.3565 36.8158 45.3267C36.7686 45.2973 36.7145 45.2808 36.6589 45.2791C36.6072 45.2801 36.5566 45.2945 36.512 45.3208L36.2637 45.4657L36.5795 45.6464L36.8277 45.5035ZM37.5665 45.8867C37.6161 45.8589 37.636 45.8271 37.63 45.7934C37.6235 45.7723 37.6125 45.7528 37.5978 45.7364C37.583 45.7199 37.5649 45.7068 37.5446 45.6981C37.4912 45.6658 37.4303 45.648 37.3679 45.6464C37.3114 45.6451 37.2557 45.6596 37.207 45.6881L36.929 45.849L37.2805 46.0476L37.5665 45.8867Z" fill="white"/>
    <path d="M38.46 45.7398C38.4448 45.7293 38.4314 45.7166 38.4203 45.702L37.4075 44.4569C37.3917 44.439 37.3813 44.417 37.3777 44.3934C37.3777 44.3775 37.3936 44.3616 37.4234 44.3457L37.6219 44.2266C37.6478 44.211 37.6772 44.2022 37.7073 44.2007C37.7438 44.2013 37.7799 44.2073 37.8146 44.2186L39.9732 44.8025C39.9948 44.8063 40.0156 44.8137 40.0347 44.8243C40.0506 44.8243 40.0586 44.8422 40.0586 44.8521C40.0586 44.862 40.0586 44.872 40.0367 44.8799L39.6872 45.0785C39.667 45.0896 39.6447 45.0963 39.6217 45.0983C39.5953 45.0996 39.569 45.0955 39.5442 45.0864L39.2146 44.9891L38.742 45.2612L38.9147 45.4498C38.9211 45.4556 38.9262 45.4626 38.9297 45.4705C38.9331 45.4784 38.9348 45.4869 38.9346 45.4955C38.927 45.5123 38.9136 45.5257 38.8969 45.5332L38.5493 45.7318C38.5365 45.7411 38.5215 45.7467 38.5057 45.7481C38.49 45.7495 38.4742 45.7466 38.46 45.7398ZM38.7678 44.8442L38.1859 44.6694L38.4917 45.005L38.7678 44.8442Z" fill="white"/>
    <path d="M40.2332 44.7329C40.1888 44.7288 40.146 44.7146 40.1081 44.6912L38.5969 43.8175C38.5519 43.7923 38.528 43.7685 38.5254 43.746C38.5227 43.7235 38.5426 43.6997 38.585 43.6745L38.7637 43.5712C38.7876 43.5568 38.8138 43.5468 38.8411 43.5414C38.874 43.5357 38.9076 43.5357 38.9404 43.5414L40.3305 43.74L39.5362 43.2793C39.4925 43.2535 39.4667 43.2277 39.4627 43.2058C39.4587 43.184 39.4786 43.1582 39.5203 43.1343L39.7407 43.0073C39.7785 42.9847 39.8218 42.973 39.8658 42.9735C39.9109 42.9773 39.9544 42.9916 39.9929 43.0152L41.5041 43.889C41.5491 43.9141 41.573 43.938 41.5756 43.9605C41.5756 43.9823 41.5558 44.0061 41.5121 44.0319L41.3353 44.1332C41.3116 44.1483 41.2854 44.1591 41.2579 44.165C41.2257 44.1707 41.1928 44.1707 41.1606 44.165L39.7705 43.9664L40.5648 44.4291C40.6098 44.4556 40.6337 44.4794 40.6363 44.5006C40.6363 44.5225 40.6165 44.5463 40.5728 44.5721L40.3543 44.6992C40.3177 44.7212 40.2759 44.7328 40.2332 44.7329V44.7329Z" fill="white"/>
    <path d="M43.1426 43.0331C43.1565 43.0331 43.1664 43.0509 43.1664 43.0609C43.1664 43.0708 43.1664 43.0807 43.1445 43.0887L42.795 43.2873C42.7776 43.2975 42.7589 43.3055 42.7394 43.3111C42.7211 43.3151 42.7021 43.3151 42.6838 43.3111L41.5062 43.1423L42.1437 43.5117C42.1894 43.5375 42.2132 43.5613 42.2172 43.5851C42.2211 43.609 42.1993 43.6308 42.1556 43.6566L41.9352 43.7817C41.8993 43.8056 41.8571 43.8181 41.814 43.8175C41.7693 43.8138 41.7262 43.7987 41.6889 43.7738L40.1797 42.904C40.134 42.8782 40.1102 42.8524 40.1062 42.8305C40.1022 42.8087 40.1221 42.7829 40.1638 42.759L40.3822 42.6319C40.42 42.6093 40.4633 42.5977 40.5073 42.5982C40.5524 42.6017 40.596 42.616 40.6344 42.6399L41.26 43.0013L40.9621 42.34C40.9591 42.3349 40.9576 42.3291 40.9576 42.3231C40.9576 42.3172 40.9591 42.3114 40.9621 42.3063C40.9744 42.2924 40.9893 42.2809 41.0058 42.2725L41.3533 42.0739C41.368 42.066 41.3843 42.0619 41.401 42.062C41.4185 42.0617 41.4358 42.0665 41.4506 42.0759C41.4663 42.0836 41.4784 42.0971 41.4844 42.1136L41.7803 42.8424L43.077 43.0112C43.1003 43.0133 43.1227 43.0208 43.1426 43.0331V43.0331Z" fill="white"/>
    <path d="M44.0302 42.35C43.7083 42.3391 43.3945 42.2462 43.1187 42.0799C42.8149 41.9031 42.658 41.7304 42.6441 41.5556C42.6302 41.3809 42.7593 41.22 43.0254 41.0651C43.1374 41.0006 43.2559 40.948 43.3788 40.9082C43.4922 40.871 43.6095 40.847 43.7283 40.8367C43.753 40.8338 43.778 40.8387 43.7998 40.8506C43.8153 40.8608 43.8282 40.8744 43.8376 40.8904L43.9309 41.0572C43.9448 41.075 43.9448 41.0889 43.9309 41.0969C43.911 41.1064 43.8894 41.1118 43.8674 41.1128C43.7273 41.131 43.5923 41.1769 43.4702 41.2478C43.3292 41.3272 43.2716 41.4166 43.2855 41.5139C43.2994 41.6112 43.4007 41.7125 43.5814 41.8177C43.7432 41.9161 43.9266 41.9734 44.1156 41.9846C44.2803 41.994 44.4443 41.9561 44.5882 41.8753C44.6922 41.8234 44.7766 41.7391 44.8285 41.635C44.8347 41.621 44.8442 41.6088 44.8563 41.5993C44.8782 41.5919 44.9019 41.5919 44.9238 41.5993L45.2257 41.6549C45.2465 41.6583 45.2666 41.665 45.2852 41.6748C45.2928 41.679 45.299 41.6855 45.3028 41.6933C45.3067 41.7011 45.3082 41.7098 45.3071 41.7185C45.2813 41.8495 45.1442 41.9865 44.898 42.1275C44.6353 42.2816 44.3346 42.3586 44.0302 42.35V42.35Z" fill="white"/>
    <path d="M45.4363 41.7125C45.4205 41.7022 45.4064 41.6895 45.3946 41.6748L44.3838 40.4296C44.366 40.4131 44.3553 40.3903 44.354 40.3661C44.354 40.3502 44.3699 40.3343 44.3977 40.3184L44.5963 40.1993C44.6214 40.1836 44.6501 40.1747 44.6797 40.1735C44.7168 40.1739 44.7536 40.18 44.7889 40.1913L46.9475 40.7752C46.9685 40.7788 46.9887 40.7862 47.0071 40.797C47.023 40.797 47.0309 40.8149 47.0309 40.8248C47.0309 40.8347 47.0309 40.8447 47.0091 40.8526L46.6596 41.0512C46.6401 41.0625 46.6184 41.0693 46.596 41.0711C46.5697 41.0723 46.5433 41.0682 46.5186 41.0591L46.1889 40.9618L45.7143 41.2359L45.8891 41.4345C45.903 41.4504 45.9109 41.4662 45.9069 41.4782C45.903 41.4901 45.893 41.504 45.8692 41.5159L45.5217 41.7145C45.5086 41.7219 45.4937 41.7256 45.4787 41.7252C45.4637 41.7249 45.449 41.7205 45.4363 41.7125ZM45.7421 40.8169L45.1622 40.6421L45.4681 40.9777L45.7421 40.8169Z" fill="white"/>
    <path d="M47.2096 40.7057C47.1645 40.7019 47.121 40.6876 47.0825 40.664L45.5732 39.7922C45.5296 39.7664 45.5057 39.7425 45.5018 39.7187C45.4978 39.6949 45.5157 39.673 45.5594 39.6472L46.1134 39.3275C46.2948 39.2115 46.5057 39.1498 46.7211 39.1498C46.9364 39.1498 47.1473 39.2115 47.3287 39.3275C47.577 39.4705 47.6643 39.6174 47.5928 39.7683L48.3773 39.9669C48.3947 39.9701 48.4114 39.9761 48.4269 39.9848C48.4333 39.9878 48.4389 39.9923 48.4434 39.9978C48.4479 40.0033 48.451 40.0097 48.4527 40.0166C48.4527 40.0285 48.4527 40.0384 48.4289 40.0483L48.1131 40.231C48.0931 40.2418 48.0717 40.2498 48.0496 40.2549C48.0274 40.2606 48.0042 40.2606 47.9821 40.2549L47.2652 40.0563L47.0904 40.1576L47.5392 40.4157C47.5849 40.4415 47.6087 40.4674 47.6107 40.4892C47.6127 40.511 47.5948 40.5349 47.5511 40.5607L47.3307 40.6878C47.2927 40.7046 47.2508 40.7107 47.2096 40.7057V40.7057ZM46.8859 39.8299C47.0229 39.7505 47.017 39.6691 46.872 39.5856C46.811 39.545 46.74 39.5219 46.6667 39.5191C46.5935 39.5163 46.5209 39.5338 46.4569 39.5698L46.2782 39.673L46.7191 39.9272L46.8859 39.8299Z" fill="white"/>
    <path d="M48.6414 39.8776C48.5971 39.8735 48.5543 39.8592 48.5163 39.8359L47.0071 38.9641C46.9634 38.9383 46.9376 38.9144 46.9336 38.8906C46.9296 38.8668 46.9495 38.8449 46.9912 38.8211L47.4896 38.5332C47.7328 38.3886 48.011 38.3137 48.2939 38.3167C48.6033 38.3316 48.9038 38.4245 49.1677 38.5868C49.4636 38.7596 49.6185 38.9264 49.6304 39.0892C49.6423 39.252 49.5192 39.4089 49.261 39.5579L48.7645 39.8438C48.7279 39.8673 48.6849 39.8791 48.6414 39.8776ZM48.9036 39.3275C49.0128 39.264 49.0545 39.1964 49.0306 39.1289C49.0068 39.0614 48.9016 38.9641 48.7129 38.8549C48.57 38.7631 48.4098 38.7016 48.2423 38.6742C48.1202 38.6589 47.9965 38.6848 47.8908 38.7476L47.7121 38.8509L48.7248 39.4367L48.9036 39.3275Z" fill="white"/>
    <path d="M28.5406 51.3736L32.693 48.9747C32.7999 48.9209 32.9179 48.8929 33.0375 48.8929C33.1572 48.8929 33.2752 48.9209 33.3821 48.9747L36.7262 50.9069C36.7683 50.9204 36.805 50.9469 36.8311 50.9826C36.8571 51.0183 36.8711 51.0613 36.8711 51.1055C36.8711 51.1497 36.8571 51.1927 36.8311 51.2284C36.805 51.2641 36.7683 51.2906 36.7262 51.3041L32.5738 53.701C32.4673 53.7549 32.3496 53.783 32.2303 53.783C32.1109 53.783 31.9932 53.7549 31.8867 53.701L28.5406 51.7707C28.4995 51.7563 28.4638 51.7294 28.4386 51.6938C28.4134 51.6583 28.3999 51.6158 28.3999 51.5722C28.3999 51.5286 28.4134 51.486 28.4386 51.4505C28.4638 51.4149 28.4995 51.388 28.5406 51.3736V51.3736Z" fill="#E0E0E0"/>
    <path d="M34.6691 53.5203L31.7737 51.882C31.6678 51.8219 31.548 51.7904 31.4262 51.7904C31.3044 51.7904 31.1847 51.8219 31.0787 51.882L29.0531 53.0497L28.9539 52.8789L30.9794 51.7092C31.1153 51.6321 31.269 51.5916 31.4252 51.5916C31.5815 51.5916 31.7351 51.6321 31.8711 51.7092L34.7664 53.3475L34.6691 53.5203Z" fill="white"/>
    <path d="M33.845 51.0797C33.6854 51.08 33.5285 51.0382 33.3902 50.9586L30.5703 49.3282L30.6696 49.1574L33.4915 50.7858C33.5992 50.8482 33.7215 50.8811 33.846 50.8811C33.9704 50.8811 34.0927 50.8482 34.2004 50.7858L36.216 49.6221L36.3153 49.7949L34.2997 50.9586C34.1616 51.0386 34.0046 51.0804 33.845 51.0797V51.0797Z" fill="white"/>
    <path d="M33.0864 50.7262L32.9872 50.5534L35.259 49.2428L34.6513 48.8913L32.2802 50.2595L32.1809 50.0888L34.6513 48.6629L35.6561 49.2428L33.0864 50.7262Z" fill="white"/>
    <path d="M30.6179 54.0148L29.6111 53.4349L32.1986 51.9515L32.2979 52.1223L30.0102 53.4349L30.6179 53.7844L33.0049 52.4082L33.1042 52.579L30.6179 54.0148Z" fill="white"/>
    <path d="M34.3573 54.535L38.1661 52.3367C38.3261 52.2554 38.503 52.2131 38.6824 52.2131C38.8619 52.2131 39.0388 52.2554 39.1987 52.3367L39.7786 52.6723C40.0646 52.8352 40.0646 53.1032 39.7786 53.2681L35.9718 55.4664C35.8118 55.5477 35.6349 55.59 35.4554 55.59C35.276 55.59 35.0991 55.5477 34.9391 55.4664L34.3573 55.1308C34.0733 54.966 34.0733 54.6979 34.3573 54.535Z" fill="#3B3773"/>
    <g opacity="0.7">
        <path d="M34.5558 54.535L38.3646 52.3367C38.5246 52.2554 38.7015 52.2131 38.8809 52.2131C39.0603 52.2131 39.2373 52.2554 39.3972 52.3367L39.9771 52.6723C40.2631 52.8352 40.2631 53.1032 39.9771 53.2681L36.1702 55.4664C36.0103 55.5477 35.8334 55.59 35.6539 55.59C35.4745 55.59 35.2976 55.5477 35.1376 55.4664L34.5558 55.1308C34.2718 54.966 34.2718 54.6979 34.5558 54.535Z" fill="white"/>
    </g>
    <path d="M40.005 51.2743L43.8118 49.078C43.9718 48.9967 44.1487 48.9543 44.3282 48.9543C44.5076 48.9543 44.6845 48.9967 44.8445 49.078L45.4263 49.4136C45.7103 49.5784 45.7103 49.8445 45.4263 50.0093L41.6175 52.2076C41.4579 52.2889 41.2813 52.3313 41.1022 52.3313C40.9231 52.3313 40.7465 52.2889 40.5868 52.2076L40.005 51.872C39.719 51.7052 39.719 51.4391 40.005 51.2743Z" fill="#3B3773"/>
    <path d="M40.005 51.2743L43.8118 49.078C43.9718 48.9967 44.1487 48.9543 44.3282 48.9543C44.5076 48.9543 44.6845 48.9967 44.8445 49.078L45.4263 49.4136C45.7103 49.5784 45.7103 49.8445 45.4263 50.0093L41.6175 52.2076C41.4579 52.2889 41.2813 52.3313 41.1022 52.3313C40.9231 52.3313 40.7465 52.2889 40.5868 52.2076L40.005 51.872C39.719 51.7052 39.719 51.4391 40.005 51.2743Z" fill="#3B3773"/>
    <path opacity="0.7" d="M40.005 51.2743L43.8118 49.078C43.9718 48.9967 44.1487 48.9543 44.3282 48.9543C44.5076 48.9543 44.6845 48.9967 44.8445 49.078L45.4263 49.4136C45.7103 49.5784 45.7103 49.8445 45.4263 50.0093L41.6175 52.2076C41.4579 52.2889 41.2813 52.3313 41.1022 52.3313C40.9231 52.3313 40.7465 52.2889 40.5868 52.2076L40.005 51.872C39.719 51.7052 39.719 51.4391 40.005 51.2743Z" fill="white"/>
    <path d="M45.6507 48.0136L49.4596 45.8152C49.6192 45.734 49.7958 45.6916 49.9749 45.6916C50.154 45.6916 50.3306 45.734 50.4902 45.8152L51.0721 46.1509C51.358 46.3157 51.358 46.5818 51.0721 46.7466L47.2652 48.9449C47.1052 49.0262 46.9283 49.0686 46.7489 49.0686C46.5695 49.0686 46.3925 49.0262 46.2326 48.9449L45.6507 48.6093C45.3668 48.4445 45.3668 48.1784 45.6507 48.0136Z" fill="#3B3773"/>
    <path opacity="0.7" d="M45.6507 48.0136L49.4596 45.8152C49.6192 45.734 49.7958 45.6916 49.9749 45.6916C50.154 45.6916 50.3306 45.734 50.4902 45.8152L51.0721 46.1509C51.358 46.3157 51.358 46.5818 51.0721 46.7466L47.2652 48.9449C47.1052 49.0262 46.9283 49.0686 46.7489 49.0686C46.5695 49.0686 46.3925 49.0262 46.2326 48.9449L45.6507 48.6093C45.3668 48.4445 45.3668 48.1784 45.6507 48.0136Z" fill="white"/>
    <path d="M51.2985 44.7548L55.1053 42.5565C55.2653 42.4752 55.4422 42.4328 55.6216 42.4328C55.8011 42.4328 55.978 42.4752 56.1379 42.5565L56.7198 42.8921C57.0038 43.0549 57.0038 43.323 56.7198 43.4878L52.911 45.6862C52.751 45.7674 52.5741 45.8098 52.3946 45.8098C52.2152 45.8098 52.0383 45.7674 51.8783 45.6862L51.2985 45.3505C51.0125 45.1857 51.0125 44.9176 51.2985 44.7548Z" fill="#3B3773"/>
    <path opacity="0.7" d="M51.2985 44.7548L55.1053 42.5565C55.2653 42.4752 55.4422 42.4328 55.6216 42.4328C55.8011 42.4328 55.978 42.4752 56.1379 42.5565L56.7198 42.8921C57.0038 43.0549 57.0038 43.323 56.7198 43.4878L52.911 45.6862C52.751 45.7674 52.5741 45.8098 52.3946 45.8098C52.2152 45.8098 52.0383 45.7674 51.8783 45.6862L51.2985 45.3505C51.0125 45.1857 51.0125 44.9176 51.2985 44.7548Z" fill="white"/>
    <path d="M59.3469 44.4093C59.5137 44.5066 59.4959 44.6734 59.3052 44.7846L49.5071 50.4402C49.4087 50.4951 49.2988 50.5258 49.1863 50.5299C49.0738 50.5341 48.9619 50.5115 48.8597 50.4641C48.6929 50.3668 48.7108 50.2 48.9014 50.0907L58.6996 44.4331C58.7982 44.3792 58.9081 44.349 59.0204 44.3448C59.1328 44.3407 59.2446 44.3627 59.3469 44.4093V44.4093Z" fill="#3B3773"/>
    <g opacity="0.1">
        <path d="M59.3469 44.4093C59.5137 44.5066 59.4959 44.6734 59.3052 44.7846L49.5071 50.4402C49.4087 50.4951 49.2988 50.5258 49.1863 50.5299C49.0738 50.5341 48.9619 50.5115 48.8597 50.4641C48.6929 50.3668 48.7108 50.2 48.9014 50.0907L58.6996 44.4331C58.7982 44.3792 58.9081 44.349 59.0204 44.3448C59.1328 44.3407 59.2446 44.3627 59.3469 44.4093V44.4093Z" fill="black"/>
    </g>
    <path d="M60.9673 45.3426C61.1361 45.4399 61.1183 45.6067 60.9276 45.7159L54.6524 49.3361C54.554 49.3909 54.4441 49.4217 54.3315 49.4258C54.219 49.4299 54.1071 49.4074 54.005 49.3599C53.8382 49.2646 53.8561 49.0958 54.0467 48.9866L60.32 45.3664C60.4183 45.3116 60.5283 45.2809 60.6408 45.2767C60.7533 45.2726 60.8652 45.2952 60.9673 45.3426Z" fill="#3B3773"/>
    <g opacity="0.1">
        <path d="M60.9673 45.3426C61.1361 45.4399 61.1183 45.6067 60.9276 45.7159L54.6524 49.3361C54.554 49.3909 54.4441 49.4217 54.3315 49.4258C54.219 49.4299 54.1071 49.4074 54.005 49.3599C53.8382 49.2646 53.8561 49.0958 54.0467 48.9866L60.32 45.3664C60.4183 45.3116 60.5283 45.2809 60.6408 45.2767C60.7533 45.2726 60.8652 45.2952 60.9673 45.3426Z" fill="black"/>
    </g>
</svg>
